<svg xmlns="http://www.w3.org/2000/svg" viewBox="0 0 1024 1024"><path d="
M584 1020
c98 0 175-17 243-51
l-55-137
c-55 30-115 47-183 47
-115 0-209-38-277-107
-60-64-94-154-94-256
s38-196 102-260
c68-73 162-111 273-111
c68 0 128 17 183 47
l51-132
c-73-34-158-55-243-55
-137 0-265 51-363 137
-94 94-149 226-149 371
c0 299 213 508 512 508
z
m261-760
c-34 13-60 43-77 64
-4 4-9 9-13 13
s-4 4-9 9
c0-4-4-9-13-17
-4-4-4-4-9-9
-9-9-26-13-43-13
s-30 9-38 17
c-17 17-21 43-21 60
c0 4-17 17-30 26
-4 4-26 21-34 34
-17 21-38 47-51 64
-4 9-4 17-4 30
v26
c-9 21-43 55-68 81
-13 13-26 26-30 30
-4 13 73 77 107 85
c34 0 94-9 132-17
c17-4 26-4 34-4
c4 0 13 0 21 4
s26 9 38 9
h34
c34-9 51-30 68-51
c13-13 21-30 34-34
c9-4 17-9 30-9
c21-43 34-85 38-137
v-51
c-4-81-43-154-98-209
z
M452 486
c0-4-13-47-21-68
v-4
c4-4 51-38 51-43
h-64
c-4 0-4 0-4-4
-4-21-17-64-21-68
-9 21-13 43-21 68
c0 4-4 4-4 4
h-68
s38 30 55 43
l4 4
c-4 17-17 60-17 64
c0 0 34-26 51-38
c9-4 4-4 13 0
-4 4 30 30 47 43
z"/></svg>