<svg xmlns="http://www.w3.org/2000/svg" viewBox="0 0 1024 1024"><path d="
M835 332
c-66-98-167-205-302-320
-135 115-236 222-302 320
-69 99-101 190-101 274
c0 117 38 215 115 294
c77 79 173 119 288 119
s211-40 288-119
c77-79 115-177 115-294
c0-84-34-175-101-274
z
m-68 514
c-62 65-139 97-234 97
s-171-32-234-95
c-62-65-93-145-93-242
c0-66 26-143 80-228
c56-84 137-173 244-268
c107 95 187 183 244 268
s84 159 84 226
c0 97-30 177-92 242
z
m-249-56
c-55 0-97-21-126-61
-23-32-30-65-30-66
-4-22-25-37-47-33
-22 4-37 25-33 47
c12 66 76 193 235 194
c22 0 41-18 41-40
s-18-40-41-41
z"/></svg>