<svg xmlns="http://www.w3.org/2000/svg" viewBox="0 0 10240 10240"><path d="
M8353 3319
c-664-984-1671-2054-3021-3201
-1350 1147-2357 2217-3021 3201
-686 989-1007 1896-1007 2741
c0 1169 384 2154 1147 2939
c768 786 1734 1187 2881 1187
s2113-402 2881-1187
c768-786 1147-1774 1147-2939
c0-844-343-1752-1007-2741
z
m-682 5138
c-623 646-1391 966-2339 966
s-1711-321-2339-948
c-623-646-926-1449-926-2416
c0-664 262-1431 804-2276
c564-844 1368-1734 2438-2677
c1066 948 1874 1833 2438 2677
s844 1589 844 2258
c5 966-298 1770-921 2416
z
m-2488-556
c-546-5-971-212-1260-614
-230-321-298-650-298-659
-41-221-248-366-470-330
-221 41-370 248-330 470
c117 664 759 1928 2352 1941
h5
c221 0 406-181 406-402
s-181-402-406-406
z"/></svg>