<svg xmlns="http://www.w3.org/2000/svg" viewBox="0 0 1024 1024"><path d="
M835 332
c-66-98-167-205-302-320
-135 115-236 222-302 320
-69 99-101 190-101 274
c0 117 38 215 115 294
c77 79 173 119 288 119
s211-40 288-119
c77-79 115-177 115-294
c0-84-34-175-101-274
z
m-68 514
c-62 65-139 97-234 97
s-171-32-234-95
c-62-65-93-145-93-242
c0-66 26-143 80-228
c56-84 137-173 244-268
c107 95 187 183 244 268
s84 159 84 226
c0 97-30 177-92 242
z"/><path d="
M518.321 790.123
c-54.631-0.451-97.072-21.22-125.968-61.404-23.026-32.056-29.799-65.016-29.799-65.919-4.063-22.123-24.832-36.571-46.956-32.959-22.123 4.063-37.023 24.832-32.959 46.956 11.739 66.37 75.852 192.79 235.231 194.145 0 0 0.451 0 0.451 0 22.123 0 40.635-18.060 40.635-40.183s-18.060-40.183-40.635-40.635z"/>
</svg>