<svg xmlns="http://www.w3.org/2000/svg" viewBox="0 0 1024 1024">
  <path
    d="
M500 894
v57
c0 19-16 35-35 35
h-393
c-19 0-35-16-35-35
v-878
c0-19 16-35 35-35
h62
c6 0 7 3 7 4
c0 11 9 19 19 19
h216
c11 0 19-9 19-19
c0-1 1-4 7-4
h62
c19 0 35 16 35 35
v306
c11-6 24-10 38-11
h1
v-294
c0-40-33-73-73-73
h-393
c-40 0-73 33-73 73
v0 877.773
c-0 40.38 32.734 73.114 73.114 73.114
l0-0h392.704
c40.38 0 73.114-32.734 73.114-73.114
v-44.032
c-14.725-3.477-27.562-8.011-39.732-13.729
l1.229 0.519
z" />
</svg>
