<svg xmlns="http://www.w3.org/2000/svg" viewBox="0 15 378 210"><path fill="#000" d="
m0 15
h378
v210
H0
z"/><g fill="#FFF"><path d="
m135 100
l-7-20
-7 20
h-21
l17 13
-6 20
l17-13
l17 13
-6-20
l17-13
h-21
z
m-29 125
c22 0 39-4 54-13
l3-8
c-5 1-10 1-14 1
h-4
c-4-1-8-3-13-7
-2-2-5-4-8-7
-6 1-12 2-18 2
-43 0-73-30-73-73
c0-41 32-72 72-72
c23 0 43 9 61 28
l14-34
c-21-17-47-27-74-27
-29 0-55 10-75 29
C11 63 0 90 0 120
c0 62 44 105 106 105
z
m117-125
h4
c7 0 15 3 22 6
c1 0 2 1 3 1
c0 0 1 0 1 1
l15-39
l15 38
h7
c10 0 19 1 28 3
l-33-86
h-35
l-29 76
z
m142 74
c0-6-5-18-9-22
c2-5-1-8-2-10
-1-1-4-2-5-2
-5-7-14-13-28-17
-9-3-19-4-31-4
h-6
c-11 1-27 3-31 3
-2 0-6-2-10-4
-6-2-12-5-17-5
h-1
c-5 1-15 7-19 9
-3 1-11 5-14 7
h-2
c-6 2-11 9-12 10
c0-1-3-4-6-4
h-1
c-4 2-4 5-4 6
-1 0-2-2-4-2
-1 0-2 0-3 1
-4 2-2 6-3 8
-2 2-7 7-9 11
-1 1 0 5-1 7
-2 4-11 12-12 13
c0 1 2 3 5 6
c3 2 6 4 8 5
c6 0 18-2 21-3
c1 0 2 1 4 1
c2 0 3 1 6 1
h2
c3-1 5-2 6-3
c3-3 4-6 7-7
c2-1 5-2 7-2
c1 0 2 0 3 1
-4 9-2 20-4 22
-2 2-3 4-4 5
-4 6-5 12-6 13
h-2
c-2 0-5-1-7-1
h-1
c-2 1-8 6-6 7
h29
l6-5
h14
c1 0 1-2 7-5
c7-3 4-16 12-26
l3-2
c3 0 8 5 26 5
c18 0 23-6 25-6
c1 0 4 2 4 3
-8 14 12 29 11 30
-1 0-3-1-6-1
-1 0-3 0-4 1
-3 1-6 5-3 7
h29
c1 0 1-2 1-4
v-3
c1-1 2-5 4-8
c2-2 4-4 6-4
c1 0 1 0 2 1
c4 2 13 3 18 5
c2 1 4 2 4 3
c0 1-1 1-1 1
h-1
c-1 0-3-1-5-1
h-2
c-2 1-5 3-5 5
c0 1 0 2 1 2
h22
c3 0 2-5 7-16
c1-3-7-7-8-13
-4-3-5-18-5-19
z"/></g></svg>