<svg xmlns="http://www.w3.org/2000/svg" viewBox="0 0 149.31 83.66"><rect fill="black" width="149.31" height="83.66"/><g id="Logo" fill="#fff" stroke-width="0" transform="scale(.01)"><path d="
m4216 8364
c886 0 1554-175 2144-499
l127-322
c-210 32-404 57-553 57
h-71
l-69-18
c-153-39-333-139-536-299
-78-61-203-162-299-295
-222 51-460 79-720 79
-1712 0-2908-1191-2908-2897
c0-1611 1262-2874 2874-2874
c903 0 1703 360 2444 1098
l524-1330
c-819-682-1854-1064-2934-1064
-1138 0-2196 405-2978 1141
-813 765-1261 1841-1261 3030
c0 2469 1734 4193 4216 4193
z"/><path d="
m8875 3389
c61-10 112-10 143-10
c283 0 589 106 877 221
c38 15 74 30 109 44
c16 6 33 13 50 20
l605-1567
l578 1496
c24-2 49-3 72-5
h19
c55-3 112-5 167-5
h80
c391 8 762 52 1108 132
l-1319-3413
h-1434
l-1205 3123
c51-16 102-29 150-36
z"/><path d="
m5544 3837
c34-24 627-436 635-472
h-788
c-31 0-52 0-64-40
h-1
c-73-226-241-723-266-736
-82 250-164 499-244 748
-9 28-28 29-51 29
-178-3-709 9-811 9
c18 16 441 317 647 463
c26 18 39 31 27 69
-66 195-228 684-228 735
c15 5 412-280 604-416
q77-55 154 0
c6 4 405 284 601 421
c11-36-161-523-236-744
-10-32-8-45 21-66
z"/><path d="
m14541 6347
l-8 3
c-10-232-200-707-366-858
c71-213-28-321-85-393
-34-42-147-71-197-91
-179-272-562-519-1099-677
-348-102-760-168-1225-178
-21 0-44-1-69-1
-47 0-99 2-155 5
-426 23-1080 118-1233 118
h-13
c-64-3-222-73-409-147
-220-88-477-181-667-181
-20 0-40 0-58 3
-179 22-601 291-757 377
-107 59-453 207-552 270
-21 7-68 7-88 14
-247 82-421 365-495 414
-8-30-101-159-232-159
-15 0-31 2-47 6
-159 66-148 184-148 241
-31-12-77-69-164-69
-31 0-68 7-109 25
-175 94-81 249-123 302
-63 84-270 291-348 434
-33 59 3 213-22 274
-69 168-440 466-475 533
-12 31 88 131 211 228
c113 89 243 173 324 193
c227 0 714-94 820-106
h1
c31 0 87 21 159 40
c63 16 139 32 225 32
c23 0 48 0 72-3
c111-23 185-74 246-135
c101-102 159-231 274-282
c88-40 200-69 297-69
c48 0 93 7 129 24
-183 328-143 767-207 830
-71 69-127 141-171 209
-157 241-179 460-255 511
-21 14-48 19-78 19
-86 0-203-41-285-41
-20 0-38 2-54 8
-98 36-326 246-242 296
c26 2 400 2 793 2
h341
c10 0 219-191 229-191
h553
c52-8 47-91 286-213
c270-106 142-628 488-1027
c3 0 106-97 130-97
c120 0 322 218 1049 218
s903-251 1003-251
c50 0 150 75 150 100
-325 552 492 1172 427 1211
-2 2-5 2-8 2
-28 0-107-44-226-44
-48 0-102 7-162 27
-132 44-239 211-136 262
c27 0 352 1 675 1
c180 0 360 0 488-1
c41-5 38-83 36-159
-1-50-2-99 9-125
c34-44 64-200 151-309
c85-93 151-164 221-164
c29 0 57 13 88 40
c153 84 523 130 733 206
c87 32 148 67 152 114
-3 26-24 34-54 34
-13 0-27-1-42-3
-51-7-118-23-183-23
-34 0-66 5-97 16
-95 36-191 139-218 214
-14 41-9 73 29 82
h870
c100 0 63-200 285-644
c33-125-279-296-325-533
-29-155-59-463-63-763
z"/></g></svg>