<svg viewBox="0 0 364 231" fill="none" xmlns="http://www.w3.org/2000/svg">
  <path
    stroke="#EDEDEF"
    stroke-width="100"
    transform="scale(.01)"
    d="
m50 16275
h36300
M50 10475
h36300
M50 13375
h36300" />
  <g fill="#046B99">
    <path
      transform="scale(.01)"
      d="
m4436 21088
c-54 0-104-10-151-31
-47-21-85-50-115-88
-29-38-46-82-50-133
h167
c7 34 23 61 48 82
c25 21 56 32 94 32
c41 0 78-10 109-30
c32-19 55-51 71-93
c16-43 21-99 17-168
-12 21-27 39-47 55
-20 16-43 28-69 37
-27 8-56 13-88 13
-59 0-111-11-157-33
-45-23-81-54-107-95
-25-41-38-90-38-147
c0-56 13-107 41-151
c27-45 65-80 114-105
c48-25 106-38 171-38
c74 0 137 18 190 53
c54 35 95 85 123 149
c29 64 44 139 44 226
c0 104-15 190-45 259
-29 69-71 121-126 155
-55 34-120 51-196 51
z
m16-464
c24 0 48-5 70-16
c24-11 43-25 57-42
c15-17 23-34 23-52
c0-39-6-72-19-100
-12-28-30-49-53-64
-22-15-48-22-78-22
-28 0-53 6-74 19
-22 13-39 31-51 54
-13 23-19 50-19 81
c0 45 13 80 40 105
c26 25 61 37 104 37
z
m663 463
c-39 0-75-7-107-22
-32-15-57-36-75-64
-18-29-28-63-28-104
c0-68 26-119 77-154
c50-36 131-54 240-56
l78-1
v-37
c0-28-8-50-25-65
-16-16-42-24-77-23
-26 0-50 6-73 18
-23 11-39 32-47 60
h-146
c2-44 15-81 39-110
c24-29 56-51 96-65
c41-14 87-21 139-21
c63 0 114 8 152 24
c39 15 67 38 84 67
c17 30 26 64 26 105
v436
h-146
l-15-107
c-21 45-47 76-79 93
-32 17-70 26-113 26
z
m59-115
c16 0 31-3 46-9
c15-6 29-13 41-23
c12-10 21-21 28-34
c7-12 11-25 11-38
v-92
l-63 1
c-29 1-56 4-81 11
-26 7-46 17-62 32
-15 15-22 35-22 60
c0 29 9 51 29 68
c20 16 44 24 73 24
z
m-1430 1815
c-82 0-153-18-213-53
-60-36-106-87-139-153
-32-67-48-146-48-238
c0-92 16-172 49-239
c33-67 80-118 140-154
c60-36 130-55 211-55
c80 0 150 18 210 54
c59 36 105 88 138 155
c33 66 49 146 49 239
c0 92-16 171-49 237
-32 66-77 118-137 154
-60 35-130 53-211 53
z
m0-144
c42 0 79-10 110-30
c31-20 55-52 72-96
c16-44 25-101 25-172
c0-72-9-131-26-175
-17-45-41-78-72-99
-31-21-67-32-109-32
-42 0-79 11-110 32
-31 21-55 54-73 99
-17 45-25 103-25 175
c0 71 8 128 25 172
c18 44 42 76 73 96
c31 20 68 30 110 30
z
m513 325
v-813
h176
l1 89
c9-15 20-28 33-40
c14-13 29-23 45-33
c17-9 35-16 54-21
c19-5 39-7 60-7
c46 0 87 11 123 34
c36 22 65 57 85 104
c21 47 31 107 31 179
c0 75-11 137-33 185
-22 48-53 84-92 107
-38 23-82 35-131 35
-20 0-39-3-56-8
-18-6-34-13-50-23
-14-9-28-20-40-33
-11-12-22-26-30-41
v286
h-176
z
m310-309
c38 0 70-16 95-48
c26-31 39-81 39-150
c0-60-12-107-37-140
-24-34-57-51-97-51
-45 0-79 18-101 55
-22 36-33 82-33 136
c0 35 4 67 14 97
c10 30 25 55 44 73
c20 18 46 28 76 28
z
m704 128
c-61 0-115-13-162-38
-47-26-83-63-109-110
-26-47-39-103-39-167
c0-62 12-118 36-167
c24-50 58-90 103-119
c45-29 99-43 162-43
c64 0 117 13 159 40
c43 26 76 63 98 111
c22 47 33 102 33 164
v47
h-417
c0 32 5 59 15 83
c11 23 26 41 45 54
c20 12 44 18 72 18
c30 0 56-6 79-19
c22-13 38-34 47-63
h158
c-7 44-25 82-53 113
-28 31-62 55-102 71
-40 17-81 25-125 25
z
m-136-386
h253
c0-25-5-48-15-69
-9-21-23-37-42-49
-18-12-41-18-69-18
-27 0-50 7-69 20
-19 13-34 29-44 50
-10 21-15 43-14 66
z
m543 374
v-620
h172
v87
c10-15 22-30 37-44
c16-14 35-26 59-35
c24-9 52-14 84-14
c38 0 73 8 106 22
c33 15 60 39 81 71
c20 31 30 73 30 124
v409
h-175
v-388
c0-33-10-58-30-75
-20-17-44-25-73-25
-19 0-38 3-56 10
-18 7-32 17-43 30
-11 14-17 31-17 51
v397
h-175
z
m21691 37
c-81 0-151-19-209-56
-59-38-105-91-137-159
-31-68-47-147-47-238
c0-91 16-169 47-235
c32-65 77-116 136-151
c59-35 129-53 210-53
c65 0 123 14 174 40
c51 26 92 62 124 107
c31 45 50 96 55 153
h-183
c-6-30-16-57-31-80
-15-24-34-42-58-55
-24-14-53-21-86-21
-41 0-76 10-105 30
-29 19-51 51-67 95
-16 43-23 101-23 172
c0 108 17 187 51 235
c35 48 83 72 144 72
c33 0 62-8 86-23
c24-15 43-36 58-61
c15-26 25-54 31-84
h183
c-5 41-15 81-30 118
-14 37-35 71-63 100
-27 29-62 52-105 69
-42 17-94 25-155 25
z
m684-1
c-46 0-82-6-109-16
-27-11-46-25-59-43
-13-18-21-38-25-59
-3-22-5-45-5-67
v-718
h171
v696
c0 23 5 42 15 56
c10 14 28 23 55 26
l30 2
v108
c-12 4-24 7-37 10
-12 3-24 5-36 5
z
m431 1
c-61 0-114-13-159-39
-45-26-80-63-104-110
-25-48-37-104-37-170
c0-65 12-122 37-171
c24-48 59-86 104-114
c45-27 98-40 160-40
c61 0 114 13 159 40
c44 26 79 64 103 113
c25 48 37 106 37 172
c0 63-12 118-36 166
-24 48-58 85-103 112
-44 27-98 41-161 41
z
m1-130
c30 0 55-9 74-27
c19-18 32-42 41-71
c8-30 12-62 12-97
c0-32-3-63-11-93
-8-29-21-52-40-70
-18-18-44-27-76-27
-31 0-56 8-75 25
-19 17-33 40-42 69
-9 29-13 61-13 96
c0 33 4 64 12 94
c8 30 21 54 40 73
c19 18 45 28 78 28
z
m667 130
c-43 0-85-7-125-21
-39-14-73-37-101-67
-28-31-45-71-52-120
h151
c5 22 15 40 29 53
c14 12 29 22 47 27
c18 5 34 8 50 8
c34 0 61-5 81-16
c21-10 32-27 32-49
c0-17-7-30-19-40
-12-10-32-18-60-23
l-109-23
c-55-11-99-31-133-58
-33-28-50-68-50-119
-1-37 9-71 28-100
c21-30 50-53 89-71
c39-17 87-25 143-25
c77 0 138 16 183 50
c46 34 70 81 70 142
h-146
c-4-24-16-42-36-55
-19-13-44-20-73-20
-30 0-55 6-75 16
-19 11-29 28-29 50
c0 16 8 29 24 39
c16 9 41 17 74 24
l101 22
c35 9 63 20 85 35
c22 15 39 30 51 48
c12 17 20 34 24 52
c5 17 8 33 8 47
c0 41-11 76-33 105
-22 29-53 51-92 66
-39 15-85 23-137 23
z
m668 0
c-61 0-116-13-162-38
-47-26-83-63-109-110
-26-47-39-103-39-167
c0-62 12-118 35-167
c24-50 59-90 104-119
c44-29 99-43 162-43
c63 0 116 13 159 40
c43 26 75 63 97 111
c22 47 33 102 33 164
v47
h-417
c0 32 6 59 16 83
c10 23 25 41 45 54
c20 12 44 18 72 18
c30 0 56-6 79-19
c22-13 38-34 47-63
h158
c-7 44-25 82-53 113
-28 31-62 55-102 71
-40 17-82 25-125 25
z
m-137-386
h254
c0-25-5-48-15-69
-9-21-23-37-42-49
-18-12-41-18-69-18
-27 0-50 7-69 20
-19 13-34 29-44 50
-10 21-15 43-15 66
z
m778 386
c-83 0-148-29-194-86
-47-57-70-137-70-240
c0-65 10-121 28-168
c19-48 47-85 84-111
c37-26 82-39 135-39
c22 0 43 2 62 7
c20 5 38 12 54 21
c16 9 30 19 42 30
c12 12 21 24 29 38
v-356
h176
v892
h-127
l-20-127
c-6 17-14 34-24 50
-10 17-22 32-38 45
-16 13-35 24-58 32
-22 8-48 12-79 12
z
m39-126
c44 0 76-15 98-46
c22-31 33-83 33-156
c0-43-5-78-15-106
-10-28-24-49-43-62
-19-14-43-21-72-21
-38 0-70 14-95 44
-25 28-38 77-38 145
c0 69 12 120 36 153
c23 33 55 49 96 49
z
m-2078-1586
c3-35 11-80 24-133
c13-54 31-114 55-179
c25-66 56-134 94-204
c37-70 82-140 134-208
h-465
v-144
h648
v144
c-28 34-55 75-83 122
-28 46-55 96-80 150
-25 53-48 107-69 161
-20 54-36 107-49 157
-12 50-19 94-20 134
h-189
z
m612 193
v-813
h176
v89
c9-15 21-28 34-40
c13-13 28-23 45-33
c16-9 34-16 53-21
c19-5 40-7 61-7
c46 0 87 11 123 34
c36 22 64 57 84 104
c21 47 32 107 32 179
c0 75-12 137-34 185
-22 48-52 84-91 107
-39 23-83 35-132 35
-20 0-38-3-56-8
-18-6-34-13-49-23
-15-9-28-20-40-33
-12-12-22-26-31-41
v286
h-175
z
m309-309
c38 0 70-16 96-48
c26-31 39-81 39-150
c0-60-13-107-37-140
-25-34-57-51-98-51
-45 0-79 18-101 55
-22 36-33 82-33 136
c0 35 5 67 14 97
c10 30 25 55 45 73
c20 18 45 28 75 28
z" />
    <path
      transform="scale(.01)"
      d="
m2491 2675
v-758
h-181
v-116
c58 0 105-5 140-16
c36-11 63-27 81-47
c17-21 28-46 31-75
h136
v1012
h-207
z
m437 0
v-153
c0-51 9-95 29-133
c19-37 44-70 75-98
c32-28 66-52 104-73
c38-21 75-41 113-60
c38-18 73-37 104-56
c32-19 57-40 76-63
c19-24 29-51 29-83
c0-40-14-74-43-99
-28-26-66-39-115-39
-51 0-94 15-130 44
-35 30-57 74-66 133
h-195
c1-64 16-122 45-175
c29-52 73-94 131-125
c59-31 132-46 220-46
c76 0 141 13 196 38
c55 26 97 62 127 107
c30 46 45 100 45 161
c0 51-10 94-28 131
-19 37-44 69-74 95
-31 26-65 49-102 68
-37 20-74 38-111 55
-36 17-70 34-100 52
-31 17-56 37-75 59
-18 22-28 48-28 79
v9
h516
v172
h-743
z
m897 225
v-949
h205
l1 105
c11-18 24-33 39-47
c16-15 33-27 53-38
c19-11 39-19 62-25
c22-6 46-9 71-9
c53 0 101 14 143 40
c42 26 75 67 99 122
c24 55 36 124 36 209
c0 87-13 159-39 216
-26 56-61 97-106 124
-46 27-97 41-154 41
-23 0-45-3-66-10
-20-6-39-14-57-26
-17-11-33-24-47-38
-13-15-25-31-36-49
v334
h-204
z
m361-361
c45 0 82-18 112-55
c30-37 45-95 45-175
c0-70-14-125-43-164
-29-40-67-59-114-59
-53 0-92 21-118 64
-26 42-39 95-39 159
c0 41 6 78 17 113
c12 35 29 64 52 85
c23 21 53 32 88 32
z
m489 136
v-724
h201
v102
c22-31 51-59 88-81
c37-23 84-35 140-35
c25 0 50 5 76 14
c26 8 50 21 72 39
c23 17 41 38 55 63
c24-33 54-60 92-82
c38-23 81-34 128-34
c27 0 54 5 81 14
c28 8 54 23 77 43
c24 20 42 47 56 80
c15 34 22 75 22 124
v477
h-204
v-452
c0-29-6-52-18-69
-11-18-25-31-43-38
-17-8-36-12-55-12
-19 0-37 4-56 11
-18 7-34 18-47 34
-13 16-20 37-20 63
v463
h-204
v-470
c0-22-5-41-17-56
-12-15-26-26-44-33
-17-8-35-12-53-12
-19 0-38 4-56 12
-19 7-35 19-47 35
-13 16-19 36-19 61
v463
h-205
z
m1244-531
v-164
h154
v164
h-154
z
m0 527
v-163
h154
v163
h-154
z" />
    <path
      transform="scale(.01)"
      d="
m21839 2690
c-67 0-128-10-185-30
-57-21-106-49-148-84
-41-36-73-77-94-124
l159-94
c18 32 39 60 62 86
c23 25 49 45 79 60
c30 15 66 22 106 22
c60 0 109-16 146-48
c37-33 55-75 55-126
c0-33-8-62-25-88
-16-26-39-47-68-61
-29-15-63-23-101-23
-21 0-41 2-59 6
-18 3-37 10-56 19
-19 10-40 23-62 41
-7 3-12 4-14 4
-3 0-8-2-15-5
l-148-68
l46-514
h651
l-8 167
h-481
l-20 244
c38-21 73-36 107-45
c34-9 71-14 112-14
c68 0 128 13 181 38
c54 26 96 63 128 112
c31 49 46 108 46 179
c0 71-16 133-48 185
-32 52-78 91-137 119
-59 28-129 42-209 42
z
m543 210
v-949
h205
l1 105
c11-18 24-33 39-47
c16-15 34-27 53-38
c19-11 40-19 62-25
c22-6 46-9 71-9
c53 0 101 14 143 40
c42 26 75 67 99 122
c24 55 36 124 36 209
c0 87-13 159-39 216
-26 56-61 97-106 124
-45 27-97 41-154 41
-23 0-45-3-65-10
-21-6-40-14-58-26
-17-11-33-24-47-38
-13-15-25-31-35-49
v334
h-205
z
m361-361
c45 0 82-18 112-55
c30-37 45-95 45-175
c0-70-14-125-43-164
-29-40-66-59-114-59
-52 0-92 21-118 64
-26 42-38 95-38 159
c0 41 5 78 16 113
c12 35 29 64 52 85
c24 21 53 32 88 32
z
m490 136
v-724
h200
v102
c22-31 51-59 88-81
c37-23 84-35 141-35
c25 0 50 5 75 14
c26 8 50 21 72 39
c23 17 42 38 56 63
c23-33 54-60 91-82
c39-23 81-34 128-34
c27 0 54 5 82 14
c28 8 53 23 77 43
c23 20 42 47 56 80
c14 34 21 75 21 124
v477
h-204
v-452
c0-29-6-52-17-69
-12-18-26-31-44-38
-17-8-36-12-55-12
-18 0-37 4-56 11
-18 7-34 18-47 34
-13 16-20 37-20 63
v463
h-203
v-470
c0-22-6-41-18-56
-12-15-26-26-44-33
-17-8-35-12-53-12
-19 0-37 4-56 12
-19 7-34 19-47 35
-13 16-19 36-19 61
v463
h-204
z
m1243-531
v-164
h155
v164
h-155
z
m0 527
v-163
h155
v163
h-155
z" />
  </g>
  <g fill="#3B3A48">
    <path
      transform="scale(.01)"
      d="
m11464 21075
v-691
h-167
v-72
c52 0 92-4 121-12
c29-7 49-19 61-34
c12-16 19-35 20-59
h80
v868
h-115
z
m340 0
v-103
c0-45 8-83 24-115
c17-33 39-61 66-85
c28-24 58-46 91-65
c32-20 65-38 97-56
c33-18 63-36 90-55
c28-20 49-42 66-66
c17-25 25-54 25-88
c0-44-16-80-47-107
-31-28-73-42-125-42
-57 0-103 16-137 48
-35 32-54 75-58 128
h-111
c1-50 14-96 38-137
c23-41 58-75 103-99
c46-25 102-38 169-38
c58 0 108 11 151 32
c43 20 76 49 99 86
c24 37 36 80 36 129
c0 45-9 83-25 115
-16 32-38 60-65 84
-27 23-57 44-89 62
-32 18-64 36-96 53
-33 17-62 35-89 54
-27 18-49 39-65 63
-16 24-24 53-24 86
v18
h457
v98
h-581
z
m732 193
v-813
h111
l1 108
c7-13 16-27 27-41
c12-14 26-27 42-39
c17-12 36-21 59-29
c22-8 47-11 76-11
c49 0 93 11 131 34
c38 22 67 57 88 103
c22 46 32 105 32 176
c0 72-10 132-31 181
-21 49-50 86-89 112
-39 25-85 38-140 38
-28 0-52-4-74-12
-21-8-40-18-56-30
-15-13-29-26-40-41
-10-14-18-28-25-41
v305
h-112
z
m286-267
c51 0 93-20 125-59
c32-39 49-100 49-182
c0-71-15-127-45-169
-29-41-73-62-129-62
-58 0-101 21-131 64
-30 43-44 98-44 167
c0 44 6 85 19 121
c14 37 33 66 59 87
c26 22 58 33 97 33
z
m6057 87
c-60 0-112-11-158-33
-45-21-81-52-107-90
-26-40-40-86-42-140
h111
c9 54 31 96 66 125
c36 28 80 43 134 43
c42 0 79-7 111-20
c32-14 56-32 73-56
c17-23 26-51 26-83
c0-34-10-64-29-88
-19-24-45-42-78-54
-34-13-71-20-111-20
l-78-2
v-94
l74-2
c38-1 72-8 102-22
c30-14 54-32 71-54
c17-23 26-48 26-75
c0-24-7-46-22-67
-15-21-36-37-64-50
-28-12-61-18-101-18
-31 0-61 6-89 18
-29 12-52 31-71 56
-18 25-28 58-29 98
h-110
c0-56 13-104 40-143
c28-39 64-70 109-90
c46-21 96-32 151-32
c60 0 113 9 159 27
c46 17 82 42 108 75
c26 34 39 74 39 122
c0 43-14 82-41 117
-27 34-69 61-125 81
c38 10 71 25 100 45
c28 20 50 45 66 74
c15 29 23 62 23 100
c0 39-8 75-25 106
-17 32-40 58-70 80
-30 22-65 38-106 50
-41 11-85 17-133 16
z
m483 180
v-813
h111
l1 108
c7-13 16-27 28-41
c11-14 25-27 42-39
c16-12 36-21 58-29
c22-8 48-11 76-11
c50 0 93 11 131 34
c38 22 67 57 89 103
c21 46 31 105 31 176
c0 72-10 132-31 181
-20 49-50 86-89 112
-38 25-85 38-140 38
-28 0-52-4-74-12
-21-8-40-18-56-30
-15-13-28-26-39-41
-11-14-19-28-26-41
v305
h-112
z
m286-267
c51 0 93-20 125-59
c33-39 49-100 49-182
c0-71-15-127-44-169
-30-41-73-62-130-62
-58 0-101 21-131 64
-29 43-44 98-44 167
c0 44 6 85 20 121
c13 37 32 66 58 87
c26 22 59 33 97 33
z" />
    <path
      transform="scale(.01)"
      d="
m6622 2675
V1663
h325
c124 0 217 22 280 68
c63 45 95 110 95 196
c0 53-14 99-42 138
-28 38-76 69-146 94
c40 9 73 21 100 37
c28 15 50 34 66 56
c17 21 29 44 36 70
c7 25 11 52 11 81
c0 91-32 160-98 205
-65 45-162 67-291 67
h-336
z
m129-108
h206
c84 0 148-14 192-41
c44-28 67-71 67-129
c0-42-11-77-33-103
-22-26-51-46-88-58
-37-12-78-18-123-18
h-221
v349
z
m0-459
h221
c27 0 53-3 79-8
c26-5 50-14 72-26
c22-13 40-30 53-51
c14-21 21-48 21-80
c0-59-23-102-68-130
-45-29-103-43-175-43
h-203
v338
z
m1050 581
c-38 0-74-6-107-16
-34-11-63-26-89-47
-25-21-46-46-61-76
-14-31-21-67-21-107
v-492
h129
v478
c0 47 15 86 44 115
c29 30 73 44 132 44
c53 0 96-14 128-41
c33-28 49-70 49-125
v-471
h129
v724
h-103
l-13-139
c-9 37-24 66-46 89
-21 22-46 39-76 49
-30 11-61 15-95 15
z
m806 0
c-50 0-97-8-141-23
-42-16-78-40-107-74
-28-33-46-76-53-128
h118
c6 29 17 53 35 72
c17 18 38 33 63 42
c26 10 54 14 84 14
c49 0 89-9 119-27
c30-18 45-46 45-84
c0-26-8-48-24-64
-16-16-40-28-73-35
l-150-37
c-58-14-105-36-140-66
-34-30-52-72-52-125
c0-43 10-80 30-113
c21-32 52-57 92-76
c41-18 92-28 153-28
c79 0 143 18 191 53
c48 35 73 87 75 155
h-114
c-5-34-20-62-47-82
-26-20-61-31-106-31
-46 0-83 10-113 28
-29 19-43 47-43 86
c0 25 10 46 31 61
c21 14 51 26 91 36
l145 37
c33 8 61 20 83 35
c22 14 39 30 52 48
c12 18 21 36 26 56
c6 19 9 37 9 55
c0 44-11 83-33 115
-22 32-54 56-95 74
-42 17-92 26-151 26
z
m517 217
c-42 0-71-3-87-9
-16-6-24-9-24-9
v-84
l74 1
c27 1 49-1 67-5
c17-5 32-11 42-19
c11-8 19-17 25-27
c6-10 11-19 15-28
l25-68
-283-707
h131
l213 559
l213-559
h126
l-304 779
c-19 45-41 81-64 107
-23 25-49 43-77 54
-28 10-59 15-92 15
z
M2574 5075
l-292-1012
h131
l224 806
l228-806
h102
l227 806
l229-806
h130
l-296 1012
h-119
l-222-785
-226 785
h-116
z
m1259 14
c-47 0-89-8-125-24
-35-17-63-41-84-73
-20-31-30-69-30-113
c0-80 28-140 84-179
c56-39 146-60 270-63
l129-4
v-56
c0-45-14-80-40-105
-27-27-68-40-124-40
-41 1-78 11-109 30
-32 19-52 50-61 94
h-114
c2-48 15-87 39-119
c24-33 57-58 100-75
c43-16 93-25 152-25
c63 0 115 9 157 27
c42 18 73 44 93 78
c21 35 32 77 32 128
v505
h-111
l-10-136
c-27 57-63 96-106 118
-43 21-90 32-142 32
z
m38-93
c25 0 49-5 73-13
c25-9 46-21 66-36
c20-15 36-33 48-51
c12-19 19-39 19-59
v-124
l-108 2
c-55 1-101 7-138 17
-37 10-65 26-83 48
-19 22-28 51-28 86
c0 41 14 73 42 96
c29 22 65 34 109 34
z
m536 79
v-724
h126
v724
h-126
z
m-3-877
v-134
h132
v134
h-132
z
m611 881
c-50 0-89-7-116-21
-28-13-47-33-58-60
-11-27-16-59-16-98
v-454
h-118
v-95
h121
l32-210
h95
v210
h163
v95
h-163
v450
c0 25 2 44 7 57
c6 11 15 19 28 22
c12 3 30 5 53 5
h79
v87
c-9 3-22 6-41 8
-17 2-39 4-66 4
z
m249-535
v-164
h154
v164
h-154
z
m0 527
v-163
h154
v163
h-154
z
m1073 18
c-88 0-159-14-214-43
-54-29-94-72-119-128
-25-56-37-125-37-206
v-649
h135
v668
c0 82 20 143 60 184
c41 40 99 61 175 61
c51 0 94-9 129-27
c36-18 63-45 82-80
c19-37 29-83 29-138
v-668
h130
v662
c0 78-13 144-38 198
-26 54-66 96-121 124
-54 28-124 42-211 42
z
m584 211
v-949
h129
l1 126
c8-15 19-30 32-47
c14-16 30-31 49-45
c20-14 42-26 68-34
c26-9 56-14 89-14
c58 0 109 14 153 40
c44 26 78 66 103 121
c25 54 37 122 37 205
c0 83-12 154-36 211
-24 57-58 100-104 130
-45 30-100 45-164 45
-32 0-60-5-86-14
-24-9-46-21-65-35
-18-15-33-31-46-48
-12-16-22-32-30-48
v356
h-130
z
m333-312
c60 0 108-22 146-68
c38-45 57-116 57-212
c0-83-17-149-52-197
-34-49-85-73-151-73
-67 0-118 25-153 75
-34 49-51 114-51 195
c0 51 7 98 23 141
c15 42 38 76 68 101
c31 26 68 38 113 38
z
m1097 91
c-50 0-89-7-116-21
-28-13-47-33-58-60
-11-27-16-59-16-98
v-454
h-118
v-95
h121
l32-210
h95
v210
h163
v95
h-163
v450
c0 25 2 44 7 57
c6 11 15 19 28 22
c12 3 30 5 53 5
h79
v87
c-9 3-22 6-41 8
-17 2-39 4-66 4
z
m549 10
c-66 0-125-14-175-43
-49-29-88-71-115-126
-28-56-41-124-41-204
c0-76 12-142 38-199
c26-57 63-101 113-132
c49-32 110-48 181-48
c67 0 125 15 174 44
c49 29 87 72 114 128
c27 57 41 126 41 207
c0 74-12 139-38 194
-25 57-62 100-111 132
-49 31-109 47-181 47
z
m1-102
c43 0 79-11 109-33
c30-22 53-54 68-95
c16-41 24-89 24-146
c0-52-7-98-21-139
-14-42-35-75-64-99
-30-24-68-36-116-36
-44 0-81 11-111 33
-31 21-54 52-69 93
-16 41-24 91-24 148
c0 51 7 97 21 139
c14 41 36 74 66 98
c30 25 69 37 117 37
z
m985 88
v-806
h-195
v-84
c61 0 108-5 141-14
c34-9 58-22 72-40
c14-18 22-41 24-68
h92
v1012
h-134
z
m758 0
V4035
h126
v423
c12-20 28-39 49-56
c20-18 45-32 74-43
c30-11 64-17 103-17
c47 0 90 9 128 27
c38 17 68 42 91 74
c22 32 33 70 33 115
v517
h-129
v-491
c0-44-15-77-45-100
-29-24-68-36-115-36
-33 0-63 5-91 16
-29 10-52 26-70 48
-17 21-26 47-26 80
v483
h-128
z
m1096 14
c-67 0-125-14-175-43
-49-29-88-71-115-126
-28-56-42-124-42-204
c0-76 13-142 39-199
c25-57 63-101 113-132
c49-32 109-48 181-48
c67 0 124 15 173 44
c49 29 87 72 114 128
c28 57 42 126 42 207
c0 74-13 139-38 194
-25 57-62 100-111 132
-49 31-109 47-181 47
z
m1-102
c43 0 79-11 109-33
c30-22 53-54 68-95
c16-41 24-89 24-146
c0-52-7-98-21-139
-14-42-35-75-65-99
-29-24-68-36-115-36
-44 0-81 11-111 33
-31 21-54 52-70 93
-15 41-23 91-23 148
c0 51 7 97 20 139
c14 41 36 74 66 98
c30 25 70 37 118 37
z
m764 102
c-38 0-73-6-107-16
-33-11-62-26-88-47
-26-21-46-46-61-76
-14-31-22-67-22-107
v-492
h130
v478
c0 47 14 86 43 115
c30 30 74 44 132 44
c54 0 96-14 129-41
c32-28 49-70 49-125
v-471
h128
v724
h-103
l-13-139
c-9 37-24 66-45 89
-21 22-47 39-77 49
-29 11-61 15-95 15
z
m556-14
v-724
h123
v140
c12-35 29-63 51-86
c22-23 47-40 75-51
c29-11 58-17 88-17
c11 0 21 1 32 2
c10 2 18 4 24 7
v126
c-7-4-17-6-28-7
-10-1-20-2-27-2
-29-2-56 0-81 6
-25 5-48 14-67 27
-19 13-34 30-45 52
-11 21-16 47-16 77
v450
h-129
z" />
    <path
      transform="scale(.01)"
      d="
m25179 2675
l1-1012
h132
v896
h478
v116
h-611
z
m1060 14
c-67 0-126-15-178-44
-51-29-91-72-120-127
-29-55-43-121-43-198
c0-76 13-143 39-200
c26-57 64-102 113-134
c50-33 110-49 180-49
c68 0 126 15 173 44
c47 30 83 71 107 125
c25 53 37 116 37 190
v47
h-518
c0 46 7 87 22 125
c15 37 38 66 69 88
c31 22 70 33 117 33
c46 0 86-11 119-32
c34-22 55-53 65-93
h121
c-8 49-28 90-58 124
-31 33-67 59-110 76
-43 17-88 25-135 25
z
m-210-433
h394
c0-42-7-79-21-112
-14-34-36-60-65-79
-28-20-64-30-108-30
-45 0-83 11-112 33
-30 22-52 49-67 83
-14 34-21 69-21 105
z
m952 433
c-50 0-97-8-140-23
-43-16-79-40-108-74
-28-33-46-76-53-128
h118
c6 29 18 53 35 72
c17 18 38 33 63 42
c26 10 54 14 85 14
c49 0 88-9 118-27
c30-18 45-46 45-84
c0-26-8-48-24-64
-16-16-40-28-73-35
l-150-37
c-58-14-105-36-140-66
-34-30-52-72-52-125
c0-43 10-80 31-113
c20-32 51-57 91-76
c41-18 92-28 154-28
c78 0 142 18 190 53
c48 35 73 87 75 155
h-114
c-5-34-20-62-46-82
-27-20-62-31-107-31
-46 0-83 10-113 28
-29 19-43 47-43 86
c0 25 10 46 31 61
c21 14 51 26 91 36
l145 37
c34 8 61 20 83 35
c22 14 39 30 52 48
c12 18 21 36 26 56
c6 19 9 37 9 55
c0 44-11 83-33 115
-22 32-54 56-95 74
-42 17-92 26-151 26
z
m706 0
c-51 0-98-8-141-23
-43-16-79-40-107-74
-29-33-46-76-53-128
h117
c6 29 18 53 35 72
c18 18 39 33 64 42
c26 10 54 14 84 14
c49 0 88-9 118-27
c30-18 45-46 45-84
c0-26-8-48-24-64
-15-16-39-28-73-35
l-149-37
c-59-14-105-36-140-66
-35-30-52-72-53-125
c0-43 10-80 31-113
c21-32 51-57 92-76
c41-18 92-28 153-28
c79 0 142 18 190 53
c48 35 74 87 76 155
h-115
c-4-34-20-62-46-82
-26-20-62-31-106-31
-46 0-84 10-113 28
-29 19-44 47-44 86
c0 25 11 46 31 61
c21 14 52 26 91 36
l146 37
c33 8 61 20 82 35
c22 14 40 30 52 48
c13 18 22 36 27 56
c5 19 8 37 8 55
c0 44-11 83-33 115
-22 32-53 56-95 74
-41 17-92 26-150 26
z
m1140 0
c-42 0-78-6-108-17
-29-11-52-25-71-42
-19-18-33-36-43-54
-11-19-18-35-23-49
l-14 148
h-99
V1635
h131
v431
c6-12 15-25 27-40
c13-14 29-28 48-42
c20-13 43-25 70-33
c27-9 57-14 92-14
c90 0 162 32 216 95
c53 63 80 156 80 278
c0 76-11 143-34 200
-23 56-57 100-103 132
-45 31-101 47-169 47
z
m-23-99
c59 0 107-23 144-68
c36-46 55-119 55-218
c0-84-17-150-52-196
-34-47-84-70-150-70
-48 0-87 11-116 32
-29 20-50 50-64 90
-14 39-21 88-21 144
c0 101 15 174 46 219
c32 44 85 67 158 67
z
m764 99
c-38 0-73-6-107-16
-33-11-63-26-88-47
-26-21-46-46-61-76
-15-31-22-67-22-107
v-492
h130
v478
c0 47 14 86 43 115
c29 30 74 44 132 44
c54 0 96-14 128-41
c33-28 49-70 49-125
v-471
h129
v724
h-103
l-13-139
c-9 37-24 66-45 89
-21 22-47 39-77 49
-29 11-61 15-95 15
z
m807 0
c-51 0-98-8-141-23
-43-16-79-40-107-74
-29-33-46-76-53-128
h117
c6 29 18 53 35 72
c17 18 39 33 64 42
c26 10 54 14 84 14
c49 0 88-9 118-27
c30-18 45-46 45-84
c0-26-8-48-24-64
-15-16-39-28-73-35
l-149-37
c-59-14-105-36-140-66
-35-30-52-72-53-125
c0-43 10-80 31-113
c20-32 51-57 92-76
c41-18 92-28 153-28
c79 0 142 18 190 53
c48 35 74 87 76 155
h-115
c-5-34-20-62-46-82
-26-20-62-31-107-31
-45 0-83 10-112 28
-29 19-44 47-44 86
c0 25 11 46 31 61
c21 14 52 26 91 36
l146 37
c33 8 60 20 82 35
c22 14 40 30 52 48
c13 18 22 36 27 56
c5 19 8 37 8 55
c0 44-11 83-33 115
-22 32-53 56-95 74
-41 17-92 26-150 26
z
m517 217
c-43 0-72-3-88-9
-16-6-24-9-24-9
v-84
l75 1
c26 1 48-1 66-5
c18-5 32-11 43-19
c11-8 19-17 24-27
c6-10 11-19 15-28
l25-68
-283-707
h131
l214 559
l212-559
h127
l-305 779
c-19 45-40 81-64 107
-22 25-48 43-77 54
-28 10-58 15-91 15
z
m-9218 2169
l-292-1012
h131
l224 806
l228-806
h102
l227 806
l229-806
h130
l-296 1012
h-119
l-222-785
-226 785
h-116
z
m1259 14
c-47 0-89-8-125-24
-35-17-63-41-84-73
-20-31-30-69-30-113
c0-80 28-140 84-179
c56-39 146-60 270-63
l129-4
v-56
c0-45-14-80-40-105
-27-27-68-40-123-40
-42 1-79 11-110 30
-32 19-53 50-61 94
h-114
c2-48 15-87 39-119
c24-33 57-58 100-75
c43-16 93-25 152-25
c63 0 115 9 157 27
c42 18 73 44 93 78
c21 35 32 77 32 128
v505
h-111
l-9-136
c-28 57-63 96-107 118
-43 21-90 32-142 32
z
m39-93
c24 0 49-5 72-13
c25-9 47-21 66-36
c20-15 36-33 48-51
c13-19 19-39 19-59
v-124
l-108 2
c-55 1-101 7-138 17
-37 10-65 26-83 48
-19 22-28 51-28 86
c0 41 14 73 42 96
c29 22 65 34 110 34
z
m535 79
v-724
h126
v724
h-126
z
m-3-877
v-134
h132
v134
h-132
z
m611 881
c-50 0-89-7-116-21
-28-13-47-33-58-60
-11-27-16-59-16-98
v-454
h-118
v-95
h121
l32-210
h95
v210
h163
v95
h-163
v450
c0 25 2 44 8 57
c5 11 14 19 27 22
c12 3 30 5 53 5
h79
v87
c-9 3-22 6-40 8
-18 2-40 4-67 4
z
m249-535
v-164
h154
v164
h-154
z
m0 527
v-163
h154
v163
h-154
z
m703 4
V4063
h124
l535 787
v-787
h129
v1012
h-115
l-543-798
v798
h-130
z
m1309 14
c-66 0-125-14-175-43
-49-29-88-71-115-126
-28-56-42-124-42-204
c0-76 13-142 39-199
c26-57 63-101 113-132
c49-32 110-48 181-48
c67 0 124 15 174 44
c49 29 87 72 114 128
c27 57 41 126 41 207
c0 74-13 139-38 194
-25 57-62 100-111 132
-49 31-109 47-181 47
z
m1-102
c43 0 79-11 109-33
c30-22 53-54 68-95
c16-41 24-89 24-146
c0-52-7-98-21-139
-14-42-35-75-65-99
-29-24-67-36-115-36
-44 0-81 11-111 33
-31 21-54 52-70 93
-15 41-23 91-23 148
c0 51 7 97 21 139
c14 41 35 74 65 98
c31 25 70 37 118 37
z
m501 88
v-724
h125
v105
c12-20 28-39 49-56
c21-18 46-32 75-43
c30-11 64-16 103-16
c46 0 88 9 126 27
c39 18 70 47 93 85
c23 39 35 88 35 149
v473
h-130
v-461
c0-56-15-98-45-125
-29-27-67-41-115-41
-32 0-63 5-91 16
-29 10-52 26-70 48
-17 21-26 47-26 79
v484
h-129
z
m1114 14
c-67 0-127-15-178-44
-51-29-91-72-120-127
-29-55-44-121-44-198
c0-76 13-143 40-200
c26-57 63-102 113-135
c50-32 110-48 180-48
c68 0 126 15 173 44
c47 30 83 71 107 125
c25 53 37 116 37 190
v47
h-519
c0 46 8 87 23 125
c15 37 38 66 69 88
c31 22 70 33 117 33
c46 0 86-11 119-32
c33-22 55-53 64-93
h122
c-8 49-28 90-59 124
-30 33-67 59-110 76
-42 17-87 25-134 25
z
m-210-433
h393
c0-42-7-79-21-112
-14-34-35-60-64-79
-29-20-64-30-108-30
-45 0-83 11-113 33
-29 22-52 49-66 83
-15 34-22 69-21 105
z" />
  </g>
  <g fill="#82B5CC">
    <rect x="65.5" y="147.75" width="14" height="39" rx="4" />
    <rect x="89.5" y="128.75" width="14" height="58" rx="4" />
    <rect x="41.5" y="162.75" width="14" height="24" rx="4" />
    <rect x="113.5" y="115.75" width="14" height="71" rx="4" />
    <rect x="161.5" y="115.75" width="14" height="71" rx="4" />
    <rect x="137.5" y="115.75" width="14" height="71" rx="4" />
    <rect x="185.5" y="123.75" width="14" height="63" rx="4" />
    <rect x="209.5" y="142.75" width="14" height="44" rx="4" />
  </g>
  <g fill="#D4D4D7">
    <rect x="233.5" y="157.75" width="14" height="30" rx="4" />
    <rect x="257.5" y="157.75" width="14" height="30" rx="4" />
  </g>
  <g stroke="#D4D4D7">
    <path
      transform="scale(.01)"
      d="
m12100 7275
v3800
m11950-3800
v8000" />
    <rect x="12" y="1.25" width="134" height="66" rx="3.5" />
    <rect x="203" y="1.25" width="134" height="66" rx="3.5" />
  </g>
  <g stroke="#3B3A48">
    <line x1="25" y1="191.75" x2="25" y2="194.75" />
    <line x1="49" y1="191.75" x2="49" y2="194.75" />
    <line x1="121" y1="191.75" x2="121" y2="194.75" />
    <line x1="193" y1="191.75" x2="193" y2="194.75" />
    <line x1="265" y1="191.75" x2="265" y2="194.75" />
    <line x1="337" y1="191.75" x2="337" y2="194.75" />
    <path
      transform="scale(.01)"
      d="
m50 19175
h36300" />
  </g>
  <g stroke="#046B99">
    <line x1="49" y1="187.75" x2="49" y2="195.75" />
    <line x1="289.5" y1="188" x2="289.5" y2="196" />
  </g>
</svg>
