<svg version="1.1" xmlns="http://www.w3.org/2000/svg" viewBox="0 0 326 167" fill="#69A6C2"><path transform="scale(.1)" d="
m3260 1510
c-7 0-629 1-752 5
c1-21 2-41 2-61
c2-51 3-98 11-136
c6-37 21-156-8-192
c32-24 15-72 4-105
-1-4-3-8-4-12
-6-15-8-31-9-47
c3-3 5-6 8-10
c25-29 56-65 56-100
-3-41-12-81-21-120
-7-28-13-57-17-86
-12-86-37-103-98-144
l-1-1
c10-11 19-28 25-51
v-2
c0-22-8-40-24-54
-40-34-117-26-141-23
h-5
c-1-4-2-9-2-15
v-23
c0-11 1-23-1-34
-3-29-20-55-46-73
-29-19-66-25-98-16
-6 2-12 5-17 7
-7 3-13 7-19 7
h-9
c-13 1-26 1-40 12
-12 10-21 21-27 32
-7-48-36-93-88-105
l-5-1
c-36-9-77-19-106 21
-3 4-10 4-18 4
-7 0-15 0-21 3
-4 2-8 3-12 5
-3 1-5 2-8 3
-1-6-2-13-3-19
-10-47-42-98-100-103
-7-1-13-1-19 0
-3 0-6 1-9 1
-26-10-63-17-94 4
-44 33-80 94-73 157
-4 1-8 4-10 11
v1
c-3 20-7 66 22 86
-1 34-6 44-9 47
-3 2-11-1-19-4
-16-6-38-15-63-1
-3 2-4 5-3 8
c1 3 4 5 7 5
c38-2 80 14 113 46
c50 52 81 40 117 25
c15-6 32-13 52-16
-6 7-13 16-19 24
-1-4-3-8-7-10
-4-2-10-4-19 2
-1 1-2 2-3 4
-5 13-13 24-23 35
-6 7-13 15-18 24
-8 16-8 34-7 50
v12
c-15 105-128 168-196 198
-41-31-71-81-100-130
-9-15-18-30-27-44
-13-30-39-45-70-41
-70 1-140 12-207 32
l-6 2
c-33 9-70 20-100 6
-9-4-15-13-23-22
-7-8-13-17-23-23
-5-3-10-8-13-15
c11-19 25-37 43-54
c8-7 17-12 27-16
c16 16 33 31 64 21
c45-13 89-34 132-53
c86-40 167-77 262-63
h3
c7 1 15 2 23 1
c3 0 6-2 8-6
c7-13-10-56-10-57
-21-44-69-76-118-79
h-8
c-4 0-4 0-8-3
l-2-1
c-26-17-56-19-83-7
-34 15-60 50-65 89
-4 11-6 22-8 33
-3 14-6 28-11 40
-20 42-63 48-108 54
-21 3-43 6-63 12
-3-3-6-5-9-8
-13-13-24-10-32-8
-7 2-12 3-21-1
-1-1-3-1-5 0
-11 3-15 10-17 15
-2 3-2 5-4 6
-9 1-28 5-33 23
-1 4-3 8-4 12
-3 6-5 12-6 20
v2
c-4 22-5 44 6 53
c4 3 10 6 20 2
c1 0 2-1 3-2
-25 67-21 144-18 219
c2 41 4 80 1 117
v2
c13 78-10 150-28 208
-17 54-31 97-10 126
c2 3 5 7 9 10
-5 7-8 17-10 30
-18 57-24 119-19 182
c1 11 2 22 4 33
-63 0-182 1-307 2
-176 5-356 6-409 6
-4 0-7 3-7 7
s3 7 7 7
c53 0 233-1 407-2
c126-1 248-2 309-2
h1
c2 7 5 15 10 22
c12 21 37 39 65 35
c2 0 4-2 5-4
c11-21-3-46-22-57
-14-8-31-10-47-10
-3-12-4-24-5-35
-5-61 1-121 19-177
c2-11 5-20 8-25
c19 11 48 16 87 17
c3 0 6 0 9 1
c13 1 30 3 40-4
c6-5 8-13 5-19
-4-8-14-11-22-9
-23 4-45-1-65-6
-22-5-41-10-56 0
h-1
c-3-2-5-5-7-7
-17-23-4-63 12-113
c19-59 42-132 29-214
c2-38 0-78-1-117
-4-80-8-162 24-230
c4 5 9 10 13 13
c7 4 13 12 19 20
c8 10 16 21 28 26
c35 16 76 4 110-6
l6-2
c66-19 135-30 204-31
c26-3 45 9 56 33
c0 0 0 1 1 1
c9 14 18 28 27 44
c30 51 62 103 107 136
c2 2 5 2 7 1
c71-30 192-97 209-211
v-14
c0-16 0-30 6-43
c5-8 10-15 17-22
c9-11 19-22 25-37
c1 0 1 0 1-1
c1 2 2 8 0 17
-13 19-23 36-25 41
-1 3 0 5 2 7
s5 3 7 2
c16-5 26-28 29-45
c13-18 28-38 40-50
h16
c-1 3-2 6-4 9
-4 5-8 9-12 13
-6 6-10 13-14 20
-1 1-2 3-2 4
-5 6-9 11-12 15
-2 3-1 7 2 9
c3 2 7 2 9 0
c5-5 9-10 12-15
c1-1 2-2 3-3
c9-11 19-22 26-34
c1-1 1-1 2-2
c3-4 7-9 10-12
c5 1 10 2 16 3
v1
c-1 1-2 3-3 4
-13 18-26 38-40 60
-2 3-1 8 2 10
c3 2 8 1 10-2
c2-3 5-7 9-12
c14-18 27-35 33-50
c1 1 1 1 2 2
c2 6 0 20-22 55
-7 8-13 18-15 24
-1 3 0 7 3 9
c3 2 7 1 9-2
l3-4
c4-6 8-12 12-18
c3-3 6-6 8-8
c0 3-1 8-4 17
-2 4-5 8-8 12
-2 3-4 6-6 9
-4 6-6 13-8 20
-2 6-3 11-6 16
-12 19-30 33-48 47
l-6 5
c-12 11-14 20-17 31
-1 3-1 6-2 9
-1 4-4 6-9 9
-4 3-9 6-14 11
l-1 2
c-31 41-75 102-126 150
-66-8-125-38-172-90
-5-4-14-12-25-10
-6 1-11 5-14 11
-4 7-4 16-1 23
c4 9 12 15 20 21
c8 6 16 12 17 21
h-1
c-28 11-53 2-79-7
-15-5-29-11-45-13
c1-44-3-89-15-132
-8-20-19-24-27-24
-13-1-26 11-35 30
-16 35-17 88 18 129
c12 16 27 29 42 41
-2 30-5 59-8 88
-4 41-9 84-10 126
c12 108 3 170-28 199
-1-1-3-2-5-2
-24 0-48 2-72 4
-49 4-99 7-145-2
-4-1-8 2-9 5
-1 4 1 8 5 9
c99 24 171 35 217 10
c12 55 32 169 7 241
h-32
c-30-1-38 13-41 19
-4 11 1 24 12 32
c11 8 29 11 49-4
c0 0 1-1 1-1
c8-9 15-20 20-32
c6 0 12 0 18 1
c11 0 22 1 34 1
h2
c2 8 4 16 7 25
c1 2 3 4 5 4
c13 4 20-2 22-5
c5-6 5-14 1-22
-4-7-11-13-23-15
-9-50-2-104 5-156
c1-5 1-10 2-15
c64 27 137 22 208 16
c19-2 38-3 56-4
c17-1 34 0 52 0
c52 1 106 1 154-16
c0 8 1 17 4 26
c1 7 3 16 5 24
c9 40 20 92 10 128
-9 0-18 2-26 7
-13 7-15 19-12 27
c4 8 14 14 28 9
c1 0 2-1 2-1
c8-7 14-17 18-27
h16
c7 1 18 0 29 0
c14-1 33-2 46 1
c1 7 3 13 8 17
c3 3 9 7 19 6
c3-1 6-3 6-7
c0-8-2-15-7-20
-3-3-7-5-11-7
v-2
c4-20 3-52 1-89
-3-65-6-145 23-175
c16 4 34 4 50 2
c9 0 14-5 14-11
c1-8-6-15-14-16
-22-5-39-2-53 8
-18-5-35-16-39-39
c0-18 4-35 7-53
c3-17 7-35 7-51
c9-55 5-111 1-165
v-2
c27-20 49-50 44-89
v-6
c0-12 0-26-12-38
-9-7-17-5-22-3
-22 11-28 68-28 79
c1 17 2 34 3 50
-4 2-8 4-11 6
c0 0-1 0-1 1
-82 62-185 40-286 19
-16-3-32-7-47-10
-46-14-92-15-141-2
-22-1-50-17-64-36
h2
c3 0 6-2 7-5
c1-3 0-6-3-8
-7-5-14-7-22-9
-5-1-9-3-13-5
-6-3-10-8-12-13
v-1
c3 0 5 1 8 1
c15 9 30 17 45 26
c14 8 29 16 43 24
c14 8 31 17 50 18
c50-4 100-36 145-78
c41 4 84 0 129-12
c30-5 59-15 85-32
l95-57
c20-12 36-22 50-30
c23-14 37-23 48-29
c18 2 37 3 55 5
h1
c9-1 15 4 23 12
c5 5 10 9 17 12
c1 0 2 1 2 1
c17 2 29 6 38 15
c45 34 86 64 131 90
c4 2 7 5 11 7
c9 6 19 13 30 17
-1 7-2 15-3 22
-9 34-10 69-9 105
-1 33-1 67 2 100
c1 28 3 60 12 90
c1 2 1 4 2 7
c3 11 7 22 5 31
-6 18-18 30-33 37
-26-15-65-10-131-2
-14 2-30 3-46 5
-4 0-6 4-6 7
s3 7 7 7
c9 1 18 2 29 3
c45 5 104 12 147-4
h1
c22 18 28 64 33 159
-1 8-1 20 0 34
c0 23 1 61-4 83
-4 1-8 2-12 4
-5 2-8 8-6 14
c2 6 9 12 16 11
c1 0 2-1 3-1
c4-3 8-8 10-15
c6-1 12-2 18-2
c2 8 5 15 11 21
c8 7 18 8 28 2
c9-6 15-17 12-25
-1-3-4-11-17-12
-7 0-14-1-22-1
v-1
c-1-37-5-75-9-112
-5-51-11-105-9-157
c1-13 0-26 0-41
-1-31-2-63 7-88
c17 2 37-5 57-14
c3-1 5-5 4-9
-1-4-5-6-8-5
-5 1-11 1-18 0
-14-1-29-2-41 9
c0 0-1 1-1 1
c0 0-1 0-1-1
-10-6-17-22-20-49
c1-20 0-41-1-62
c0-9-1-18-1-27
c1-34 5-69 9-103
c2-7 4-14 7-21
c3 0 6 0 10-1
h2
c47-18 68-73 86-117
l3-6
c11-29 21-66 3-96
-1-1-2-2-3-3
-3-2-6-2-10-1
-5 2-9 8-11 13
-19 64-45 125-81 185
c1-11 3-21 4-32
l1-7
c4-82 15-147 35-203
c5-10 10-20 15-30
c5-10 11-21 18-29
c15-10 32-14 50-18
c19-4 38-8 55-21
l4 3
c60 40 80 54 91 134
c4 30 11 59 18 88
c9 38 18 78 21 117
c0 27-28 60-50 86
c1-17 4-34 7-51
c2-12 4-24 5-36
c4-45-2-91-9-134
-1-4-4-7-8-6
-4 0-7 4-6 8
c4 41 0 82-4 123
-4 40-8 82-4 123
c0 3 2 5 4 6
c1 14 4 29 9 43
c1 4 2 8 4 12
c13 39 23 76-2 91
-5-2-12-3-20 0
-2 1-4 3-5 5
-1 2 0 5 2 7
c5 5 13 7 22 4
c24 22 16 125 7 183
-8 38-9 87-11 138
-1 21-1 42-2 62
-3 0-5 0-6 1
-24 5-46 40-45 64
c0 14 11 27 25 32
c4 1 7 2 11 2
c8 0 15-3 20-10
c1-1 1-2 1-3
c3-23 5-47 7-71
c100-3 613-5 752-5
c4 0 7-3 7-7
s-6-10-10-10
z
M957 469
c47-6 96-13 120-62
c6-14 9-29 12-43
c2-11 5-22 8-32
v-1
c5-34 28-66 57-79
c16-7 42-12 70 6
l2 1
c7 5 9 5 17 5
h7
c44 2 87 32 106 71
c3 5 11 33 10 42
-5 0-10-1-16-1
h-3
c-99-15-186 25-270 64
-42 19-86 40-130 53
-20 6-31-1-44-13
c18-7 36-9 54-11
z
M774 1529
c12 7 21 22 17 34
-20 1-37-13-46-28
-3-5-5-9-7-14
c13 0 26 2 36 8
z
m34-266
c20 5 44 10 71 6
c3-1 6 1 6 1
c0 0 0 1-1 1
-5 4-20 2-29 1
-4 0-7-1-10-1
-33-1-58-5-75-13
c9-1 22 2 38 5
z
m6-733
c0 1-1 2-1 3
c0-3 1-6 3-8
-1 1-1 3-2 5
z
m0-22
c-1 0-3 0-4 1
-8 5-13 14-12 25
c0 4 1 9 3 14
-1 2-3 5-4 8
l-1 2
c0 1-1 3-1 4
h-1
c-4 1-10 2-14 7
-2 1-3 1-4 0
-3-2-5-11-1-39
v-3
c1-6 3-11 5-16
c2-4 3-8 5-14
c2-7 8-11 22-12
c1 0 1 0 2-1
c7-3 10-9 12-14
c2-4 3-5 5-6
c12 4 21 2 28 1
c8-2 12-3 19 5
c1 1 2 2 4 3
-9 4-18 10-25 17
-9 8-18 17-25 26
-3-5-7-8-13-8
z
m202 784
c16-1 33-2 49-3
c19-1 39-3 58-3
-26 12-62 12-107 6
z
m103 282
c-11 8-23 9-32 3
-6-4-8-11-7-16
c2-6 11-10 24-10
h29
c-3 9-8 16-14 23
z
m106-12
c2 3 1 5 1 6
c0 1-2 1-3 1
-1-4-3-9-4-13
c3 1 5 4 6 6
z
m470 11
c-4 1-7 0-8-2
-1-2 0-6 5-9
c4-2 9-4 14-4
-3 6-6 11-11 15
z
m198-302
h-18
c5-1 11-1 18 0
z
m-50-439
c0 0 1-1 2-1
c1 0 2 0 4 1
c7 7 7 16 7 27
v8
c4 30-11 54-31 71
-1-14-2-27-2-40
-1-19 8-60 20-66
z
m-658-9
c-3 4-3 10-1 16
-10-9-19-18-28-29
-31-36-30-84-16-113
c6-13 15-21 21-21
c5 0 10 6 14 15
c11 42 15 85 14 129
-2 0-3 1-4 3
z
m29 495
c-1 10-2 19-3 29
-3-2-6-3-8-5
-7-12-8-56-5-73
c2-10 6-19 10-28
c3-6 5-12 8-19
c0 32-1 64-2 96
z
m10-405
c5 2 10 4 15 5
c0 1 0 3 1 4
c13 28 52 54 84 54
h2
c47-13 91-12 135 2
c15 3 31 6 47 10
c99 21 211 45 297-21
c2-1 4-2 6-3
c4 51 7 104-1 157
-1 17-4 34-7 50
-3 18-7 37-8 56
v1
c4 25 20 41 42 49
-28 37-25 112-22 180
c1 34 3 67-1 85
v2
c-14-2-31-1-47 0
-11 1-21 1-27 0
h-14
c9-40-2-91-11-132
-2-9-4-17-5-25
-4-11-4-21-2-29
c10-5 20-10 29-17
c1 0 1-1 2-2
c23-30 17-73 11-108
-1-5-1-10-2-14
v-1
c-9-28-14-57-16-87
c1-31 2-62 3-93
c0-4-3-7-6-8
-4 0-7 2-8 6
-5 32-6 64-4 94
-1 39-1 78 0 116
c1 32 1 64-14 90
-3 3-5 7-6 11
-48 20-104 19-158 19
h-53
c-18 1-38 2-56 4
-70 5-143 11-205-17
c1-12 3-23 4-35
c5-84-1-169-6-251
-2-37-5-75-6-113
c0-4-4-7-7-7
-4 0-7 3-7 7
c0 33 1 66 2 98
c2 50 3 101 1 150
-2 11-6 21-11 32
-4 10-9 20-11 31
-3 16-4 69 9 85
c1 1 1 1 2 2
c5 3 10 6 15 9
-1 7-2 13-3 19
-7 52-14 106-5 157
-11 0-22-1-33-1
h-13
c25-78 3-196-9-249
c1-1 3-2 4-3
c37-32 47-96 34-211
c1-41 5-83 10-124
c3-26 6-53 8-80
c2 1 3 2 5 3
-3 5-3 11-1 18
c1 12 8 20 17 25
z
m507 333
v-35
c1 3 2 6 3 10
c1 4 1 9 2 14
c5 33 11 71-8 96
-3 2-5 4-8 5
c12-28 12-61 11-90
z
m-367-306
c-15 0-30-8-42-16
-14-9-29-17-43-25
-8-5-17-9-25-14
c2-1 3-3 3-6
c0-4-2-7-6-7
-19-3-36-14-47-30
v-11
c14 2 27 7 41 12
c27 10 56 21 89 7
c4-1 7-3 9-6
c2-3 3-7 2-10
-2-15-13-23-22-30
-7-5-13-10-16-16
-1-3-1-8 0-11
c1-2 2-3 4-3
c4-1 8 3 12 6
c46 50 104 81 169 92
-42 38-85 65-128 68
z
m725 336
c41-5 70-7 90-3
-27 7-60 6-90 3
z
m201 294
c2 0 3 1 4 1
c0 1-1 6-5 9
-4 3-8 3-11 0
-3-2-5-6-6-10
c5-1 12-1 18 0
z
m-77-294
c10-5 18-13 24-22
v30
c-1 18 0 36 0 54
-5-30-12-49-24-62
z
m33 200
v-28
c3 35 7 71 8 106
-4 0-8 1-12 1
c4-19 4-47 4-79
z
m-4-325
c1 0 2 1 3 1
-3 8-5 17-6 26
-3-12-5-24-6-36
c2 5 5 7 9 9
z
m95-480
c10 23 1 53-8 77
l-3 6
c-16 40-36 89-74 107
c38-62 66-124 85-190
z
m-48-265
c-4 2-11 4-15 6
-6 0-9-1-10-1
c0-1 0-3 2-7
c3-4 7-9 12-12
c4 6 8 11 11 14
z
m-224-156
c10-8 19-9 31-9
h10
c9-1 17-5 24-9
c5-3 10-5 15-6
c9-3 18-4 27-4
c20 0 41 6 59 18
c23 15 37 37 40 62
c1 10 1 21 0 32
c0 8-1 16 0 24
c0 8 1 14 2 20
-8 5-15 12-19 19
-4-4-11-5-20-4
-5 0-11-3-16-5
-9-4-20-9-31-5
-7 2-11 8-15 12
-4 4-7 7-10 8
-2 1-5 1-9 1
-6 0-13 0-19 5
c0-1 0-3 1-5
c4-14-2-29-13-34
-7-3-18-2-28 12
-5 10-5 21-5 31
v6
c-4 1-9 0-13-2
-15-7-29-27-34-42
-14-49-20-90 23-125
z
m40 139
c2-2 5-7 9-6
c3 2 7 8 5 18
-3 22 3 28 10 33
-7 3-16 4-24 6
-8 2-16 3-23 6
-2 1-4 1-7 1
-4-7-10-13-16-20
-5-5-9-10-11-14
-1-2-4-3-6-3
c0-2 0-4-1-5
c8 10 17 20 28 25
c10 5 20 5 29 2
c3-1 5-3 5-6
v-12
c0-10-1-19 2-25
z
m-26 76
v-4
c2 0 5-1 7-2
c7-2 14-4 22-5
c12-2 25-5 36-11
c2 1 5 2 7 3
c7 3 14 6 16 12
c2 6-1 16-8 30
l-11 20
c-6 11-11 21-17 32
-4 9-10 16-17 19
-6 2-12 2-20-1
-14-4-28-8-42-12
-31-9-64-18-96-28
c12-26 39-28 68-29
c11-1 22-1 33-4
h1
c12-6 19-12 21-20
z
m-44-44
c3 14 12 30 25 37
c1 1 3 1 4 2
v2
c-1 3-4 6-11 9
-9 2-19 2-30 3
-29 2-61 4-77 32
-11-7-24-12-37-14
c4-6 5-12 7-18
c1-5 3-11 6-16
c0-1 1-1 1-2
c1-3 1-8 1-13
c4 3 8 5 13 6
c32 10 80-14 98-28
z
m-263-206
c4-2 8-3 12-4
c4-2 9-3 13-5
c4-2 10-2 16-2
c10 0 22 0 29-10
c23-32 56-24 91-16
l5 1
c61 14 85 80 77 138
c0 30 4 61 12 91
-20 16-62 34-87 26
-9-3-15-9-18-19
-1-2-2-3-3-4
-5-24-16-49-32-56
-8-3-21-4-34 15
c0 1-1 1-1 2
-6 18 7 25 14 29
c2 1 3 2 5 3
c4 3 5 6 6 13
c1 5 2 10 5 16
c4 8 17 14 27 12
v6
c-3 6-5 13-6 18
-2 9-4 15-12 21
-1 1-2 2-2 3
-1 0-1 0-2-1
-25-7-49-18-72-29
-2-1-5-2-7-3
c0-1-1-2-2-2
-11-8-15-21-20-35
-2-5-4-10-6-15
-4-8-9-15-15-22
-8-10-15-18-16-28
c0-4-4-7-7-7
-4 0-7 3-7 7
v8
c-1-2-3-4-4-7
c3-4 5-8 6-11
c8-12 9-29 3-38
c23-24 33-60 32-95
z
m134 212
v4
h-4
c-4-1-7-3-8-5
-2-3-2-7-3-11
-1-7-3-16-12-23
-2-1-4-2-6-4
-7-4-9-5-7-10
c6-8 12-11 16-9
c11 5 20 28 24 50
v8
z
m-180-123
c-2 0-4 1-6 2
c1-30 13-59 32-79
c2-2 4-3 6-4
-1 30-11 60-32 81
z
m-2 38
c0 0 0 1-1 1
-2-5-3-11-3-17
c3-2 5-4 8-5
c1 4 1 13-4 21
z
m-104 110
c-35 14-59 23-102-22
-13-12-27-22-41-30
c1-1 3-1 4-2
c10-7 15-25 16-62
c0-3-1-5-4-6
-24-14-22-53-19-72
c1 2 1 5 2 7
c1 3 4 5 7 5
c3 0 6-2 7-6
c1-6 0-12-3-16
-11-60 23-121 66-152
c27-18 59-11 82-2
h2
c5 0 9 0 13-1
c5-1 10-1 15 0
c51 4 79 50 88 91
c2 7 3 15 3 22
-6 3-11 6-16 10
-39 41-44 99-27 142
-8 10-16 18-24 18
-14-3-19 11-22 18
-1 2-2 5-3 6
-9 9-19 21-14 33
c1 2 3 5 5 6
-12 4-24 8-35 13
z
m125-26
c-2 0-3 0-5 1
-3 2-6 4-9 6
-1 0-2-1-3-1
-2-4-5-8-11-11
-1-1-3-1-4-1
-5 0-11 5-18 11
-23 1-29-2-30-4
c0 0-1-4 12-17
c0 0 1-1 1-1
c2-3 3-6 4-10
c3-9 4-9 6-8
h2
c13 0 23-8 32-18
c4 8 10 15 16 21
c2 2 5 3 8 2
c2-1 3-2 4-4
c1 2 3 4 4 5
c5 6 10 12 13 19
c2 5 4 9 5 14
c2 6 4 13 7 19
-1 0-3-1-4-1
-3-1-7-3-10-4
c0-1-1-2-1-4
-3-6-7-12-19-14
z
m115 306
c-14 8-30 18-50 30
l-95 57
c-24 16-51 26-80 31
-39 11-76 15-112 13
c48-48 90-104 119-143
l1-1
c3-3 6-6 10-8
c6-4 13-8 16-18
c1-3 2-7 3-10
c2-10 4-16 12-24
l5-4
c18-15 37-30 51-50
c4-6 6-13 8-20
c2-6 3-11 6-16
c2-3 4-6 6-8
c3-5 7-9 10-15
v-1
c5-16 9-33-2-38
h-2
c9-17 13-33 10-44
c11 5 22 10 33 15
c24 11 48 23 73 30
c55 20 112 36 167 52
c14 4 28 8 41 12
c10 5 21 5 30 1
c11-4 19-14 24-26
c6-11 11-21 17-32
l10-20
c10-18 13-31 9-42
-4-12-15-16-24-20
-12-5-15-7-13-14
c2-1 5-1 9-1
c4 0 8 0 13-1
c7-2 12-8 17-12
c3-4 6-7 10-8
c6-2 12 1 20 4
c7 3 14 6 22 7
h2
c9-2 10 0 15 9
v1
c0 0 0 1 1 1
v1
c0 1 1 2 2 3
c1 1 2 2 3 3
c10 4 16 12 18 21
c2 8-1 15-7 22
-2 2-5 4-9 6
-4 3-9 6-13 10
-8 9-9 20-11 30
v3
c-5 31-17 62-29 92
-3 9-7 17-10 26
-10 40-35 56-67 63
-8-3-16-7-25-10
-23-10-46-19-71-26
-5-8-9-17-14-26
-9-18-18-36-33-50
-12-15-25-16-33-10
-8 6-11 18 0 35
c2 3 4 5 6 8
c2 2 3 4 5 6
-26-2-36-11-46-19
-9-7-19-15-38-20
-8-2-15 1-19 7
-4 6-3 13 1 19
-8-4-16-5-24-3
-1 0-1 1-2 1
-7 5-8 10-8 13
c0 9 8 15 15 21
-2 0-5 0-7 1
-8 2-14 8-15 15
-1 7 2 15 9 20
c4 3 9 4 13 6
-1 1-1 2-2 2
-3 6 1 12 4 17
c7 8 24 10 27 10
c5 0 11 1 16 1
-6 1-16 7-28 15
z
m111-38
c-11-1-19-2-26-2
-11 0-20 2-32 8
-12-1-25-2-37-3
-8-1-16-3-17-5
c4 0 9-1 13-3
c2-1 3-3 3-5
c0-2-1-4-2-6
-6-5-13-7-20-9
-5-1-9-2-12-4
-2-2-4-4-3-5
c0-2 2-3 5-4
c2-1 5 0 8 0
c5 1 12 2 18-2
c3-2 5-6 3-10
-2-4-7-8-13-12
-4-3-13-10-13-12
l1-1
c7-2 19 6 29 12
c7 4 13 8 20 11
c3 1 5 0 7-2
c2-2 3-5 2-7
-4-13-14-21-23-28
-2-2-4-4-7-6
c0-1-1-1 0-1
c0-1 2-1 4-1
c16 4 24 10 33 17
c14 11 28 22 67 23
c2 0 4-1 6-3
c1-2 2-4 1-6
-2-9-8-15-13-21
-2-2-4-4-5-6
-6-9-5-15-3-16
c1-1 7 0 14 9
c14 13 22 29 30 46
c5 10 10 20 16 30
c1 1 2 3 4 3
c25 7 49 17 72 26
c1 0 1 0 2 1
-14 1-28 1-42 1
-47-1-73-4-90-7
z
m262 117
l-1 7
c-2 14-4 28-6 41
-8-3-16-9-24-14
-4-3-7-5-11-7
-44-26-85-56-129-89
-15-13-32-16-45-18
-4-2-8-6-12-10
-4-3-8-7-12-10
c16 2 37 3 66 4
c23 0 47 0 70-5
c26 10 54 19 84 23
v6
c0 2 1 3 2 5
c9 10 17 7 19 6
c2-1 4-3 6-6
-4 22-6 44-7 67
z
m6-76
c-1-5-4-10-10-13
c3-8 7-17 12-25
c2-4 4-8 6-12
-3 16-6 32-8 50
z
m179-240
c-7 0-13 3-18 5
l-1 1
c-12 6-24 9-36 12
-18 5-37 10-53 24
-1 1-2 2-3 3
-6 4-12 10-18 17
c0 0-1 1-1 1
-7 15-14 30-19 46
c0 0 0 1-1 1
-10 19-20 39-29 61
-3 8-7 17-11 25
-5 9-10 19-13 29
-22-2-43-8-63-15
c27-10 49-29 58-67
c3-8 6-17 10-25
c12-30 24-62 29-95
v-3
c1-9 2-16 8-22
c3-3 6-5 10-8
c4-2 8-5 12-8
c9-10 13-22 11-35
-1-6-4-12-8-17
c17-6 23-9 25-15
c1-5-2-9-6-13
-2-2-5-6-8-10
h1
c45-7 102-5 131 19
c12 11 18 24 19 42
-8 22-16 37-26 47
z
m69 1101
c-5 4-11 3-14 2
-8-3-15-10-16-18
c0-17 17-46 34-50
h2
c-1 22-3 45-6 66
z"/></svg>