<svg version="1.1" xmlns="http://www.w3.org/2000/svg" fill="#FFF" viewBox="0 0 326 167"><rect y="0" width="326" height="167" fill="black"></rect><path transform="scale(.1)" d="
m209 1397
c-66 0-118-14-196-48
-3-1-4-4-3-7
c1-3 4-4 7-3
c57 25 97 37 136 43
c40 6 81 5 142-3
c40-5 83-15 128-27
c76-19 161-40 257-40
c75 0 149 18 221 35
c60 15 123 30 185 34
c36 2 68 4 100 1
c14-1 27-3 38-6
-5-3-11-6-16-10
-37-30-50-89-50-135
v-421
c0-9-7-16-16-16
h-10
c-9 0-21 1-35 2
-41 4-83 8-91-12
-2-4-1-10 11-24
c7-9 18-22 33-37
c25-26 61-61 106-104
c79-75 165-152 189-174
c2-2 4-5 4-9
v-2
l-129 119
c-4 4-10 5-16 2
-5-2-8-7-8-13
v-164
c0-19 15-34 34-34
h98
c9 0 18 4 24 10
c6 6 10 15 10 24
v32
l232-209
c10-9 26-10 36 0
c69 61 456 419 511 472
c5 5 13 12 20 19
c14 13 30 28 42 42
c15 18 20 31 16 41
-4 10-18 16-42 18
-19 2-43 1-61 0
h-23
c0 0-13-1-20 6
-4 3-5 9-5 15
v417
c0 52-28 108-76 129
c35 5 67 9 92 11
c82 6 162-3 238-14
c36-5 72-13 107-20
c68-14 138-29 210-26
c51 3 107 11 170 26
c20 5 41 11 61 17
c33 10 66 20 99 24
c47 6 97 10 143 5
c50-5 91-21 126-48
c2-2 6-1 8 1
c2 2 1 6-1 8
-36 28-79 45-131 50
-47 5-98 0-146-5
-34-4-68-14-101-24
-20-6-41-12-61-17
-62-15-117-23-168-25
-71-3-141 11-208 26
-35 7-71 15-108 20
-76 11-158 21-240 14
-32-3-73-8-117-14
-6 1-11 1-17 1
h-615
c-5 0-10-1-13-5
-3-4-1-9 0-13
c4-9 14-12 22-13
c1 0 3-1 4-1
c45-13 91-24 136-35
c27-6 54-13 81-19
c3-1 6-2 9-2
-47-22-92-49-133-80
-53-40-99-91-131-145
-17-29-30-59-40-89
-10-32-15-64-16-96
-1-47 7-88 25-124
c20-40 54-72 92-86
c25-9 54-12 82-7
c27 5 54 16 77 31
c32 22 60 55 81 95
c6-16 15-33 26-48
c13-18 29-34 46-48
c18-14 38-25 58-32
c44-16 92-14 131 5
c41 20 73 59 90 107
c23 68 15 150-23 232
-21 44-49 86-84 124
-33 37-72 69-115 96
-28 18-57 34-85 47
-16 7-32 13-49 18
c52 21 104 35 157 42
c26 4 60 9 96 15
c35 6 72 11 108 17
c47-9 91-55 91-125
v-415
c-1-10 2-18 8-24
c10-10 26-9 28-9
h22
c18 1 41 1 60 0
c26-2 32-8 33-11
c1-3 1-11-14-30
-11-14-27-28-41-41
-8-7-15-14-20-19
-56-54-442-411-511-472
-6-6-15-5-22 0
l-240 215
v12
c0 7-3 13-7 17
-23 21-106 95-184 169
-45 42-80 77-105 103
-15 15-26 28-34 37
-10 12-12 17-12 18
c2 3 8 7 27 8
c16 1 36-1 53-3
c13-1 26-2 36-2
h10
c15 0 27 12 27 27
v422
c0 24 4 49 11 70
c8 25 20 44 35 56
c8 6 16 10 25 13
c4-2 9-5 13-8
c8-5 17-11 26-13
c6-1 16 2 20 9
c3 5 2 10-1 15
-4 5-10 7-15 8
-15 3-29 3-42 1
h-1
c-15 5-32 9-53 11
-33 3-65 1-102-1
-63-4-126-19-187-34
-71-17-145-35-219-35
-94 0-179 21-254 39
-46 11-89 22-130 27
-32 4-61 6-87 6
z
m1049-22
c8 0 16 0 24-2
c3-1 7-2 9-4
c1-2 1-2 1-3
-1-2-6-4-9-4
-7 1-14 6-22 11
-1 1-2 1-3 2
z
m74-16
h574
c-16-3-32-5-48-7
-36-6-69-11-96-15
-57-8-114-23-169-47
-1 0-2-1-3-1
-7 2-15 4-22 6
-27 7-54 13-81 19
-45 10-91 21-135 34
-1 0-3 1-5 1
-5 1-13 3-15 7
v3
z
m93-695
c-17 0-34 3-50 9
-36 13-67 43-86 80
-17 34-25 74-24 118
c1 31 6 62 16 93
c9 29 22 58 39 86
c32 53 76 103 128 142
c45 34 93 62 143 84
c22-6 41-12 61-21
c28-13 56-28 84-46
c42-27 80-59 113-95
c34-37 61-78 82-121
c37-79 45-158 23-224
-16-46-47-83-85-101
-18-9-39-14-60-14
-21-1-42 3-62 10
-19 7-38 17-55 30
-16 13-31 28-44 45
-13 18-23 37-28 56
c3 7 6 14 9 22
c4 11 6 27 1 37
-3 5-8 9-13 10
-3 0-5-1-6-3
-7-19-8-41-2-64
-21-43-49-78-83-101
-32-21-67-32-101-32
z
m190 151
c-2 13-1 25 3 37
c1-1 1-1 2-2
c4-7 2-19-1-28
-2-2-3-5-4-7
z
m-385-460
c-13 0-23 10-23 23
v164
c0 2 1 3 2 3
c1 0 2 1 4-1
l139-125
v-42
c0-6-2-12-7-16
-4-4-10-7-16-7
h-99
z"/></svg>