<svg version="1.1" xmlns="http://www.w3.org/2000/svg" viewBox="0 0 3260 1670"><path fill="#69A6C2" d="
m3254 1543
h-953
c14-55 91-333 172-390
c3-2 14 0 23 3
c18 5 43 11 58-8
c6-7 14-21 24-38
c19-32 58-97 76-91
c12 4 23 7 35 11
c92 29 164 52 216 21
c37-22 62-70 77-151
c37-196-45-221-159-255
-10-3-19-6-29-9
-2-1-9-3-12 3
-3 5 0 10 5 15
c16 18 65 72 57 186
-6 86-33 143-82 171
l-2 1
h-1
l-21-3
c24-19 67-68 74-174
c10-153-99-226-100-227
l-2-1
c-4-1-379-100-582-157
-42-12-48-12-51-4
-4 11-4 11 208 95
c133 53 299 118 337 143
c52 34 113 104 102 130
-5 11-26 14-60 7
-142-28-526-285-692-431
-33-29-66-49-96-66
-51-30-92-54-110-114
-20-68-39-133-110-133
h-4
c-97 3-221 257-246 618
-17 260 13 468 79 543
c17 19 36 30 57 31
c37 2 87-51 132-144
c15-8 116-59 296-92
c133-24 236-26 314-4
l1 1
c9 27-92 191-204 330
-7 9-40 55-7 98
c11 14 56 60 95 84
H19
c-4 0-8 3-8 8
s3 8 8 8
h2188
l1-15
c-34-3-105-72-122-93
-26-34 1-72 7-79
c71-89 222-298 207-344
-2-5-6-9-11-11
-80-22-185-21-321 4
-148 27-244 67-283 85
c45-101 85-243 99-408
c29-348-42-544-125-552
-81-8-168 193-212 488
-32 216-6 562 95 577
h3
c51 0 107-189 137-302
c9 86-14 189-19 208
-43 89-88 140-118 140
h-2
c-17-1-32-10-46-26
-63-72-92-276-75-532
c25-371 151-602 231-604
h3
c60 0 76 57 96 122
c19 66 64 92 117 123
c29 17 61 36 94 64
c167 147 555 406 699 435
c44 9 70 3 77-16
c15-38-55-114-108-148
-39-25-199-88-339-144
-47-19-94-37-131-52
c202 56 523 141 546 147
c10 7 101 76 92 213
-8 118-62 160-78 170
-3 2-5 6-5 10
c1 4 4 7 8 8
l34 5
c4 0 7 0 11-2
l2-1
c54-30 84-92 90-183
c6-100-29-157-50-184
c3 1 7 2 10 3
c111 33 184 55 149 238
-14 76-37 121-70 141
-46 28-116 5-204-23
-11-4-23-7-35-11
-27-9-57 37-94 98
-9 16-18 29-23 36
-9 11-23 8-43 3
-14-3-26-7-35 0
-95 67-177 394-181 408
l-2 9
h973
c4 0 8-3 8-8
s-6-12-10-12
z
M1768 691
c-12 141-42 262-78 356
c8-52 13-122 0-180
c7-28 11-46 11-47
c15-82 32-196 32-274
c2-169-13-294-25-350
v-1
c45 71 82 234 60 496
z
m-225 500
c-82-13-116-332-82-560
c46-311 133-475 193-475
h3
c15 1 32 13 47 35
-2-2-5-1-5-1
-7 1-7 1-4 33
c18 186 17 290-4 310
-2 2-4 2-6 2
-7-1-13-3-20-4
-45-10-87-20-118 51
-16 38-23 83-21 118
-1 27 1 53 10 71
c19 38 56 43 86 48
c20 3 37 5 41 16
c5 10 9 22 11 34
-29 121-94 328-131 322
z
m25-599
c6-11 10-11 10-11
c2 1 8 13 6 50
-3 58-20 116-28 119
-2 0-4-2-6-6
-5-9-9-25-10-44
c3-41 15-86 28-108
z
m113 247
c-1-4-3-7-5-11
-8-18-30-21-53-24
-28-4-60-9-75-40
c0-1-1-1-1-2
c2 1 5 2 7 2
c11 1 20-11 29-39
c13-41 28-144 2-159
-3-2-9-3-15 0
c24-38 51-32 91-23
c7 2 13 3 20 4
c7 1 14 0 19-5
c9-8 14-25 18-48
v51
c-1 76-17 190-32 271
-1 8-3 15-5 23
z"/></svg>