<svg xmlns="http://www.w3.org/2000/svg" viewBox="0 0 32600 16700"><path stroke-width="0" fill="#69a6c2" d="
m30812 8581
c-656-297-1471-230-2026-154
-295 41-592 97-879 152
-265 51-539 103-810 143
-239 34-797 115-1017-100
-19-19-36-40-50-62
-3-5-5-12-7-25
-4-28-10-66-58-120
l-1122-1087
c-30-29-76-31-108-4
l-661 544
l650-556
c18-15 28-37 28-60
c0-24-9-45-26-61
l-1682-1552
-29-213
l218-178
c19-16 30-38 30-62
c0-25-10-47-29-63
l-305-258
c-17-14-38-21-60-19
l-3899 339
c-21 2-35 10-45 18
-19-54-90-136-268-272
c15-97 17-194 5-290
c66-205 85-409 55-608
-47-318-225-606-514-832
-611-479-1520-593-2167-541
-946 77-1732 489-2212 1161
-10 14-17 29-21 46
-676-197-1320-126-1864 205
-564 343-923 842-1065 1484
-34 156-42 307-49 454
-5 104-10 211-25 317
-19 139-153 459-251 529
l-4380 3113
c-87 62-125 431-138 587
-386 29-985-12-1277-31
-55-4-100-7-133-9
-1065-61-2108-108-3166-7
-22 2-41 12-55 29
-14 17-20 38-18 59
c4 45 44 79 89 73
c1047-99 2083-53 3141 8
c39 2 90 6 151 10
c305 21 863 59 1259 31
-2 68-2 143 7 182
c59 258 1126 532 1347 481
c88-20 93-117 98-202
c3-51 6-103 23-135
c14-22 125-94 175-121
c19-11 80-8 133-6
c99 4 212 9 276-45
c61-51 69-133 74-188
c1-15 3-36 3-38
l216-229
c16-8 86 0 132 7
c87 12 177 23 237-2
c58-25 78-115 99-211
c8-37 17-77 26-98
c29-18 58-45 89-72
c29-27 60-54 89-72
c15-9 81-10 133-11
c120-1 269-3 363-70
c27-19 53-39 79-59
c29-22 58-45 88-66
c36-25 70-55 103-83
c48-42 94-81 145-108
c110-59 138-237 160-380
c6-42 13-81 20-112
l331-198
c27 2 78 9 132 18
c217 33 314 42 355 14
c21-14 45-41 74-71
c36-39 102-110 128-111
c10 4 36 29 51 44
c20 19 39 37 55 48
c83 52 237 129 340 59
c116-79 382-474 446-598
c44-86-230-1010-511-1254
-112-97-201-72-256-33
l-4930 3490
c-21 15-64 34-158 50
c21-231 55-404 77-444
l4370-3105
c149-106 295-478 318-639
c15-109 20-217 25-323
c7-143 14-290 46-437
c132-596 466-1061 991-1380
c528-321 1182-375 1844-153
c113 142 364 311 585 420
-240-50-482-68-695-51
-448 35-1067 191-1475 732
-653 868-683 1771-92 2759
c103 173 38 596-59 781
l-2234 4249
c-185 351 6 984 289 1217
c78 65 208 98 295 107
c35 4 71 5 107 5
c136 0 280-22 408-45
c51-9 88-23 129-49
c83-53 151-61 254-72
c42-4 72-21 91-50
c38-59 8-146-20-230
-14-41-37-110-28-126
c45-76 85-156 124-233
c16-9 62-19 94-26
c87-20 185-42 220-102
c35-62 6-147-23-229
-17-48-34-98-35-134
c0-41 46-118 81-175
c16-26 30-49 37-64
c9-7 48-12 73-15
c85-11 201-25 230-131
c20-70 0-131-17-184
-12-37-23-72-22-107
c4-78 70-191 125-265
c44-58 100-71 165-86
c76-17 162-37 221-138
c30-52 30-103 29-147
c0-30 0-56 8-78
c16-42 45-80 76-120
c33-43 67-88 90-144
c46-115 0-218-39-308
-23-53-45-103-50-153
-5-53 68-168 111-237
c13-20 24-39 33-53
c15-26 113-60 184-84
c106-37 216-74 265-133
c17-21 35-53 56-90
c27-48 77-136 106-144
c27-8 66 7 107 22
c79 30 188 70 276-43
c98-126 150-333 196-516
c19-77 38-150 58-212
c33-100-90-247-209-390
-53-64-109-131-126-168
c4-28-6-56-28-75
-30-25-72-25-103-1
-12 9-20 21-24 30
l-2768 5087
c-31 57-294 72-466-10
-144-69-109-152-97-179
c173-416 369-825 558-1221
c254-533 523-1079 823-1672
c427-844 868-1717 1354-2530
c144 68 576 355 769 482
c51 34 91 60 113 74
c27 18 61 88 91 150
c58 122 125 260 239 266
c675 30 1363-287 1839-852
c266-316 445-699 485-1035
c20 8 38 16 57 27
l-72 443
c-4 26 4 52 23 71
l821 820
-184 1005
c-32 176 49 382 181 459
c95 55 201 39 301-44
l271-228
c93-78 261 39 336 112
l2852 2760
c171 166 415 118 568-14
l3801-3306
c193-168 335-391 400-629
c3-12 4-24 2-35
c290 232 845 151 1117 112
c272-39 547-92 812-143
c286-55 582-112 875-152
c536-73 1319-139 1937 141
c20 9 42 10 62 2
c20-8 37-23 46-42
c18-41 0-89-41-108
z
m-17779 1771
l747-1374
c34 47 76 98 116 147
c56 68 140 170 145 204
-19 57-36 127-55 201
-44 173-93 369-170 469
-13 18-36 13-100-10
-56-20-126-46-200-25
-94 27-143 117-186 196
-19 35-37 67-56 91
-22 27-102 53-173 77
-23 8-46 15-69 23
z
m1843 -5802
l58 21
-50-35
c37-87-101-204-473-403
l-23-12
c-132-73-285-154-426-204
h-3
l-2-4
c452-631 1195-1019 2092-1092
c617-50 1479 56 2054 506
c259 203 412 448 454 728
c12 82 15 166 8 251
-61-132-149-262-262-388
-47-53-100-104-158-154
-62-98-150-205-236-285
-285-268-676-439-1160-508
-432-61-957 2-1372 166
-294 116-575 280-792 461
-166 139-344 332-253 464
l-2 4
l4-3
c12 16 29 26 49 29
c54 7 121-43 185-95
c9-7 16-13 20-16
c120-86 241-166 360-236
c396-235 770-376 1110-419
c645-81 1487 152 1962 545
c32 53 53 101 63 142
c49 195 48 386 0 567
-102-39-186-53-250-39
-117 24-214 102-276 219
-78 149-88 341-25 488
c10 22 28 38 49 45
-119 96-255 184-406 263
-334 174-681 281-1022 322
c6-2 11-3 17-5
c27-8 47-28 55-55
c8-27 2-54-16-76
-56-67-107-132-157-197
-83-107-168-217-275-327
-295-304-611-518-942-637
c17-7 31-18 41-33
z
m1971 2937
l812 845
-46 269
-815-814
l49-300
z
m603 2240
l20-110
c17 49 50 90 99 117
c91 52 214 43 287-20
l401-346
l11-10
c6-6 22-20 31-29
c15 12 42 38 95 91
l2918 2885
c202 200 444 204 665 13
l3708-3219
c-55 79-120 151-192 215
l-3801 3306
c-94 82-242 123-348 20
l-2852-2760
c-102-98-243-185-376-185
-63 0-123 19-178 65
l-271 228
c-67 56-106 33-119 25
-75-44-115-192-98-287
z
m-1081-2839
c-7-66 7-109 8-114
c0 0 17 7 44 66
c37 80 59 168 68 262
-96-58-116-177-120-213
z
m1-284
c-77 10-140 92-161 209
-24 139 18 338 218 440
c20 10 40 19 61 27
-28 313-195 678-452 982
-443 526-1080 824-1702 795
-21-11-67-100-97-158
-50-97-101-197-156-232
-79-51-158-103-236-155
l-136-90
c-129-85-263-173-399-252
l-16-10
c-87-53-175-100-239-84
-23 6-42 19-53 39
-500 830-951 1724-1388 2588
-297 588-567 1136-824 1675
-180 377-384 805-561 1229
-67 160 0 302 182 389
c224 108 587 101 675-59
l574-1055
c-12 33-20 68-19 104
c0 36 21 105 48 198
c8 27 18 60 23 80
-21 8-58 16-84 22
-89 20-189 43-221 107
l-6 11
c-37 73-75 149-117 220
-52 87-9 201 22 284
c6 15 12 33 17 49
-106 13-188 31-283 92
-22 14-39 21-69 26
-151 27-325 53-470 38
-68-7-163-34-208-71
-228-188-396-736-248-1016
l2234-4249
c115-218 195-705 54-940
-554-925-527-1768 82-2577
c371-493 943-635 1357-668
c48-4 97-6 147-6
c263 0 559 51 834 144
c318 109 624 313 909 608
c103 106 182 208 266 317
c24 31 47 61 72 92
-212 23-518 2-694-38
-78-227-281-470-566-515
-292-46-651 75-770 394
-88 235-23 502 171 715
c251 273 581 346 930 205
c844 212 1582 146 2322-206
c318-151 604-350 820-569
l-261 1158
-157-149
c-95-91-247-164-358-71
l-657 545
c-43-24-83-37-123-49
-3-141-31-273-86-393
-69-151-145-174-199-168
z
m-4237 5400
l544-1000
c7 18 15 36 22 54
c32 77 65 157 45 207
-17 42-45 78-75 117
-34 44-69 90-91 148
-16 40-16 86-17 126
c0 29-1 63-9 76
-22 39-61 49-126 65
-77 18-172 40-249 143
-11 15-27 37-43 63
z
m-114 292
c-3 51 13 104 27 150
c12 41 24 83 22 99
-9 7-48 12-74 15
-75 10-179 23-219 103
-7 13-14 26-22 39
l309-568
c-23 52-40 108-43 162
m6249-8160
c121 159 197 321 226 482
-18 51-39 104-64 156
h-2
c-72-49-138-88-200-121
c49-166 62-339 39-516
z
m-602 932
s-8 9-12 13
c-9-92 11-192 56-265
c26-43 74-98 153-114
c3 0 8-1 15-1
c23 0 67 7 146 39
-5 12-11 25-17 37
-46-18-89-30-126-36
-54-9-107 11-147 55
-59 65-87 179-69 273
z
m489-222
c6-12 12-24 17-37
c58 31 120 67 183 107
-7 13-15 25-23 38
-61-41-121-77-177-108
z
m-78 141
c51 28 107 62 164 100
-177 237-424 466-698 647
-596 393-1579 553-2392 391
-244-49-485-157-689-257
l-13-6
c-76-37-148-72-214-122
c0-4 8-22 42-51
c60-50 136-79 148-80
c18 15 35 27 54 39
c753 530 1815 550 2772 53
c366-190 651-437 827-714
z
m-3945 878
c79 63 161 103 257 149
c213 104 466 218 729 270
c851 170 1885 0 2514-415
c291-192 553-435 741-688
c9 7 18 14 27 21
-49 95-115 192-196 286
-215 250-554 504-883 661
-710 338-1421 398-2238 189
-7-2-14-3-21-3
-11 0-21 2-32 7
-300 129-560 77-772-155
-102-112-159-241-166-367
c10 15 23 30 41 45
z
m3723-965
c21 3 44 10 70 19
-29 44-61 88-97 131
-16-45 9-141 27-149
z
m-3428 551
c-32 0-69 7-108 22
-65 24-135 70-185 125
c103-208 361-284 575-250
c235 37 397 256 449 443
c0 3 2 6 3 8
-213-64-413-160-594-287
-15-10-28-18-41-29
-26-22-60-33-99-33
z
m3097-2056
c-472-198-1031-289-1490-230
-353 45-737 187-1140 422
-54 31-108 64-162 99
c197-155 444-295 702-397
c292-115 643-178 970-178
c110 0 217 7 319 21
c311 44 579 133 801 264
z
m1114 1794
c-14-12-29-25-44-38
c7-18 13-36 19-54
c33 26 62 51 86 73
-21 5-42 12-62 19
z
m3743 3728
l-599-576
l764-635
l596 558
-762 652
z
m966-658
l8 7
-8 6
v-14
m-1716 0
c6-25 0-53-17-73
l-560-641
l700-578
l674 630
-797 662
z
m-46 107
c-28-17-64-17-92 4
l-749 559
-619-619
l697-574
l677 566
c24 20 57 24 84 12
-2 7-4 15-4 23
c0 10 1 20 4 29
z
m14 128
c23-22 31-54 22-82
l703 676
c14 13 31 21 48 22
l-779 667
-660-661
l665-622
z
m4272 229
l-3998 3470
c-155 134-304 132-444-5
l-2909-2876
c-18-17-33-33-47-48
-63-64-106-106-160-106
-42 0-91 25-160 85
l-400 345
c-23 17-71 23-103 3
-24-15-33-42-27-80
l204-1194
c4-26-4-51-22-70
l-889-924
s-5-5-7-8
l630-523
c23-19 94 18 142 64
l260 248
c21 21 51 28 80 19
c28-9 49-31 56-60
l313-1392
c63-137 133-228 221-284
c20 20 38 39 53 56
c112 131 191 275 263 412
l13 26
c44 88 112 221 212 227
c23 2 47-4 69-16
c189-99 7-483-114-737
l-9-19
l3751-327
l204 173
-178 145
c-22 18-33 46-29 74
l39 287
c3 19 11 36 25 49
l1636 1510
-1068 914
-766-709
c-30-28-76-29-107-3
l-52 43
-741-693
c-30-28-76-29-107-3
l-820 677
c-17 14-27 34-29 56
c0 10 0 19 2 28
-28-14-63-11-88 10
l-818 674
c-18 15-29 35-29 59
-1 23 7 45 24 62
l732 731
c15 15 35 23 55 24
c0 21 9 39 24 54
l773 774
c30 30 78 32 110 4
l1834-1571
l57 53
c30 28 75 29 107 3
l1143-940
l1065 1031
c17 20 19 31 21 50
c3 19 6 42 24 70
c13 20 26 39 42 57
-23-4-46 3-65 19
z
M6186 10702
c125-18 211-45 264-82
l4930-3490
s13-9 34 2
c180 95 477 942 486 1099
-72 129-291 444-384 517
-19 8-99-23-162-62
-16-10-29-24-44-40
-30-32-67-71-133-76
-107-8-180 75-240 141
-22 24-42 47-62 62
-32 3-111-11-180-21
-181-27-263-36-297-15
l-366 219
c-35 21-47 82-68 208
-15 86-42 245-78 265
-64 34-115 78-165 121
-33 29-65 56-100 80
-31 22-61 45-92 68
-25 20-51 39-77 58
-52 37-161 39-256 40
-97 1-180 3-232 35
-36 22-70 53-103 83
-32 29-62 56-91 74
-46 28-64 109-84 196
-8 37-17 78-27 100
-24 2-67-6-105-13
-99-19-221-42-293 34
l-219 231
c-37 39-42 94-48 143
-3 25-7 62-15 70
-16 11-95 9-147 8
-89-2-182-5-235 25
-8 4-198 108-240 186
-38 71-42 161-44 226
c0 13 0 28-2 39
h-11
c-232 0-1085-253-1111-367
-5-24-6-84-3-163
z
m12763-5308
c4 7 7 12 8 16
c44 92 77 168 106 241
c32 82 63 181 74 245
-16-25-37-62-65-116
-93-177-173-312-283-442
-4-5-8-10-13-15
c24-5 50-8 76-10
c20-1 38-9 53-22
c7 33 25 68 44 102
z"/></svg>