<svg xmlns="http://www.w3.org/2000/svg" viewBox="0 0 326 167">
  <g fill="none" stroke-width="0">
    <g transform="scale(.01)">
      <g>
        <path
          d="
m14819 3383
l-361 5928
c463-88 834-119 1174-102
c285 14 559 62 862 150
c257 75 536 178 933 345
c264 111 503 209 754 284
c235 70 481 112 730 125
c240 12 489-3 742-44
c184-30 365-67 540-110
-146-75-296-157-446-245
-190-31-369-82-537-154
-179-75-347-174-501-293
-215-166-399-363-548-585
-141-211-250-444-322-693
-70-239-106-490-107-746
-1-251 32-502 97-746
c131-489 386-924 737-1257
c185-175 394-320 622-430
c240-116 501-193 776-230
c304-44 602-41 887 9
c281 49 551 146 803 289
c243 138 463 314 654 525
c189 208 345 444 464 701
c120 261 198 537 232 819
c69 577-57 1162-353 1646
-284 465-724 848-1309 1140
-218 109-456 205-710 286
c85 38 171 74 255 108
c265 106 526 189 779 248
c272 64 542 101 800 110
c203 7 414-11 646-55
c210-40 420-98 622-154
c233-65 473-131 728-175
c632-110 1246-86 1825 69
l254-6459
-11721-303
Z" />
        <path
          d="
m19800 9563
c224 33 455 33 687 0
c506-72 991-298 1366-638
c193-175 352-374 473-593
c127-231 210-480 246-740
c41-293 26-590-43-882
-67-286-184-553-346-795
-339-505-841-840-1415-942
-249-44-501-48-749-11
-213 35-415 96-601 182
-175 81-338 185-483 309
-138 119-261 256-366 408
-101 147-185 309-250 480
-72 188-120 388-143 592
-23 202-22 405 4 605
c54 410 208 782 447 1075
c5 6 15 7 22 3
l349-190
l263-269
c11-9 14-14 14-21
c0-6-1-12-6-17
l-680-764
c-32-36-48-82-45-130
c3-48 24-92 60-124
l338-299
c74-65 188-59 254 15
l775 871
s10 8 17 8
c8 0 12-2 17-6
c15-14 1552-1385 1755-1561
c74-65 187-58 253 16
l299 336
c66 74 59 188-15 254
l-2241 1995
c-74 66-188 60-255-12
l-330-357
c-6-6-15-8-23-4
l-355 194
-251 256
s-5 9-5 14
c0 4 1 8 4 10
l63 60
c163 155 347 331 532 449
c121 78 243 153 362 222
Z" />
        <path
          d="
m19459 8200
s7 0 11 0
c45 3 87 22 118 56
l330 357
c9 10 26 11 36 2
l411-367
l1831-1628
c6-6 8-13 8-16
c0-4 0-11-6-17
l-299-336
c-9-10-24-11-34-2
-201 174-1739 1547-1754 1560
-36 32-82 48-130 45
-48-3-92-24-124-60
l-775-871
c-9-10-24-11-34-2
l-338 299
s-8 10-8 16
c0 7 2 12 6 17
l680 764
c33 37 49 84 44 134
-2 19-6 37-13 54
c13-3 26-5 40-5
Z" />
        <path
          d="
m20474 9881
c289-86 557-191 799-312
c558-279 977-643 1245-1082
c278-455 396-1004 331-1546
-32-266-105-526-219-772
-112-242-259-465-437-662
-180-199-388-365-616-494
-236-134-489-225-753-271
-268-47-550-50-838-8
-259 35-505 108-730 216
-213 103-409 239-583 403
-330 314-571 723-694 1184
-62 230-93 467-92 705
c0 241 35 477 101 703
c68 233 170 452 302 650
c139 208 312 392 513 548
c143 111 300 202 467 273
h3
c-170-122-336-281-474-412
l-62-59
c-33-32-52-74-53-121
c0-19 3-39 8-57
-66 19-140-2-184-56
-257-316-423-715-481-1153
-28-212-29-428-5-642
c25-217 76-429 152-630
c70-184 160-356 267-513
c112-164 245-311 393-439
c156-133 330-245 519-332
c198-92 414-157 642-194
c266-39 535-35 800 12
c314 56 608 176 873 356
c252 171 469 391 644 652
c172 257 296 542 368 846
c73 311 89 627 46 939
-38 279-127 546-264 794
-129 234-299 448-505 634
-398 360-912 600-1449 676
-129 18-258 28-388 26
c101 55 202 106 300 153
c18-5 36-10 53-16
Z" />
        <path
          d="
m26239 11343
l41-1038
c-568-157-1170-183-1793-75
-246 43-483 108-713 172
-209 58-420 116-634 157
-208 40-401 59-586 59
-32 0-63 0-95-2
-268-10-547-48-829-114
-259-61-529-146-801-255
-139-55-281-118-423-185
-232 64-477 118-727 159
-264 43-524 58-775 46
-261-13-519-57-767-131
-260-78-502-177-770-290
-393-165-667-267-917-339
-291-84-554-130-826-144
-338-17-708 15-1177 107
l-71 1170
l11863 702
Z" />
        <path
          d="
m8220 12642
c-148 30-196 62-210 75
c20 26 111 79 376 101
c539 45 1184-64 1350-163
-562-86-1187-80-1516-13
Z" />
        <path
          d="
m26229 11813
c-99 89-227 132-359 123
l-2930-204
c-150-11-298 32-418 119
l2632 190
c98 7 181 68 216 160
c35 92 15 193-53 264
l-653 682
c-169 176-405 267-649 250
l-2607-190
c-101-7-183-71-216-167
s-7-197 68-264
l881-795
-7362-532
c-128-9-258 26-363 100
l-1080 753
c-37 25-30 63-27 74
c3 11 16 47 61 50
l2970 222
c32 2 60 25 69 56
c9 31-2 65-28 84
l-464 344
l179 15
l436-337
c127-98 284-144 443-130
l3796 325
c29 3 55 21 66 49
c11 27 6 59-14 81
l-605 684
c-158 179-395 272-632 249
l-4139-401
c-73-7-132-57-152-127
-20-70 6-144 64-188
l132-98
-4548-382
c-34-3-62-27-69-60
s6-67 35-84
l2948-1805
l91-1340
c-168 41-348 88-542 142
-364 101-675 170-952 211
-318 48-592 60-837 38
-36-3-73-8-110-15
-68 780-954 1300-1263 1459
-65 54-160 526-212 779
-26 129-50 246-72 340
c328 66 623 167 819 308
c21 15 33 41 32 67
-1 26-16 50-38 63
l-438 261
c-51 30-60 81-52 119
c8 38 38 80 96 87
l13606 1463
c204 22 406-58 538-215
l2212-2605
l20-553
-367-22
c-14 118-69 225-158 305
Z" />
        <path
          d="
m10266 10029
c-47 181-14 300 11 330
c21-21 92-115 109-462
c3-60 3-119 0-176
-50 96-91 200-119 308
Z" />
        <path
          d="
m7184 8780
c-8 3-14 6-20 9
c254 169 2120 415 2919 212
-44-44-93-85-146-123
-819-576-2418-237-2753-99
Z" />
        <path
          d="
m11309 9562
c-51-167-153-364-336-361
-112 2-237 75-351 190
c178 149 422 301 728 378
-6-67-19-136-41-207
Z" />
        <path
          d="
m14107 9544
l-97 1429
c-2 25-16 48-37 61
l-2779 1701
l4488 377
l438-325
-2761-207
c-96-7-174-72-199-164
-25-93 9-188 88-243
l1080-753
c135-94 299-139 464-128
l7511 543
l61-55
c160-144 373-218 589-203
l2930 204
c90 7 177-24 244-84
c58-52 96-122 107-199
l-11942-707
c-21-1-40-11-54-26
-14-16-21-36-19-57
l74-1206
c-59 13-120 26-182 40
Z" />
        <path
          d="
m21340 12989
c5 13 24 58 80 62
l2607 190
c198 15 388-59 525-202
l653-682
c26-27 34-65 20-100
s-44-58-82-61
l-2786-201
-992 896
c-42 38-30 84-25 98
Z" />
        <path
          d="
m15445 13496
c2 8 8 13 16 14
l4139 401
c189 19 375-55 500-197
l502-568
-3642-312
c-121-10-239 25-335 98
l-460 355
c-15 12-34 18-54 16
l-386-32
-275 204
c-7 5-9 12-7 20
Z" />
        <path
          d="
m26936 3249
c-69-73-162-115-262-117
l-11754-283
s-6 0-9 0
c-196 0-358 151-372 348
l-420 6185
c62-14 122-27 181-39
l369-6044
c3-41 37-73 78-73
h2
l11876 307
c21 0 41 9 55 25
s22 36 21 56
l-259 6598
c2 6 3 13 3 20
-2 18-3 36-5 54
v1
l-42 1066
l365 22
l277-7856
c4-100-33-196-101-269
Z" />
        <path
          fill="#69a6c2"
          d="
m30521 11403
h-3272
s-333-20-333-20
l277-7860
c5-142-46-278-144-381
-98-104-230-162-372-166
l-11754-283
s-9 0-13 0
c-278 0-508 214-527 493
l-424 6232
c-184 44-381 95-595 154
-358 99-663 167-933 208
-290 44-551 56-800 36
-42-3-81-9-121-15
-5-92-21-187-52-285
-128-416-361-473-488-471
-154 3-318 95-464 242
-38-37-73-73-102-105
-19-37-39-74-62-108
c180-93 211-211 196-304
-78-523-1389-712-2251-674
-429 19-1430 122-1465 681
-129 2066 446 3479 634 3880
H574
c-43 0-78 35-78 78
s35 78 78 78
h7009
c28 0 53-15 67-38
c14-24 14-53 0-78
-8-15-822-1506-672-3910
c18-295 523-500 1316-534
c1026-44 2041 219 2090 541
c3 22 13 88-138 155
-63-72-137-137-220-196
-817-574-2428-311-2902-115
-145 60-143 142-129 186
c106 330 2318 520 3105 336
c24-6 46-12 68-18
c32 47 68 92 108 137
c30 63 55 130 73 201
-102 148-184 324-234 512
-56 213-29 411 66 493
c45 38 100 47 152 25
c152-66 198-364 209-603
c7-140-2-271-25-392
c2-3 4-5 6-7
c242 189 540 341 829 418
-48 714-888 1206-1179 1354
-114 59-180 328-293 887
-26 127-51 250-73 343
-770-127-1661-78-1879 77
-91 65-80 141-71 171
c16 52 63 212 685 228
c431 11 1264-65 1374-296
c258 50 493 122 668 218
l-329 196
c-100 60-149 172-124 286
s116 196 232 208
l13606 1463
c28 3 56 4 83 4
c226 0 443-99 591-274
l2229-2626
c11-13 18-30 18-48
l20-577
l334 20
h3276
c43 0 78-35 78-78
s-35-78-78-78
Z
M7164 8789
c5-3 12-6 20-9
c334-139 1933-477 2753 99
c54 38 102 79 146 123
-799 202-2665-44-2919-212
Z
m1222 4029
c-265-22-356-75-376-101
c14-13 63-45 210-75
c329-67 953-73 1516 13
-166 99-811 208-1350 163
Z
m1891-2460
c-26-30-59-149-11-330
c28-107 69-211 119-308
c3 57 4 115 0 176
-16 347-88 441-109 462
Z
m697-1158
c183-2 284 194 336 361
c22 71 35 140 41 207
-306-77-550-230-728-378
c115-116 239-188 351-190
Z
m15762 2882
l-2212 2605
c-133 157-334 237-538 215
l-13606-1463
c-59-6-88-49-96-87
-8-38 0-89 52-119
l438-261
c23-13 37-37 38-63
c1-26-11-51-32-67
-195-141-490-242-819-308
c23-93 46-211 72-340
c51-253 147-724 212-779
c309-159 1195-679 1263-1459
c37 6 74 11 110 15
c245 23 519 10 837-38
c277-42 588-111 952-211
c194-54 374-101 542-142
l-91 1340
-2948 1805
c-29 18-43 52-35 84
s36 57 69 60
l4548 382
-132 98
c-59 43-84 117-64 188
c20 70 79 120 152 127
l4139 401
c237 23 474-70 632-249
l605-684
c20-22 25-53 14-81
-11-27-36-46-66-49
l-3796-325
c-160-14-317 33-443 130
l-436 337
-179-15
l464-344
c26-19 38-53 28-84
-9-31-37-54-69-56
l-2970-222
c-44-3-58-39-61-50
-3-11-10-48 27-74
l1080-753
c106-74 235-109 363-100
l7362 532
-881 795
c-75 68-101 169-68 264
s116 159 216 167
l2607 190
c244 17 480-73 649-250
l653-682
c68-71 88-172 53-264
-35-92-118-153-216-160
l-2632-190
c120-86 268-130 418-119
l2930 204
c132 9 260-35 359-123
c89-80 145-188 158-305
l367 22
-20 553
Z
m-448-1936
c-580-154-1193-179-1825-69
-254 44-495 111-728 175
-202 56-412 114-622 154
-232 44-443 62-646 55
-258-9-527-47-800-110
-252-59-514-143-779-248
-85-34-170-70-255-108
c254-82 493-178 710-286
c584-292 1025-675 1309-1140
c296-484 421-1069 353-1646
-33-282-112-558-232-819
-119-257-275-493-464-701
-191-211-411-387-654-525
-252-143-522-240-803-289
-285-50-583-53-887-9
-275 37-536 114-776 230
-228 110-437 255-622 430
-351 333-606 768-737 1257
-65 244-98 495-97 746
c0 255 37 506 107 746
c73 249 181 482 322 693
c148 222 333 419 548 585
c154 119 323 217 501 293
c168 71 347 122 537 154
c151 88 300 170 446 245
-175 43-356 80-540 110
-253 41-502 56-742 44
-249-13-495-55-730-125
-251-75-490-173-754-284
-398-167-677-270-933-345
-303-88-577-136-862-150
-340-17-711 14-1174 102
l361-5928
l11721 303
-254 6459
Z
m-7379-1253
l-63-60
s-4-6-4-10
c0-5 2-10 5-14
l251-256
l355-194
c8-4 17-3 23 4
l330 357
c67 72 181 78 255 12
l2241-1995
c74-66 81-180 15-254
l-299-336
c-66-74-179-81-253-16
-203 176-1740 1547-1755 1561
-5 4-9 6-17 6
-7 0-12-3-17-8
l-775-871
c-66-74-180-81-254-15
l-338 299
c-36 32-57 76-60 124
-3 48 13 94 45 130
l680 764
s6 10 6 17
c0 6-3 11-14 21
l-263 269
-349 190
c-7 4-18 3-22-3
-239-293-393-665-447-1075
-26-199-28-403-4-605
c23-204 71-403 143-592
c65-171 149-333 250-480
c105-153 228-290 366-408
c145-124 307-228 483-309
c186-86 388-147 601-182
c248-37 500-33 749 11
c574 102 1076 436 1415 942
c162 241 278 509 346 795
c69 292 83 589 43 882
-36 260-119 509-246 740
-121 219-280 419-473 593
-375 339-860 566-1366 638
-232 33-463 33-687 0
-119-70-240-145-362-222
-185-118-369-294-532-449
Z
m481-875
l-680-764
s-6-11-6-17
c0-6 3-12 8-16
l338-299
c10-9 25-8 34 2
l775 871
c32 36 76 57 124 60
c48 3 94-13 130-45
c15-14 1553-1387 1754-1560
c10-9 25-8 34 2
l299 336
c6 6 6 14 6 17
c0 4-1 11-8 16
l-1831 1628
-411 367
c-11 9-27 8-36-2
l-330-357
c-31-33-73-53-118-56
h-11
c-13 0-27 2-40 5
c7-17 12-35 13-54
c4-49-11-97-44-134
Z
m1119 1700
c536-76 1051-317 1449-676
c206-186 376-399 505-634
c137-248 226-515 264-794
c43-312 28-628-46-939
-72-304-196-589-368-846
-175-261-392-481-644-652
-265-180-558-300-873-356
-265-47-534-51-800-12
-228 37-444 103-642 194
-188 87-363 199-519 332
-149 127-281 275-393 439
-108 157-198 329-267 513
-76 201-127 412-152 630
-25 215-23 431 5 642
c58 439 224 838 481 1153
c44 54 118 75 184 56
-6 18-9 37-8 57
c0 46 20 89 53 121
l62 59
c138 131 304 290 474 412
h-3
c-166-70-323-162-467-273
-201-155-374-340-513-548
-132-198-234-416-302-650
-66-226-100-462-101-703
c0-237 30-474 92-705
c124-461 364-871 694-1184
c173-164 369-300 583-403
c225-109 471-182 730-216
c288-41 570-39 838 8
c264 46 517 137 753 271
c228 129 435 296 616 494
c179 197 326 419 437 662
c114 246 187 506 219 772
c64 542-53 1092-331 1546
-269 439-688 803-1245 1082
-241 121-510 225-799 312
-18 5-35 11-53 16
-98-48-198-99-300-153
c129 2 258-8 388-26
Z
m-4885-354
c273 13 535 59 826 144
c250 72 524 174 917 339
c268 113 511 212 770 290
c247 74 505 118 767 131
c251 12 511-3 775-46
c251-41 495-94 727-159
c142 68 284 130 423 185
c272 108 541 194 801 255
c282 66 561 105 829 114
c32 1 63 2 95 2
c185 0 378-20 586-59
c214-41 426-100 634-157
c229-64 466-129 713-172
c622-108 1224-82 1793 75
l-41 1038
-11863-702
l71-1170
c468-91 839-124 1177-107
Z
m-1389 1401
c14 15 33 25 54 26
l11942 707
c-11 77-48 146-107 199
-67 60-154 90-244 84
l-2930-204
c-216-15-429 59-589 203
l-61 55
-7511-543
c-165-11-329 34-464 128
l-1080 753
c-79 55-113 150-88 243
c25 93 104 157 199 164
l2761 207
-438 325
-4488-377
l2779-1701
c22-13 35-36 37-61
l97-1429
c62-14 123-28 182-40
l-74 1206
c-1 21 6 41 19 57
Z
m10911 1429
c38 3 68 25 82 61
s6 73-20 100
l-653 682
c-137 143-327 217-525 202
l-2607-190
c-56-4-75-48-80-62
-5-13-16-60 25-98
l992-896
l2786 201
Z
m-9415 1075
l386 32
c20 2 39-4 54-16
l460-355
c96-74 214-109 335-98
l3642 312
-502 568
c-125 142-312 216-500 197
l-4139-401
c-9 0-14-5-16-14
s0-15 7-20
l275-204
Z
m11031-1899
l-365-22
l42-1066
s0 0 0-1
c2-18 4-36 5-54
c0-7 0-14-3-20
l259-6598
c0-21-7-41-21-56
s-34-24-55-25
l-11876-307
s-1 0-2 0
c-41 0-75 32-78 73
l-369 6044
c-59 12-119 25-181 39
l420-6185
c13-197 176-348 372-348
h9
l11754 283
c100 2 193 44 262 117
s105 169 101 269
l-277 7856
Z" />
      </g>
    </g>
  </g>
</svg>
