<svg viewBox="0 0 339 145" fill="none" xmlns="http://www.w3.org/2000/svg"><path stroke="#69A6C2" stroke-width="150" stroke-linecap="round" stroke-linejoin="round" transform="scale(.01)" d="
m-692 13865
c5065 0 5067 0 2542-5
c2542-5 18-11 124-236
c124-236 227-460 129-491
c128-493 28-525-28-496
-28-498-84-470-49-280
-50-280-11-91-122-85
-122-86-231-81-320-142
-320-143-407-205-335-77
-334-78-259 53-269 152
-267 151-275 251-135 716
-136 715 4 1177 76 757
c74 757 145 333 285 150
c285 150 424-33 274-396
c273-395 122-761 20-674
c20-672-83-589-179-355
-180-356-277-122-251 117
-250 119-224 361-127 450
-127 450-28 541 72 470
c73 470 173 399 236 124
c235 125 301-150 156-396
c155-394 12-640-55-507
-54-508-122-378-165-163
-165-163-211 49-140 106
-140 105-73 160 8 144
c9 143 89 125 34-64
c33-64-21-257-297-1141
-297-1143-572-2028-285-1014
-190-676-45-498 100-321
c150-481 300-965 59-630
c60-630-183-296-294-144
-293-143-407 10-271 150
-270 150-135 288-124 411
-125 410-114 535-104 306
-104 307-92 79-65 140
-64 140-38 200 8 273
c9 274 56 350-23 311
-23 312-99 274-162 695
-160 696-222 1116-121 577
-120 579-17 39-123 103
-124 102-229 165-112 67
-112 68 5-30 97-410
c97-411 191-791 99-402
c98-403 5-11 64 8
c63 8 122 28 62-19
c63-20 3-70 101-443
c100-444 196-817 93-419
c92-417-11-17-20-173
-20-173-28-328-18-166
-18-167-9-5-143 567
-143 567-277 1140-144 585
-143 585-7 32 50 26
c51 26 109 22 46 23
c46 23-15 26-105 378
-106 377-196 731-107 374
-108 374-18 17-107 105
-107 106-196 193-101 145
-100 143-4 96 80 165
c79 165 160 234 105 104
c106 103 51-29 79-61
c79-61 106-93 39-123
c40-124-27-153-13-104
-13-104 0-54 117-93
c117-92 234-134 122-77
c122-79 10-23 18-126
c18-125 28-226 30-120
c30-121 33-14 80-2
c81-2 129 9 71 1
c71 0 11-6-23 100
-21 102-55 213-46 106
-46 105-36-1-104 4
-104 5-168 10-96 12
-96 11-21 15-74 89
-74 89-127 167-28 156
-28 157 71 147 176 217
c176 216 282 287 210 145
c209 145 137 4 277-89
c275-89 414-185 241-127
c239-128 66-73 62-249
c63-247 58-424-40-368
-39-366-139-311-84-228
-84-229-30-147-5-104
-6-103 18-61 25-29
c23-29 29 1 25 32
c23 31 18 61 17 56
c16 56 14 50 14 24
c15 24 15-2-2-46
-1-46-20-90 7-56
c6-56 31-21 32 43
c29 43 29 105 28 60
c28 57 26 12 7-36
c6-35-15-81 5-43
c5-41 25-3 18 48
c18 46 13 97 20 33
c20 35 25-30 13-45
c13-44 2-63 19 0
c20 0 37 61 75 335
c76 335 112 606 56 380
c56 379-1 150-114 250
-114 251-226 350-296 161
-297 162-368-25-252-41
-252-42-139-57-155-65
-156-64-175-71-152-97
-153-97-130-124-58-171
-58-170 13-218 43-135
c43-135 73-55 227-87
c228-87 381-121 219-120
c219-120 58-119 23-102
c21-103-13-87-8-64
-10-65-5-42 12-40
c11-41 26-38 68-74
c68-73 105-107 60-43
c59-43 11 20 35 89
c35 87 57 157-8 130
-8 131-74 102-137 160
-137 158-198 214-237 149
-236 150-275 84-201 100
-202 101-130 117-3 140
-3 139 122 161 39 99
c40 99-43 35-149 18
-148 18-254 0-191-41
-191-41-129-81-92-20
-93-20-56 40-1 69
-2 69 53 96 161 107
c162 107 272 117 165 17
c165 16 57-86-34-77
-35-78-125-74-129-34
-128-35-132 3-68-1
-66 0 0-7 73-161
c72-164 147-320 76-176
c76-175 6-31 25-198
c25-198 43-366 34-199
c35-198 28-31 138-9
c141-8 252 13 132-46
c132-46 11-107 231-693
c231-692 448-1278 340-1103
c340-1101 232-927 147-504
c145-505 59-84 254 366
c254 366 448 815 200 440
c199 440-51 64-54 40
-55 38-59 11-54-33
-56-33-53-79-157-283
-156-284-258-491-108-257
-109-259 39-27 40 14
c40 13 37 51 162 305
c162 305 283 557 157 266
c156 265 32-25 29-11
c30-12 30 0 193 365
c193 364 354 729 173 372
c173 373-8 18-71-49
-71-50-132-115-367-488
-368-487-605-857-361-453
-361-454-117-48-66-1
-66 0-15 44 462 617
c463 617 941 1185 478 653
c479 653 16 118-28 94
-28 94-69 68-258 79
-257 79-443 91-249 105
-249 106-56 122 137 120
c137 121 328 118 357 152
c358 152 386 186 305 153
c307 155 227 122 177 40
c178 38 127-46-35-220
-35-221-196-394-203-300
-204-300-211-204-142-201
-142-201-72-197-36-132
-37-131 0-70 74-639
c75-642 146-1213 93-641
c92-642 38-71 323-89
c323-90 610-111 332-61
c333-61 54-11 734 41
c733 41 1412 92 710 14
c711 13 13-68-26-137
-27-137-64-207-129-107
-128-108-193-10-630-19
-631-20-1070-33-594 0
-593 0-117 31-536 98
-536 95-956 162-487 105
-484 107-15 52-17 84
-16 82-17 114 96 26
c96 27 211-61 245-55
c246-54 283-46 136 14
c135 15-12 76-85 717
-86 717-160 1359-83 683
-82 682-2 5 258-16
c257-19 519-39 256-40
c255-39-10-38-1-660
-4-661 4-1282 13-647
c13-648 23-11 66-7
c66-6 107-4 56 66
c56 66 2 134 20 1086
c20 1087 34 2041 20 1040
c20 1040 1 43-118 17
-119 18-241-7-145-23
-145-21-48-38-127-351
-127-351-204-667-97-357
-98-358 12-51 143-32
c144-31 275-10 287-6
c287-7 297-2 140-85
c138-84-20-169-13-357
-15-358-8-549 3-284
c4-283 15-18 174-4
c175-5 333 10 203 129
c203 128 72 249 46 218
c45 218 18 184-81 122
-80 122-182 60-128-51
-129-52-77-163 97-175
c97-174 274-185 301-48
c302-48 328 88 112 171
c112 172-103 255-152 79
-152 78-201-99 17-91
c16-90 234-81 264-33
c264-31 293 16 173-7
c175-6 55-31-68-495
-68-495-191-959-100-498
-101-498-12-38-42-15
-43-15-76 7-41 36
-42 38-9 68 3 437
c3 437 15 802 3 411
c5 411-5 14-51 2
-49 0-94-12-46-39
-45-40 3-67 2-591
c0-590-3-1116-28-635
-28-634-53-155-125-129
-126-129-198-103-99-124
-97-124 2-143 54-58
c53-58 104 28 51 55
c51 54-2 81-36 30
-36 29-69-19-30-28
-30-28 12-35 34-30
c37-29 61-27 90 28
c93 27 122 80 105 94
c106 96 90 109 53 244
c55 244 16 376 48 189
c48 190 76 5 247 15
c247 16 416 28 209 22
c209 23 2 16 117 610
c119 610 234 1204 132 611
c132 612 29 20 86 5
c87 6 144-8 48-94
c46-94-50-179-122-574
-122-574-192-969-144-459
-142-458-92 54-49 55
-50 54-7 56 40 32
c40 31 85 5 66-36
c65-35 44-76 73-18
c72-18 104 38 183 61
c185 59 264 83 128 69
c129 71-7 57-8 141
-8 138-10 219-4 183
-3 183 3 145-52 80
-53 79-107 11-89-62
-89-65-71-138-17-190
-16-189 38-238 47-137
c48-135 60-33 66 41
c67 40 75 114-22 79
-21 79-119 46-26-53
-27-52 64-152-26-107
-26-107-117-61-131-38
-130-38-143-17-126 17
-125 16-104 48-67 53
-66 53-27 59 98 528
c97 527 222 998 86 489
c86 492-51-17-226-86
-226-85-401-157-338-59
-339-61-277 36-186 63
-187 62-90 91-217 38
-215 39-342-13-189 46
-190 46-39 101 47 140
c48 140 134 180 189 119
c190 117 246 56 306 51
c307 49 366 45 267 160
c269 160 168 273 199 111
c198 109 228-56 503-2
c501-3 778 51 391-36
c392-38 7-126-292-270
-290-270-589-416-348-231
-348-231-107-46-41 15
-43 15 23 74 142 111
c142 110 260 145 172 38
c171 38 81-73 127-11
c127-13 171 46 454 363
c455 362 737 680 377 344
c378 346 18 14-46 34
-46 35-111 58-105-19
-106-18-97-89-221-170
-223-169-346-251-171-124
-116-83-50 12 16 109
c23 163 48 325 6 178
c7 178-33 28-366 24
-366 23-701 14-382-26
-383-28-64-69-84-178
-84-178-104-287-10-163
-10-164 86-41 52 15
c51 16 19 75-76 49
-78 50-170 28-85 33
-84 33 0 39 72 114
c71 114 142 186 66 112
c64 112-11 36-38 32
-38 29-66 25-106-44
-105-43-145-111-327-275
-324-275-505-439-264-259
-264-259-21-75 17-47
c16-46 56-16 172 62
c171 63 285 142 309 259
c308 259 329 375 172 226
c170 226 11 74-84 66
-82 66-177 56-260 48
-262 50-348 41-254-12
-254-10-161-62-390-417
-390-418-619-773-319-362
-320-363-20 49-7 414
-5 414 9 778 15 393
c14 392 20 6 401 164
c400 163 780 321 398 131
c397 132 13-60 7-112
c6-112 0-167-158-112
-158-113-317-60-399-115
-399-116-483-169-274-86
-275-86-66 0-33 158
-33 159 4 315-28 158
-27 157-56-2-250-35
-251-36-445-69-210-76
-209-76 26-79 43-40
c43-39 58 0 694 179
c694 180 1330 360 667 179
c444 120 224 148 4 176
c8 264 15 529 12 303
c11 304 9 79 113 366
c114 366 219 653 126 311
c125 310 33-31 293-205
c296-204 557-376 264-211
c263-209-29-45-70-165
-69-165-112-285-81-150
-82-148-51-12-226-110
-224-109-398-208-202-133
-203-134-8-63-28-333
-28-334-47-607-33-303
-31-304-18 0-81 18
-81 20-142 38-72 45
-71 44 0 53 36 341
c37 342 72 629 5 322
c5 321-61 10-110 5
-111 5-158-3-79-2
-53 0-17 97 19 195
c28 292 54 585-137 505
-138 504-330 427-424 200
-422 199-514-26-391-134
-391-133-270-241-153-424
-154-425-38-609-54-311
-54-312-75-16-105-7
-107-8-142 0-71 20
-71 19-3 40 77 26
c78 27 156 13 104-2
c104 0 51-16 70-226
c69-226 87-434 130-336
c131-336 171-236 219-106
c221-103 267 28 236 316
c236 317 201 603 43 579
c43 579-117 554-175 339
-175 340-234 125-219-46
-219-45-205-216-135-394
-134-394-64-573 45-389
c44-390 153-202 195-68
c195-66 235 69 154 276
c153 275 73 483-24 310
-21 310-115 138-142-29
-142-30-171-196-81-232
-81-233 8-265 0-362
c0-361-6-453 19-237
c19-239 42-23 170-28
c170-29 295-31 322 64
c321 65 350 160 221 196
c222 196 94 234 79 117
c79 117 63 0 175-15
c175-14 285-28 143-19
c144-18 0-8-40-290
-39-290-80-574-13-287
-15-287 51 0 1582-79
c1582-79 3115-160 1582-64
c1583-65 50 32 62 278
c63 279 77 528 50 324
c49 325 23 122 223 206
c223 206 423 292 218 127
c218 125 9-39 27-31
c26-30 43-22 76 160
c76 160 109 340-7 170
-8 169-124 0-1569 58
-1570 58-3017 117-1514 46
-1513 46-10-26-68-172
-67-171-124-317-51-163
-51-163 23-10 818-53
c817-52 1615-93 847-29
c849-30 82 36 188 132
c187 132 288 228 330 138
c328 138 368 48 194 25
c195 25 20 0-53-172
-53-171-124-343 30-506
c30-508 181-671 134-363
c133-361 84-51 27 51
c26 51-30 152-70 262
-70 262-109 373-42 328
-42 326 25 282 84 258
c84 257 142 234 434 119
c433 118 726 5 338 36
c338 37-51 66-363 196
-363 196-674 328-457 160
-457 160-239-8-1451 51
-1452 51-2666 109-1354 56
-1353 56-40 2 0 16
c0 17 42 29 39 17
c41 15 40 0 2903 0
h14436 "/></svg>