<svg viewBox="0 0 339 145" fill="none" xmlns="http://www.w3.org/2000/svg"><path stroke="#69A6C2" stroke-width="150" stroke-linecap="round" stroke-linejoin="round" transform="scale(.01)" d="
M-692 13865
C4373 13865 9440 13865 11982 13860
C14524 13855 14542 13844 14666 13608
C14790 13372 15017 12912 15146 12421
C15274 11928 15302 11403 15274 10907
C15246 10409 15162 9939 15113 9659
C15063 9379 15052 9288 14930 9203
C14808 9117 14577 9036 14257 8894
C13937 8751 13530 8546 13195 8469
C12861 8391 12602 8444 12333 8596
C12066 8747 11791 8998 11656 9714
C11520 10429 11524 11606 11600 12363
C11674 13120 11819 13453 12104 13603
C12389 13753 12813 13720 13087 13324
C13360 12929 13482 12168 13502 11494
C13522 10822 13439 10233 13260 9878
C13080 9522 12803 9400 12552 9517
C12302 9636 12078 9997 11951 10447
C11824 10897 11796 11438 11868 11908
C11941 12378 12114 12777 12350 12901
C12585 13026 12886 12876 13042 12480
C13197 12086 13209 11446 13154 10939
C13100 10431 12978 10053 12813 9890
C12648 9727 12437 9776 12297 9882
C12157 9987 12084 10147 12092 10291
C12101 10434 12190 10559 12224 10495
C12257 10431 12236 10174 11939 9033
C11642 7890 11070 5862 10785 4848
C10595 4172 10550 3674 10650 3353
C10800 2872 11100 1907 11159 1277
C11219 647 11036 351 10742 207
C10449 64 10042 74 9771 224
C9501 374 9366 662 9242 1073
C9117 1483 9003 2018 8899 2324
C8795 2631 8703 2710 8638 2850
C8574 2990 8536 3190 8544 3463
C8553 3737 8609 4087 8586 4398
C8563 4710 8464 4984 8302 5679
C8142 6375 7920 7491 7799 8068
C7679 8647 7662 8686 7539 8789
C7415 8891 7186 9056 7074 9123
C6962 9191 6967 9161 7064 8751
C7161 8340 7352 7549 7451 7147
C7549 6744 7554 6733 7618 6741
C7681 6749 7803 6777 7865 6758
C7928 6738 7931 6668 8032 6225
C8132 5781 8328 4964 8421 4545
C8513 4128 8502 4111 8482 3938
C8462 3765 8434 3437 8416 3271
C8398 3104 8389 3099 8246 3666
C8103 4233 7826 5373 7682 5958
C7539 6543 7532 6575 7582 6601
C7633 6627 7742 6649 7788 6672
C7834 6695 7819 6721 7714 7099
C7608 7476 7412 8207 7305 8581
C7197 8955 7179 8972 7072 9077
C6965 9183 6769 9376 6668 9521
C6568 9664 6564 9760 6644 9925
C6723 10090 6883 10324 6988 10428
C7094 10531 7145 10502 7224 10441
C7303 10380 7409 10287 7448 10164
C7488 10040 7461 9887 7448 9783
C7435 9679 7435 9625 7552 9532
C7669 9440 7903 9306 8025 9229
C8147 9150 8157 9127 8175 9001
C8193 8876 8221 8650 8251 8530
C8281 8409 8314 8395 8394 8393
C8475 8391 8604 8400 8675 8401
C8746 8401 8757 8395 8734 8495
C8713 8597 8658 8810 8612 8916
C8566 9021 8530 9020 8426 9024
C8322 9029 8154 9039 8058 9051
C7962 9062 7941 9077 7867 9166
C7793 9255 7666 9422 7638 9578
C7610 9735 7681 9882 7857 10099
C8033 10315 8315 10602 8525 10747
C8734 10892 8871 10896 9148 10807
C9423 10718 9837 10533 10078 10406
C10317 10278 10383 10205 10445 9956
C10508 9709 10566 9285 10526 8917
C10487 8551 10348 8240 10264 8012
C10180 7783 10150 7636 10145 7532
C10139 7429 10157 7368 10182 7339
C10205 7310 10234 7311 10259 7343
C10282 7374 10300 7435 10317 7491
C10333 7547 10347 7597 10361 7621
C10376 7645 10391 7643 10389 7597
C10388 7551 10368 7461 10375 7405
C10381 7349 10412 7328 10444 7371
C10473 7414 10502 7519 10530 7579
C10558 7636 10584 7648 10591 7612
C10597 7577 10582 7496 10587 7453
C10592 7412 10617 7409 10635 7457
C10653 7503 10666 7600 10686 7633
C10706 7668 10731 7638 10744 7593
C10757 7549 10759 7486 10778 7486
C10798 7486 10835 7547 10910 7882
C10986 8217 11098 8823 11154 9203
C11210 9582 11209 9732 11095 9982
C10981 10233 10755 10583 10459 10744
C10162 10906 9794 10881 9542 10840
C9290 10798 9151 10741 8996 10676
C8840 10612 8665 10541 8513 10444
C8360 10347 8230 10223 8172 10052
C8114 9882 8127 9664 8170 9529
C8213 9394 8286 9339 8513 9252
C8741 9165 9122 9044 9341 8924
C9560 8804 9618 8685 9641 8583
C9662 8480 9649 8393 9641 8329
C9631 8264 9626 8222 9638 8182
C9649 8141 9675 8103 9743 8029
C9811 7956 9916 7849 9976 7806
C10035 7763 10046 7783 10081 7872
C10116 7959 10173 8116 10165 8246
C10157 8377 10083 8479 9946 8639
C9809 8797 9611 9011 9374 9160
C9138 9310 8863 9394 8662 9494
C8460 9595 8330 9712 8327 9852
C8324 9991 8446 10152 8485 10251
C8525 10350 8482 10385 8333 10403
C8185 10421 7931 10421 7740 10380
C7549 10339 7420 10258 7328 10238
C7235 10218 7179 10258 7178 10327
C7176 10396 7229 10492 7390 10599
C7552 10706 7824 10823 7989 10840
C8154 10856 8211 10770 8177 10693
C8142 10615 8017 10541 7888 10507
C7760 10472 7628 10475 7560 10474
C7494 10474 7494 10467 7567 10306
C7639 10142 7786 9822 7862 9646
C7938 9471 7944 9440 7969 9242
C7994 9044 8037 8678 8071 8479
C8106 8281 8134 8250 8272 8241
C8413 8233 8665 8246 8797 8200
C8929 8154 8940 8047 9171 7354
C9402 6662 9850 5384 10190 4281
C10530 3180 10762 2253 10909 1749
C11054 1244 11113 1160 11367 1526
C11621 1892 12069 2707 12269 3147
C12468 3587 12417 3651 12363 3691
C12308 3729 12249 3740 12195 3707
C12139 3674 12086 3595 11929 3312
C11773 3028 11515 2537 11407 2280
C11298 2021 11337 1994 11377 2008
C11417 2021 11454 2072 11616 2377
C11778 2682 12061 3239 12218 3505
C12374 3770 12406 3745 12435 3734
C12465 3722 12495 3722 12688 4087
C12881 4451 13235 5180 13408 5552
C13581 5925 13573 5943 13502 5894
C13431 5844 13299 5729 12932 5241
C12564 4754 11959 3897 11598 3444
C11237 2990 11120 2942 11054 2941
C10988 2941 10973 2985 11435 3602
C11898 4219 12839 5404 13317 6057
C13796 6710 13812 6828 13784 6922
C13756 7016 13687 7084 13429 7163
C13172 7242 12729 7333 12480 7438
C12231 7544 12175 7666 12312 7786
C12449 7907 12777 8025 13134 8177
C13492 8329 13878 8515 14183 8668
C14490 8823 14717 8945 14894 8985
C15072 9023 15199 8977 15164 8757
C15129 8536 14933 8142 14730 7842
C14526 7542 14315 7338 14173 7137
C14031 6936 13959 6739 13923 6607
C13886 6476 13886 6406 13960 5767
C14035 5125 14181 3912 14274 3271
C14366 2629 14404 2558 14727 2469
C15050 2379 15660 2268 15992 2207
C16325 2146 16379 2135 17113 2176
C17846 2217 19258 2309 19968 2323
C20679 2336 20692 2268 20666 2131
C20639 1994 20575 1787 20446 1680
C20318 1572 20125 1562 19495 1543
C18864 1523 17794 1490 17200 1490
C16607 1490 16490 1521 15954 1619
C15418 1714 14462 1876 13975 1981
C13491 2088 13476 2140 13459 2224
C13443 2306 13426 2420 13522 2446
C13618 2473 13829 2412 14074 2357
C14320 2303 14603 2257 14739 2271
C14874 2286 14862 2362 14777 3079
C14691 3796 14531 5155 14448 5838
C14366 6520 14364 6525 14622 6509
C14879 6490 15398 6451 15654 6411
C15909 6372 15899 6334 15898 5674
C15894 5013 15898 3731 15911 3084
C15924 2436 15947 2425 16013 2418
C16079 2412 16186 2408 16242 2474
C16298 2540 16300 2674 16320 3760
C16340 4847 16374 6888 16394 7928
C16414 8968 16415 9011 16297 9028
C16178 9046 15937 9039 15792 9016
C15647 8995 15599 8957 15472 8606
C15345 8255 15141 7588 15044 7231
C14946 6873 14958 6822 15101 6790
C15245 6759 15520 6749 15807 6743
C16094 6736 16391 6734 16531 6649
C16669 6565 16649 6396 16636 6039
C16621 5681 16613 5132 16616 4848
C16620 4565 16635 4547 16809 4543
C16984 4538 17317 4548 17520 4677
C17723 4805 17795 5054 17841 5272
C17886 5490 17904 5674 17823 5796
C17743 5918 17561 5978 17433 5927
C17304 5875 17227 5712 17324 5537
C17421 5363 17695 5178 17996 5130
C18298 5082 18626 5170 18738 5341
C18850 5513 18747 5768 18595 5847
C18443 5925 18242 5826 18259 5735
C18275 5645 18509 5564 18773 5531
C19037 5500 19330 5516 19503 5509
C19678 5503 19733 5472 19665 4977
C19597 4482 19406 3523 19306 3025
C19205 2527 19193 2489 19151 2474
C19108 2459 19032 2466 18991 2502
C18949 2540 18940 2608 18943 3045
C18946 3482 18961 4284 18964 4695
C18969 5106 18964 5120 18913 5122
C18864 5122 18770 5110 18724 5071
C18679 5031 18682 4964 18684 4373
C18684 3783 18681 2667 18653 2032
C18625 1398 18572 1243 18447 1114
C18321 985 18123 882 18024 758
C17927 634 17929 491 17983 433
C18036 375 18140 403 18191 458
C18242 512 18240 593 18204 623
C18168 652 18099 633 18069 605
C18039 577 18051 542 18085 512
C18122 483 18183 456 18273 484
C18366 511 18488 591 18593 685
C18699 781 18789 890 18842 1134
C18897 1378 18913 1754 18961 1943
C19009 2133 19085 2138 19332 2153
C19579 2169 19995 2197 20204 2219
C20413 2242 20415 2258 20532 2868
C20651 3478 20885 4682 21017 5293
C21149 5905 21178 5925 21264 5930
C21351 5936 21495 5928 21543 5834
C21589 5740 21539 5561 21417 4987
C21295 4413 21103 3444 20959 2985
C20817 2527 20725 2581 20676 2636
C20626 2690 20619 2746 20659 2778
C20699 2809 20784 2814 20850 2778
C20915 2743 20959 2667 21032 2649
C21104 2631 21208 2669 21391 2730
C21576 2789 21840 2872 21968 2941
C22097 3012 22090 3069 22082 3210
C22074 3348 22064 3567 22060 3750
C22057 3933 22060 4078 22008 4158
C21955 4237 21848 4248 21759 4186
C21670 4121 21599 3983 21582 3793
C21566 3604 21604 3366 21651 3229
C21699 3094 21759 3061 21825 3102
C21892 3142 21967 3256 21945 3335
C21924 3414 21805 3460 21779 3407
C21752 3355 21816 3203 21790 3096
C21764 2989 21647 2928 21516 2890
C21386 2852 21243 2835 21117 2852
C20992 2868 20888 2916 20821 2969
C20755 3022 20728 3081 20826 3609
C20923 4136 21145 5134 21231 5623
C21317 6115 21266 6098 21040 6012
C20814 5927 20413 5770 20075 5711
C19736 5650 19459 5686 19273 5749
C19086 5811 18996 5902 18779 5940
C18564 5979 18222 5966 18033 6012
C17843 6058 17804 6159 17851 6299
C17899 6439 18033 6619 18222 6738
C18412 6855 18658 6911 18964 6962
C19271 7011 19637 7056 19904 7216
C20173 7376 20341 7649 20540 7760
C20738 7869 20966 7813 21469 7811
C21970 7808 22748 7859 23139 7823
C23531 7785 23538 7659 23246 7389
C22956 7119 22367 6703 22019 6472
C21671 6241 21564 6195 21523 6210
C21480 6225 21503 6299 21645 6410
C21787 6520 22047 6665 22219 6703
C22390 6741 22471 6668 22598 6657
C22725 6644 22896 6690 23350 7053
C23805 7415 24542 8095 24919 8439
C25297 8785 25315 8799 25269 8833
C25223 8868 25112 8926 25007 8907
C24901 8889 24804 8800 24583 8630
C24360 8461 24014 8210 23843 8086
C23727 8003 23677 8015 23693 8124
C23716 8287 23764 8612 23770 8790
C23777 8968 23744 8996 23378 9020
C23012 9043 22311 9057 21929 9031
C21546 9003 21482 8934 21398 8756
C21314 8578 21210 8291 21200 8128
C21190 7964 21276 7923 21328 7938
C21379 7954 21398 8029 21322 8078
C21244 8128 21074 8156 20989 8189
C20905 8222 20905 8261 20977 8375
C21048 8489 21190 8675 21256 8787
C21320 8899 21309 8935 21271 8967
C21233 8996 21167 9021 21061 8977
C20956 8934 20811 8823 20484 8548
C20160 8273 19655 7834 19391 7575
C19127 7316 19106 7241 19123 7194
C19139 7148 19195 7132 19367 7194
C19538 7257 19823 7399 20132 7658
C20440 7917 20769 8292 20941 8518
C21111 8744 21122 8818 21038 8884
C20956 8950 20779 9006 20519 9054
C20257 9104 19909 9145 19655 9133
C19401 9123 19240 9061 18850 8644
C18460 8226 17841 7453 17522 7091
C17202 6728 17182 6777 17175 7191
C17170 7605 17179 8383 17194 8776
C17208 9168 17228 9174 17629 9338
C18029 9501 18809 9822 19207 9953
C19604 10085 19617 10025 19624 9913
C19630 9801 19630 9634 19472 9522
C19314 9409 18997 9349 18598 9234
C18199 9118 17716 8949 17442 8863
C17167 8777 17101 8777 17068 8935
C17035 9094 17039 9409 17011 9567
C16984 9724 16928 9722 16678 9687
C16427 9651 15982 9582 15772 9506
C15563 9430 15589 9351 15632 9311
C15675 9272 15733 9272 16427 9451
C17121 9631 18451 9991 19118 10170
C19562 10290 19786 10438 19790 10614
C19798 10878 19813 11407 19825 11710
C19836 12014 19845 12093 19958 12459
C20072 12825 20291 13478 20417 13789
C20542 14099 20575 14068 20868 13863
C21164 13659 21721 13283 21985 13072
C22248 12863 22219 12818 22149 12653
C22080 12488 21968 12203 21887 12053
C21805 11905 21754 11893 21528 11783
C21304 11674 20906 11466 20704 11333
C20501 11199 20493 11136 20465 10803
C20437 10469 20390 9862 20357 9559
C20326 9255 20308 9255 20227 9273
C20146 9293 20004 9331 19932 9376
C19861 9420 19861 9473 19897 9814
C19934 10156 20006 10785 20011 11107
C20016 11428 19955 11438 19845 11443
C19734 11448 19576 11445 19497 11443
C19444 11443 19427 11540 19446 11735
C19474 12027 19528 12612 19391 13117
C19253 13621 18923 14048 18499 14248
C18077 14447 17563 14421 17172 14287
C16781 14154 16511 13913 16358 13489
C16204 13064 16166 12455 16112 12144
C16058 11832 15983 11816 15878 11809
C15771 11801 15629 11801 15558 11821
C15487 11840 15484 11880 15561 11906
C15639 11933 15795 11946 15899 11944
C16003 11944 16054 11928 16124 11702
C16193 11476 16280 11042 16410 10706
C16541 10370 16712 10134 16931 10028
C17152 9925 17419 9953 17655 10269
C17891 10586 18092 11189 18135 11768
C18178 12347 18061 12901 17886 13240
C17711 13580 17477 13705 17258 13659
C17039 13614 16834 13398 16699 13004
C16565 12610 16501 12037 16546 11648
C16590 11258 16743 11056 16938 10988
C17133 10922 17368 10991 17522 11267
C17675 11542 17748 12025 17724 12335
C17703 12645 17588 12783 17446 12754
C17304 12724 17133 12528 17052 12296
C16971 12063 16979 11798 16979 11436
C16979 11075 16973 10622 16992 10385
C17011 10146 17053 10123 17223 10095
C17393 10066 17688 10035 18010 10099
C18331 10164 18681 10324 18902 10520
C19124 10716 19218 10950 19297 11067
C19376 11184 19439 11184 19614 11169
C19789 11155 20074 11127 20217 11108
C20361 11090 20361 11082 20321 10792
C20282 10502 20202 9928 20189 9641
C20174 9354 20225 9354 21807 9275
C23389 9196 26504 9036 28086 8972
C29669 8907 29719 8939 29781 9217
C29844 9496 29921 10024 29971 10348
C30020 10673 30043 10795 30266 11001
C30489 11207 30912 11499 31130 11626
C31348 11751 31357 11712 31384 11681
C31410 11651 31453 11629 31529 11789
C31605 11949 31714 12289 31707 12459
C31699 12628 31575 12628 30006 12686
C28436 12744 25419 12861 23905 12907
C22392 12953 22382 12927 22314 12755
C22247 12584 22123 12267 22072 12104
C22021 11941 22044 11931 22862 11878
C23679 11826 25294 11733 26141 11704
C26990 11674 27072 11710 27260 11842
C27447 11974 27735 12202 28065 12340
C28393 12478 28761 12526 28955 12551
C29150 12576 29170 12576 29117 12404
C29064 12233 28940 11890 28970 11384
C29000 10876 29181 10205 29315 9842
C29448 9481 29532 9430 29559 9481
C29585 9532 29555 9684 29485 9946
C29415 10208 29306 10581 29264 10909
C29222 11235 29247 11517 29331 11775
C29415 12032 29557 12266 29991 12385
C30424 12503 31150 12508 31488 12544
C31826 12581 31775 12647 31412 12843
C31049 13039 30375 13367 29918 13527
C29461 13687 29222 13679 27771 13730
C26319 13781 23653 13890 22299 13946
C20946 14002 20906 14004 20906 14020
C20906 14037 20948 14066 20987 14083
C21028 14098 21068 14098 23971 14098
H38407"/></svg>