<svg viewBox="0 0 364 231" fill="none" xmlns="http://www.w3.org/2000/svg">
  <g transform="scale(.01)">
    <g stroke-width="100">
      <path stroke="#EDEDEF" d="m50 16275h36300M50 10475h36300M50 13375h36300" />
      <path stroke="#D4D4D7" d="m12100 7275v3800m11950-3800v8000" />
      <path stroke="#3B3A48" d="m50 19175h36300" />
    </g>
    <g fill="#046B99">
      <path d="m4436 21088c-54 0-104-10-151-31-47-21-85-50-115-88-29-38-46-82-50-133h167c7 34 23 61 48 82c25 21 56 32 94 32c41 0 78-10 109-30c32-19 55-51 71-93c16-43 21-99 17-168-12 21-27 39-47 55-20 16-43 28-69 37-27 8-56 13-88 13-59 0-111-11-157-33-45-23-81-54-107-95-25-41-38-90-38-147c0-56 13-107 41-151c27-45 65-80 114-105c48-25 106-38 171-38c74 0 137 18 190 53c54 35 95 85 123 149c29 64 44 139 44 226c0 104-15 190-45 259-29 69-71 121-126 155-55 34-120 51-196 51zm16-464c24 0 48-5 70-16c24-11 43-25 57-42c15-17 23-34 23-52c0-39-6-72-19-100-12-28-30-49-53-64-22-15-48-22-78-22-28 0-53 6-74 19-22 13-39 31-51 54-13 23-19 50-19 81c0 45 13 80 40 105c26 25 61 37 104 37zm663 463c-39 0-75-7-107-22-32-15-57-36-75-64-18-29-28-63-28-104c0-68 26-119 77-154c50-36 131-54 240-56l78-1v-37c0-28-8-50-25-65-16-16-42-24-77-23-26 0-50 6-73 18-23 11-39 32-47 60h-146c2-44 15-81 39-110c24-29 56-51 96-65c41-14 87-21 139-21c63 0 114 8 152 24c39 15 67 38 84 67c17 30 26 64 26 105v436h-146l-15-107c-21 45-47 76-79 93-32 17-70 26-113 26zm59-115c16 0 31-3 46-9c15-6 29-13 41-23c12-10 21-21 28-34c7-12 11-25 11-38v-92l-63 1c-29 1-56 4-81 11-26 7-46 17-62 32-15 15-22 35-22 60c0 29 9 51 29 68c20 16 44 24 73 24zm-1430 1815c-82 0-153-18-213-53-60-36-106-87-139-153-32-67-48-146-48-238c0-92 16-172 49-239c33-67 80-118 140-154c60-36 130-55 211-55c80 0 150 18 210 54c59 36 105 88 138 155c33 66 49 146 49 239c0 92-16 171-49 237-32 66-77 118-137 154-60 35-130 53-211 53zm0-144c42 0 79-10 110-30c31-20 55-52 72-96c16-44 25-101 25-172c0-72-9-131-26-175-17-45-41-78-72-99-31-21-67-32-109-32-42 0-79 11-110 32-31 21-55 54-73 99-17 45-25 103-25 175c0 71 8 128 25 172c18 44 42 76 73 96c31 20 68 30 110 30zm513 325v-813h176l1 89c9-15 20-28 33-40c14-13 29-23 45-33c17-9 35-16 54-21c19-5 39-7 60-7c46 0 87 11 123 34c36 22 65 57 85 104c21 47 31 107 31 179c0 75-11 137-33 185-22 48-53 84-92 107-38 23-82 35-131 35-20 0-39-3-56-8-18-6-34-13-50-23-14-9-28-20-40-33-11-12-22-26-30-41v286h-176zm310-309c38 0 70-16 95-48c26-31 39-81 39-150c0-60-12-107-37-140-24-34-57-51-97-51-45 0-79 18-101 55-22 36-33 82-33 136c0 35 4 67 14 97c10 30 25 55 44 73c20 18 46 28 76 28zm704 128c-61 0-115-13-162-38-47-26-83-63-109-110-26-47-39-103-39-167c0-62 12-118 36-167c24-50 58-90 103-119c45-29 99-43 162-43c64 0 117 13 159 40c43 26 76 63 98 111c22 47 33 102 33 164v47h-417c0 32 5 59 15 83c11 23 26 41 45 54c20 12 44 18 72 18c30 0 56-6 79-19c22-13 38-34 47-63h158c-7 44-25 82-53 113-28 31-62 55-102 71-40 17-81 25-125 25zm-136-386h253c0-25-5-48-15-69-9-21-23-37-42-49-18-12-41-18-69-18-27 0-50 7-69 20-19 13-34 29-44 50-10 21-15 43-14 66zm543 374v-620h172v87c10-15 22-30 37-44c16-14 35-26 59-35c24-9 52-14 84-14c38 0 73 8 106 22c33 15 60 39 81 71c20 31 30 73 30 124v409h-175v-388c0-33-10-58-30-75-20-17-44-25-73-25-19 0-38 3-56 10-18 7-32 17-43 30-11 14-17 31-17 51v397h-175zm21691 37c-81 0-151-19-209-56-59-38-105-91-137-159-31-68-47-147-47-238c0-91 16-169 47-235c32-65 77-116 136-151c59-35 129-53 210-53c65 0 123 14 174 40c51 26 92 62 124 107c31 45 50 96 55 153h-183c-6-30-16-57-31-80-15-24-34-42-58-55-24-14-53-21-86-21-41 0-76 10-105 30-29 19-51 51-67 95-16 43-23 101-23 172c0 108 17 187 51 235c35 48 83 72 144 72c33 0 62-8 86-23c24-15 43-36 58-61c15-26 25-54 31-84h183c-5 41-15 81-30 118-14 37-35 71-63 100-27 29-62 52-105 69-42 17-94 25-155 25zm684-1c-46 0-82-6-109-16-27-11-46-25-59-43-13-18-21-38-25-59-3-22-5-45-5-67v-718h171v696c0 23 5 42 15 56c10 14 28 23 55 26l30 2v108c-12 4-24 7-37 10-12 3-24 5-36 5zm431 1c-61 0-114-13-159-39-45-26-80-63-104-110-25-48-37-104-37-170c0-65 12-122 37-171c24-48 59-86 104-114c45-27 98-40 160-40c61 0 114 13 159 40c44 26 79 64 103 113c25 48 37 106 37 172c0 63-12 118-36 166-24 48-58 85-103 112-44 27-98 41-161 41zm1-130c30 0 55-9 74-27c19-18 32-42 41-71c8-30 12-62 12-97c0-32-3-63-11-93-8-29-21-52-40-70-18-18-44-27-76-27-31 0-56 8-75 25-19 17-33 40-42 69-9 29-13 61-13 96c0 33 4 64 12 94c8 30 21 54 40 73c19 18 45 28 78 28zm667 130c-43 0-85-7-125-21-39-14-73-37-101-67-28-31-45-71-52-120h151c5 22 15 40 29 53c14 12 29 22 47 27c18 5 34 8 50 8c34 0 61-5 81-16c21-10 32-27 32-49c0-17-7-30-19-40-12-10-32-18-60-23l-109-23c-55-11-99-31-133-58-33-28-50-68-50-119-1-37 9-71 28-100c21-30 50-53 89-71c39-17 87-25 143-25c77 0 138 16 183 50c46 34 70 81 70 142h-146c-4-24-16-42-36-55-19-13-44-20-73-20-30 0-55 6-75 16-19 11-29 28-29 50c0 16 8 29 24 39c16 9 41 17 74 24l101 22c35 9 63 20 85 35c22 15 39 30 51 48c12 17 20 34 24 52c5 17 8 33 8 47c0 41-11 76-33 105-22 29-53 51-92 66-39 15-85 23-137 23zm668 0c-61 0-116-13-162-38-47-26-83-63-109-110-26-47-39-103-39-167c0-62 12-118 35-167c24-50 59-90 104-119c44-29 99-43 162-43c63 0 116 13 159 40c43 26 75 63 97 111c22 47 33 102 33 164v47h-417c0 32 6 59 16 83c10 23 25 41 45 54c20 12 44 18 72 18c30 0 56-6 79-19c22-13 38-34 47-63h158c-7 44-25 82-53 113-28 31-62 55-102 71-40 17-82 25-125 25zm-137-386h254c0-25-5-48-15-69-9-21-23-37-42-49-18-12-41-18-69-18-27 0-50 7-69 20-19 13-34 29-44 50-10 21-15 43-15 66zm778 386c-83 0-148-29-194-86-47-57-70-137-70-240c0-65 10-121 28-168c19-48 47-85 84-111c37-26 82-39 135-39c22 0 43 2 62 7c20 5 38 12 54 21c16 9 30 19 42 30c12 12 21 24 29 38v-356h176v892h-127l-20-127c-6 17-14 34-24 50-10 17-22 32-38 45-16 13-35 24-58 32-22 8-48 12-79 12zm39-126c44 0 76-15 98-46c22-31 33-83 33-156c0-43-5-78-15-106-10-28-24-49-43-62-19-14-43-21-72-21-38 0-70 14-95 44-25 28-38 77-38 145c0 69 12 120 36 153c23 33 55 49 96 49zm-2078-1586c3-35 11-80 24-133c13-54 31-114 55-179c25-66 56-134 94-204c37-70 82-140 134-208h-465v-144h648v144c-28 34-55 75-83 122-28 46-55 96-80 150-25 53-48 107-69 161-20 54-36 107-49 157-12 50-19 94-20 134h-189zm612 193v-813h176v89c9-15 21-28 34-40c13-13 28-23 45-33c16-9 34-16 53-21c19-5 40-7 61-7c46 0 87 11 123 34c36 22 64 57 84 104c21 47 32 107 32 179c0 75-12 137-34 185-22 48-52 84-91 107-39 23-83 35-132 35-20 0-38-3-56-8-18-6-34-13-49-23-15-9-28-20-40-33-12-12-22-26-31-41v286h-175zm309-309c38 0 70-16 96-48c26-31 39-81 39-150c0-60-13-107-37-140-25-34-57-51-98-51-45 0-79 18-101 55-22 36-33 82-33 136c0 35 5 67 14 97c10 30 25 55 45 73c20 18 45 28 75 28z" />
      <path d="m2491 2675v-758h-181v-116c58 0 105-5 140-16c36-11 63-27 81-47c17-21 28-46 31-75h136v1012h-207zm437 0v-153c0-51 9-95 29-133c19-37 44-70 75-98c32-28 66-52 104-73c38-21 75-41 113-60c38-18 73-37 104-56c32-19 57-40 76-63c19-24 29-51 29-83c0-40-14-74-43-99-28-26-66-39-115-39-51 0-94 15-130 44-35 30-57 74-66 133h-195c1-64 16-122 45-175c29-52 73-94 131-125c59-31 132-46 220-46c76 0 141 13 196 38c55 26 97 62 127 107c30 46 45 100 45 161c0 51-10 94-28 131-19 37-44 69-74 95-31 26-65 49-102 68-37 20-74 38-111 55-36 17-70 34-100 52-31 17-56 37-75 59-18 22-28 48-28 79v9h516v172h-743zm897 225v-949h205l1 105c11-18 24-33 39-47c16-15 33-27 53-38c19-11 39-19 62-25c22-6 46-9 71-9c53 0 101 14 143 40c42 26 75 67 99 122c24 55 36 124 36 209c0 87-13 159-39 216-26 56-61 97-106 124-46 27-97 41-154 41-23 0-45-3-66-10-20-6-39-14-57-26-17-11-33-24-47-38-13-15-25-31-36-49v334h-204zm361-361c45 0 82-18 112-55c30-37 45-95 45-175c0-70-14-125-43-164-29-40-67-59-114-59-53 0-92 21-118 64-26 42-39 95-39 159c0 41 6 78 17 113c12 35 29 64 52 85c23 21 53 32 88 32zm489 136v-724h201v102c22-31 51-59 88-81c37-23 84-35 140-35c25 0 50 5 76 14c26 8 50 21 72 39c23 17 41 38 55 63c24-33 54-60 92-82c38-23 81-34 128-34c27 0 54 5 81 14c28 8 54 23 77 43c24 20 42 47 56 80c15 34 22 75 22 124v477h-204v-452c0-29-6-52-18-69-11-18-25-31-43-38-17-8-36-12-55-12-19 0-37 4-56 11-18 7-34 18-47 34-13 16-20 37-20 63v463h-204v-470c0-22-5-41-17-56-12-15-26-26-44-33-17-8-35-12-53-12-19 0-38 4-56 12-19 7-35 19-47 35-13 16-19 36-19 61v463h-205zm1244-531v-164h154v164h-154zm0 527v-163h154v163h-154z" />
      <path d="m21839 2690c-67 0-128-10-185-30-57-21-106-49-148-84-41-36-73-77-94-124l159-94c18 32 39 60 62 86c23 25 49 45 79 60c30 15 66 22 106 22c60 0 109-16 146-48c37-33 55-75 55-126c0-33-8-62-25-88-16-26-39-47-68-61-29-15-63-23-101-23-21 0-41 2-59 6-18 3-37 10-56 19-19 10-40 23-62 41-7 3-12 4-14 4-3 0-8-2-15-5l-148-68l46-514h651l-8 167h-481l-20 244c38-21 73-36 107-45c34-9 71-14 112-14c68 0 128 13 181 38c54 26 96 63 128 112c31 49 46 108 46 179c0 71-16 133-48 185-32 52-78 91-137 119-59 28-129 42-209 42zm543 210v-949h205l1 105c11-18 24-33 39-47c16-15 34-27 53-38c19-11 40-19 62-25c22-6 46-9 71-9c53 0 101 14 143 40c42 26 75 67 99 122c24 55 36 124 36 209c0 87-13 159-39 216-26 56-61 97-106 124-45 27-97 41-154 41-23 0-45-3-65-10-21-6-40-14-58-26-17-11-33-24-47-38-13-15-25-31-35-49v334h-205zm361-361c45 0 82-18 112-55c30-37 45-95 45-175c0-70-14-125-43-164-29-40-66-59-114-59-52 0-92 21-118 64-26 42-38 95-38 159c0 41 5 78 16 113c12 35 29 64 52 85c24 21 53 32 88 32zm490 136v-724h200v102c22-31 51-59 88-81c37-23 84-35 141-35c25 0 50 5 75 14c26 8 50 21 72 39c23 17 42 38 56 63c23-33 54-60 91-82c39-23 81-34 128-34c27 0 54 5 82 14c28 8 53 23 77 43c23 20 42 47 56 80c14 34 21 75 21 124v477h-204v-452c0-29-6-52-17-69-12-18-26-31-44-38-17-8-36-12-55-12-18 0-37 4-56 11-18 7-34 18-47 34-13 16-20 37-20 63v463h-203v-470c0-22-6-41-18-56-12-15-26-26-44-33-17-8-35-12-53-12-19 0-37 4-56 12-19 7-34 19-47 35-13 16-19 36-19 61v463h-204zm1243-531v-164h155v164h-155zm0 527v-163h155v163h-155z" />
    </g>
    <g fill="#3B3A48">
      <path d="m11464 21075v-691h-167v-72c52 0 92-4 121-12c29-7 49-19 61-34c12-16 19-35 20-59h80v868h-115zm340 0v-103c0-45 8-83 24-115c17-33 39-61 66-85c28-24 58-46 91-65c32-20 65-38 97-56c33-18 63-36 90-55c28-20 49-42 66-66c17-25 25-54 25-88c0-44-16-80-47-107-31-28-73-42-125-42-57 0-103 16-137 48-35 32-54 75-58 128h-111c1-50 14-96 38-137c23-41 58-75 103-99c46-25 102-38 169-38c58 0 108 11 151 32c43 20 76 49 99 86c24 37 36 80 36 129c0 45-9 83-25 115-16 32-38 60-65 84-27 23-57 44-89 62-32 18-64 36-96 53-33 17-62 35-89 54-27 18-49 39-65 63-16 24-24 53-24 86v18h457v98h-581zm732 193v-813h111l1 108c7-13 16-27 27-41c12-14 26-27 42-39c17-12 36-21 59-29c22-8 47-11 76-11c49 0 93 11 131 34c38 22 67 57 88 103c22 46 32 105 32 176c0 72-10 132-31 181-21 49-50 86-89 112-39 25-85 38-140 38-28 0-52-4-74-12-21-8-40-18-56-30-15-13-29-26-40-41-10-14-18-28-25-41v305h-112zm286-267c51 0 93-20 125-59c32-39 49-100 49-182c0-71-15-127-45-169-29-41-73-62-129-62-58 0-101 21-131 64-30 43-44 98-44 167c0 44 6 85 19 121c14 37 33 66 59 87c26 22 58 33 97 33zm6057 87c-60 0-112-11-158-33-45-21-81-52-107-90-26-40-40-86-42-140h111c9 54 31 96 66 125c36 28 80 43 134 43c42 0 79-7 111-20c32-14 56-32 73-56c17-23 26-51 26-83c0-34-10-64-29-88-19-24-45-42-78-54-34-13-71-20-111-20l-78-2v-94l74-2c38-1 72-8 102-22c30-14 54-32 71-54c17-23 26-48 26-75c0-24-7-46-22-67-15-21-36-37-64-50-28-12-61-18-101-18-31 0-61 6-89 18-29 12-52 31-71 56-18 25-28 58-29 98h-110c0-56 13-104 40-143c28-39 64-70 109-90c46-21 96-32 151-32c60 0 113 9 159 27c46 17 82 42 108 75c26 34 39 74 39 122c0 43-14 82-41 117-27 34-69 61-125 81c38 10 71 25 100 45c28 20 50 45 66 74c15 29 23 62 23 100c0 39-8 75-25 106-17 32-40 58-70 80-30 22-65 38-106 50-41 11-85 17-133 16zm483 180v-813h111l1 108c7-13 16-27 28-41c11-14 25-27 42-39c16-12 36-21 58-29c22-8 48-11 76-11c50 0 93 11 131 34c38 22 67 57 89 103c21 46 31 105 31 176c0 72-10 132-31 181-20 49-50 86-89 112-38 25-85 38-140 38-28 0-52-4-74-12-21-8-40-18-56-30-15-13-28-26-39-41-11-14-19-28-26-41v305h-112zm286-267c51 0 93-20 125-59c33-39 49-100 49-182c0-71-15-127-44-169-30-41-73-62-130-62-58 0-101 21-131 64-29 43-44 98-44 167c0 44 6 85 20 121c13 37 32 66 58 87c26 22 59 33 97 33z" />
      <path d="m6622 2675V1663h325c124 0 217 22 280 68c63 45 95 110 95 196c0 53-14 99-42 138-28 38-76 69-146 94c40 9 73 21 100 37c28 15 50 34 66 56c17 21 29 44 36 70c7 25 11 52 11 81c0 91-32 160-98 205-65 45-162 67-291 67h-336zm129-108h206c84 0 148-14 192-41c44-28 67-71 67-129c0-42-11-77-33-103-22-26-51-46-88-58-37-12-78-18-123-18h-221v349zm0-459h221c27 0 53-3 79-8c26-5 50-14 72-26c22-13 40-30 53-51c14-21 21-48 21-80c0-59-23-102-68-130-45-29-103-43-175-43h-203v338zm1050 581c-38 0-74-6-107-16-34-11-63-26-89-47-25-21-46-46-61-76-14-31-21-67-21-107v-492h129v478c0 47 15 86 44 115c29 30 73 44 132 44c53 0 96-14 128-41c33-28 49-70 49-125v-471h129v724h-103l-13-139c-9 37-24 66-46 89-21 22-46 39-76 49-30 11-61 15-95 15zm806 0c-50 0-97-8-141-23-42-16-78-40-107-74-28-33-46-76-53-128h118c6 29 17 53 35 72c17 18 38 33 63 42c26 10 54 14 84 14c49 0 89-9 119-27c30-18 45-46 45-84c0-26-8-48-24-64-16-16-40-28-73-35l-150-37c-58-14-105-36-140-66-34-30-52-72-52-125c0-43 10-80 30-113c21-32 52-57 92-76c41-18 92-28 153-28c79 0 143 18 191 53c48 35 73 87 75 155h-114c-5-34-20-62-47-82-26-20-61-31-106-31-46 0-83 10-113 28-29 19-43 47-43 86c0 25 10 46 31 61c21 14 51 26 91 36l145 37c33 8 61 20 83 35c22 14 39 30 52 48c12 18 21 36 26 56c6 19 9 37 9 55c0 44-11 83-33 115-22 32-54 56-95 74-42 17-92 26-151 26zm517 217c-42 0-71-3-87-9-16-6-24-9-24-9v-84l74 1c27 1 49-1 67-5c17-5 32-11 42-19c11-8 19-17 25-27c6-10 11-19 15-28l25-68-283-707h131l213 559l213-559h126l-304 779c-19 45-41 81-64 107-23 25-49 43-77 54-28 10-59 15-92 15zM2574 5075l-292-1012h131l224 806l228-806h102l227 806l229-806h130l-296 1012h-119l-222-785-226 785h-116zm1259 14c-47 0-89-8-125-24-35-17-63-41-84-73-20-31-30-69-30-113c0-80 28-140 84-179c56-39 146-60 270-63l129-4v-56c0-45-14-80-40-105-27-27-68-40-124-40-41 1-78 11-109 30-32 19-52 50-61 94h-114c2-48 15-87 39-119c24-33 57-58 100-75c43-16 93-25 152-25c63 0 115 9 157 27c42 18 73 44 93 78c21 35 32 77 32 128v505h-111l-10-136c-27 57-63 96-106 118-43 21-90 32-142 32zm38-93c25 0 49-5 73-13c25-9 46-21 66-36c20-15 36-33 48-51c12-19 19-39 19-59v-124l-108 2c-55 1-101 7-138 17-37 10-65 26-83 48-19 22-28 51-28 86c0 41 14 73 42 96c29 22 65 34 109 34zm536 79v-724h126v724h-126zm-3-877v-134h132v134h-132zm611 881c-50 0-89-7-116-21-28-13-47-33-58-60-11-27-16-59-16-98v-454h-118v-95h121l32-210h95v210h163v95h-163v450c0 25 2 44 7 57c6 11 15 19 28 22c12 3 30 5 53 5h79v87c-9 3-22 6-41 8-17 2-39 4-66 4zm249-535v-164h154v164h-154zm0 527v-163h154v163h-154zm1073 18c-88 0-159-14-214-43-54-29-94-72-119-128-25-56-37-125-37-206v-649h135v668c0 82 20 143 60 184c41 40 99 61 175 61c51 0 94-9 129-27c36-18 63-45 82-80c19-37 29-83 29-138v-668h130v662c0 78-13 144-38 198-26 54-66 96-121 124-54 28-124 42-211 42zm584 211v-949h129l1 126c8-15 19-30 32-47c14-16 30-31 49-45c20-14 42-26 68-34c26-9 56-14 89-14c58 0 109 14 153 40c44 26 78 66 103 121c25 54 37 122 37 205c0 83-12 154-36 211-24 57-58 100-104 130-45 30-100 45-164 45-32 0-60-5-86-14-24-9-46-21-65-35-18-15-33-31-46-48-12-16-22-32-30-48v356h-130zm333-312c60 0 108-22 146-68c38-45 57-116 57-212c0-83-17-149-52-197-34-49-85-73-151-73-67 0-118 25-153 75-34 49-51 114-51 195c0 51 7 98 23 141c15 42 38 76 68 101c31 26 68 38 113 38zm1097 91c-50 0-89-7-116-21-28-13-47-33-58-60-11-27-16-59-16-98v-454h-118v-95h121l32-210h95v210h163v95h-163v450c0 25 2 44 7 57c6 11 15 19 28 22c12 3 30 5 53 5h79v87c-9 3-22 6-41 8-17 2-39 4-66 4zm549 10c-66 0-125-14-175-43-49-29-88-71-115-126-28-56-41-124-41-204c0-76 12-142 38-199c26-57 63-101 113-132c49-32 110-48 181-48c67 0 125 15 174 44c49 29 87 72 114 128c27 57 41 126 41 207c0 74-12 139-38 194-25 57-62 100-111 132-49 31-109 47-181 47zm1-102c43 0 79-11 109-33c30-22 53-54 68-95c16-41 24-89 24-146c0-52-7-98-21-139-14-42-35-75-64-99-30-24-68-36-116-36-44 0-81 11-111 33-31 21-54 52-69 93-16 41-24 91-24 148c0 51 7 97 21 139c14 41 36 74 66 98c30 25 69 37 117 37zm985 88v-806h-195v-84c61 0 108-5 141-14c34-9 58-22 72-40c14-18 22-41 24-68h92v1012h-134zm758 0V4035h126v423c12-20 28-39 49-56c20-18 45-32 74-43c30-11 64-17 103-17c47 0 90 9 128 27c38 17 68 42 91 74c22 32 33 70 33 115v517h-129v-491c0-44-15-77-45-100-29-24-68-36-115-36-33 0-63 5-91 16-29 10-52 26-70 48-17 21-26 47-26 80v483h-128zm1096 14c-67 0-125-14-175-43-49-29-88-71-115-126-28-56-42-124-42-204c0-76 13-142 39-199c25-57 63-101 113-132c49-32 109-48 181-48c67 0 124 15 173 44c49 29 87 72 114 128c28 57 42 126 42 207c0 74-13 139-38 194-25 57-62 100-111 132-49 31-109 47-181 47zm1-102c43 0 79-11 109-33c30-22 53-54 68-95c16-41 24-89 24-146c0-52-7-98-21-139-14-42-35-75-65-99-29-24-68-36-115-36-44 0-81 11-111 33-31 21-54 52-70 93-15 41-23 91-23 148c0 51 7 97 20 139c14 41 36 74 66 98c30 25 70 37 118 37zm764 102c-38 0-73-6-107-16-33-11-62-26-88-47-26-21-46-46-61-76-14-31-22-67-22-107v-492h130v478c0 47 14 86 43 115c30 30 74 44 132 44c54 0 96-14 129-41c32-28 49-70 49-125v-471h128v724h-103l-13-139c-9 37-24 66-45 89-21 22-47 39-77 49-29 11-61 15-95 15zm556-14v-724h123v140c12-35 29-63 51-86c22-23 47-40 75-51c29-11 58-17 88-17c11 0 21 1 32 2c10 2 18 4 24 7v126c-7-4-17-6-28-7-10-1-20-2-27-2-29-2-56 0-81 6-25 5-48 14-67 27-19 13-34 30-45 52-11 21-16 47-16 77v450h-129z" />
      <path d="m25179 2675l1-1012h132v896h478v116h-611zm1060 14c-67 0-126-15-178-44-51-29-91-72-120-127-29-55-43-121-43-198c0-76 13-143 39-200c26-57 64-102 113-134c50-33 110-49 180-49c68 0 126 15 173 44c47 30 83 71 107 125c25 53 37 116 37 190v47h-518c0 46 7 87 22 125c15 37 38 66 69 88c31 22 70 33 117 33c46 0 86-11 119-32c34-22 55-53 65-93h121c-8 49-28 90-58 124-31 33-67 59-110 76-43 17-88 25-135 25zm-210-433h394c0-42-7-79-21-112-14-34-36-60-65-79-28-20-64-30-108-30-45 0-83 11-112 33-30 22-52 49-67 83-14 34-21 69-21 105zm952 433c-50 0-97-8-140-23-43-16-79-40-108-74-28-33-46-76-53-128h118c6 29 18 53 35 72c17 18 38 33 63 42c26 10 54 14 85 14c49 0 88-9 118-27c30-18 45-46 45-84c0-26-8-48-24-64-16-16-40-28-73-35l-150-37c-58-14-105-36-140-66-34-30-52-72-52-125c0-43 10-80 31-113c20-32 51-57 91-76c41-18 92-28 154-28c78 0 142 18 190 53c48 35 73 87 75 155h-114c-5-34-20-62-46-82-27-20-62-31-107-31-46 0-83 10-113 28-29 19-43 47-43 86c0 25 10 46 31 61c21 14 51 26 91 36l145 37c34 8 61 20 83 35c22 14 39 30 52 48c12 18 21 36 26 56c6 19 9 37 9 55c0 44-11 83-33 115-22 32-54 56-95 74-42 17-92 26-151 26zm706 0c-51 0-98-8-141-23-43-16-79-40-107-74-29-33-46-76-53-128h117c6 29 18 53 35 72c18 18 39 33 64 42c26 10 54 14 84 14c49 0 88-9 118-27c30-18 45-46 45-84c0-26-8-48-24-64-15-16-39-28-73-35l-149-37c-59-14-105-36-140-66-35-30-52-72-53-125c0-43 10-80 31-113c21-32 51-57 92-76c41-18 92-28 153-28c79 0 142 18 190 53c48 35 74 87 76 155h-115c-4-34-20-62-46-82-26-20-62-31-106-31-46 0-84 10-113 28-29 19-44 47-44 86c0 25 11 46 31 61c21 14 52 26 91 36l146 37c33 8 61 20 82 35c22 14 40 30 52 48c13 18 22 36 27 56c5 19 8 37 8 55c0 44-11 83-33 115-22 32-53 56-95 74-41 17-92 26-150 26zm1140 0c-42 0-78-6-108-17-29-11-52-25-71-42-19-18-33-36-43-54-11-19-18-35-23-49l-14 148h-99V1635h131v431c6-12 15-25 27-40c13-14 29-28 48-42c20-13 43-25 70-33c27-9 57-14 92-14c90 0 162 32 216 95c53 63 80 156 80 278c0 76-11 143-34 200-23 56-57 100-103 132-45 31-101 47-169 47zm-23-99c59 0 107-23 144-68c36-46 55-119 55-218c0-84-17-150-52-196-34-47-84-70-150-70-48 0-87 11-116 32-29 20-50 50-64 90-14 39-21 88-21 144c0 101 15 174 46 219c32 44 85 67 158 67zm764 99c-38 0-73-6-107-16-33-11-63-26-88-47-26-21-46-46-61-76-15-31-22-67-22-107v-492h130v478c0 47 14 86 43 115c29 30 74 44 132 44c54 0 96-14 128-41c33-28 49-70 49-125v-471h129v724h-103l-13-139c-9 37-24 66-45 89-21 22-47 39-77 49-29 11-61 15-95 15zm807 0c-51 0-98-8-141-23-43-16-79-40-107-74-29-33-46-76-53-128h117c6 29 18 53 35 72c17 18 39 33 64 42c26 10 54 14 84 14c49 0 88-9 118-27c30-18 45-46 45-84c0-26-8-48-24-64-15-16-39-28-73-35l-149-37c-59-14-105-36-140-66-35-30-52-72-53-125c0-43 10-80 31-113c20-32 51-57 92-76c41-18 92-28 153-28c79 0 142 18 190 53c48 35 74 87 76 155h-115c-5-34-20-62-46-82-26-20-62-31-107-31-45 0-83 10-112 28-29 19-44 47-44 86c0 25 11 46 31 61c21 14 52 26 91 36l146 37c33 8 60 20 82 35c22 14 40 30 52 48c13 18 22 36 27 56c5 19 8 37 8 55c0 44-11 83-33 115-22 32-53 56-95 74-41 17-92 26-150 26zm517 217c-43 0-72-3-88-9-16-6-24-9-24-9v-84l75 1c26 1 48-1 66-5c18-5 32-11 43-19c11-8 19-17 24-27c6-10 11-19 15-28l25-68-283-707h131l214 559l212-559h127l-305 779c-19 45-40 81-64 107-22 25-48 43-77 54-28 10-58 15-91 15zm-9218 2169l-292-1012h131l224 806l228-806h102l227 806l229-806h130l-296 1012h-119l-222-785-226 785h-116zm1259 14c-47 0-89-8-125-24-35-17-63-41-84-73-20-31-30-69-30-113c0-80 28-140 84-179c56-39 146-60 270-63l129-4v-56c0-45-14-80-40-105-27-27-68-40-123-40-42 1-79 11-110 30-32 19-53 50-61 94h-114c2-48 15-87 39-119c24-33 57-58 100-75c43-16 93-25 152-25c63 0 115 9 157 27c42 18 73 44 93 78c21 35 32 77 32 128v505h-111l-9-136c-28 57-63 96-107 118-43 21-90 32-142 32zm39-93c24 0 49-5 72-13c25-9 47-21 66-36c20-15 36-33 48-51c13-19 19-39 19-59v-124l-108 2c-55 1-101 7-138 17-37 10-65 26-83 48-19 22-28 51-28 86c0 41 14 73 42 96c29 22 65 34 110 34zm535 79v-724h126v724h-126zm-3-877v-134h132v134h-132zm611 881c-50 0-89-7-116-21-28-13-47-33-58-60-11-27-16-59-16-98v-454h-118v-95h121l32-210h95v210h163v95h-163v450c0 25 2 44 8 57c5 11 14 19 27 22c12 3 30 5 53 5h79v87c-9 3-22 6-40 8-18 2-40 4-67 4zm249-535v-164h154v164h-154zm0 527v-163h154v163h-154zm703 4V4063h124l535 787v-787h129v1012h-115l-543-798v798h-130zm1309 14c-66 0-125-14-175-43-49-29-88-71-115-126-28-56-42-124-42-204c0-76 13-142 39-199c26-57 63-101 113-132c49-32 110-48 181-48c67 0 124 15 174 44c49 29 87 72 114 128c27 57 41 126 41 207c0 74-13 139-38 194-25 57-62 100-111 132-49 31-109 47-181 47zm1-102c43 0 79-11 109-33c30-22 53-54 68-95c16-41 24-89 24-146c0-52-7-98-21-139-14-42-35-75-65-99-29-24-67-36-115-36-44 0-81 11-111 33-31 21-54 52-70 93-15 41-23 91-23 148c0 51 7 97 21 139c14 41 35 74 65 98c31 25 70 37 118 37zm501 88v-724h125v105c12-20 28-39 49-56c21-18 46-32 75-43c30-11 64-16 103-16c46 0 88 9 126 27c39 18 70 47 93 85c23 39 35 88 35 149v473h-130v-461c0-56-15-98-45-125-29-27-67-41-115-41-32 0-63 5-91 16-29 10-52 26-70 48-17 21-26 47-26 79v484h-129zm1114 14c-67 0-127-15-178-44-51-29-91-72-120-127-29-55-44-121-44-198c0-76 13-143 40-200c26-57 63-102 113-135c50-32 110-48 180-48c68 0 126 15 173 44c47 30 83 71 107 125c25 53 37 116 37 190v47h-519c0 46 8 87 23 125c15 37 38 66 69 88c31 22 70 33 117 33c46 0 86-11 119-32c33-22 55-53 64-93h122c-8 49-28 90-59 124-30 33-67 59-110 76-42 17-87 25-134 25zm-210-433h393c0-42-7-79-21-112-14-34-35-60-64-79-29-20-64-30-108-30-45 0-83 11-113 33-29 22-52 49-66 83-15 34-22 69-21 105z" />
    </g>
  </g>
  <g fill="#82B5CC">
    <rect x="65.5" y="147.75" width="14" height="39" rx="4" />
    <rect x="89.5" y="128.75" width="14" height="58" rx="4" />
    <rect x="41.5" y="162.75" width="14" height="24" rx="4" />
    <rect x="113.5" y="115.75" width="14" height="71" rx="4" />
    <rect x="161.5" y="115.75" width="14" height="71" rx="4" />
    <rect x="137.5" y="115.75" width="14" height="71" rx="4" />
    <rect x="185.5" y="123.75" width="14" height="63" rx="4" />
    <rect x="209.5" y="142.75" width="14" height="44" rx="4" />
  </g>
  <g fill="#D4D4D7">
    <rect x="233.5" y="157.75" width="14" height="30" rx="4" />
    <rect x="257.5" y="157.75" width="14" height="30" rx="4" />
  </g>
  <g stroke="#D4D4D7">
    <rect x="12" y="1.25" width="134" height="66" rx="3.5" />
    <rect x="203" y="1.25" width="134" height="66" rx="3.5" />
  </g>
  <g stroke="#3B3A48">
    <line x1="25" y1="191.75" x2="25" y2="194.75" />
    <line x1="49" y1="191.75" x2="49" y2="194.75" />
    <line x1="121" y1="191.75" x2="121" y2="194.75" />
    <line x1="193" y1="191.75" x2="193" y2="194.75" />
    <line x1="265" y1="191.75" x2="265" y2="194.75" />
    <line x1="337" y1="191.75" x2="337" y2="194.75" />
  </g>
  <g stroke="#046B99">
    <line x1="49" y1="187.75" x2="49" y2="195.75" />
    <line x1="289.5" y1="188" x2="289.5" y2="196" />
  </g>
</svg>
