<svg version="1.1" xmlns="http://www.w3.org/2000/svg" viewBox="0 0 113 130"><defs><linearGradient id="SVGID_1_" gradientUnits="userSpaceOnUse" x1="236.507" y1="161.15800000000002" x2="1474.1059999999998" y2="969.006"><stop stop-color="#b0803e"/><stop offset="0.3044" stop-color="#e7d086"/><stop offset="0.7527" stop-color="#916a2d"/><stop offset="1" stop-color="#bb782a"/></linearGradient><linearGradient id="SVGID_00000074400703361471217330000017210376748544952222_" gradientUnits="userSpaceOnUse" x1="332.935" y1="458.17100000000005" x2="784.987" y2="1238.693"><stop stop-color="#b0803e"/><stop offset="0.3044" stop-color="#e7d086"/><stop offset="0.7527" stop-color="#916a2d"/><stop offset="1" stop-color="#bb782a"/></linearGradient><linearGradient id="SVGID_00000113351555269883565360000013349445613475313291_" gradientUnits="userSpaceOnUse" x1="23.4937" y1="56.6361" x2="44.3164" y2="183.5248"><stop stop-color="#b0803e"/><stop offset="0.3044" stop-color="#e7d086"/><stop offset="0.7527" stop-color="#916a2d"/><stop offset="1" stop-color="#bb782a"/></linearGradient><linearGradient id="SVGID_00000031186266019988792950000012182540430182680970_" gradientUnits="userSpaceOnUse" x1="600.097" y1="446.138" x2="970.672" y2="1132.028"><stop stop-color="#b0803e"/><stop offset="0.3044" stop-color="#e7d086"/><stop offset="0.7527" stop-color="#916a2d"/><stop offset="1" stop-color="#bb782a"/></linearGradient></defs><path fill="#005DFF" transform="scale(.01)" d="
M510 510
h10280
v11970
H510
z
M0 0
v13000
h11300
V0
H0
z
m11230 12930
H70
V70
h11160
v12860
z"/><path fill="#FFFFFF" transform="scale(.1)" d="
M1126 1296
H4
V4
h1123
v1292
z
M51 1249
h1028
V51
H51
v1198
z"/><polygon points="94.1,19.3 92.1,13.2 90.1,19.3 83.8,19.3 88.9,23.1 86.9,29.2 92.1,25.4 97.2,29.2 95.3,23.1 
	100.4,19.3 " fill="#E7D086"></polygon><g transform="scale(.1)"><path fill="url(#SVGID_1_)" d="
M192 343
c0-108 83-187 187-187
c66 0 113 24 145 75
l-57 41
c-17-28-46-48-88-48
-66 0-110 51-110 119
s44 120 110 120
c47 0 73-23 94-54
l58 40
c-32 49-82 81-152 81
-104 0-187-79-187-187
z
m511-187
h7
l166 369
h-79
l-17-41
H633
l-17 41
h-72
l159-369
z
m51 265
l-26-63
c-11-26-22-66-22-66
s-11 40-21 66
l-26 63
h95
z"/><path fill="url(#SVGID_00000074400703361471217330000017210376748544952222_)" d="
M531 661
H382
v-67
h257
v7
L482 963
h-83
l132-302
z"/></g><polygon points="23.4,66.1 17.5,66.1 17.5,59.4 
	31.6,59.4 31.6,90.7 23.4,90.7 23.4,66.1 " fill="url(#SVGID_00000113351555269883565360000013349445613475313291_)"></polygon><g transform="scale(.1)"><path fill="url(#SVGID_00000031186266019988792950000012182540430182680970_)" d="
M640 890
l70-35
c9 23 26 43 62 43
s55-24 55-55
c0-33-21-56-62-56
-36 0-61 15-79 29
l-7-3
V594
h202
v67
H745
v66
c8-5 26-9 43-9
c75 0 124 56 124 125
c0 69-45 126-139 126
-73 0-116-39-133-79"/><path fill="#1550A2" d="
M968 1167
H162
c6-7 11-14 16-21
c10-14 21-27 31-41
c5-6 5-11 0-17
-16-20-31-41-47-62
h806
c1 2-1 3-2 4
-14 19-28 37-42 56
-6 7-6 13 0 20
c14 18 28 36 42 55
c0 1 3 3 2 6
z"/></g><g fill="#FFFFFF"><polygon points="41.8,110.2 44.7,110.2 44.7,108.9 41.8,108.9 41.8,106.6 45.1,106.6 45.1,105.2 40.2,105.2 
		40.2,112.6 45.3,112.6 45.3,111.3 41.8,111.3 	"></polygon><path transform="scale(.01)" d="
M5330 10520
h150
v740
h-150
z
m-280 510
c90-40 140-110 140-230
c0-180-120-280-330-280
h-200
v740
h150
v-180
h90
l120 190
h170
l-140-240
z
m-190-80
h-50
v-290
h50
c120 0 180 40 180 150
s-50 140-180 140
z
m-1360-30
l-360-400
h-10
v750
h140
v-280
c0-50-10-130-10-130
s40 70 80 100
l150 160
h10
l150-160
c30-40 80-100 80-100
s-10 80-10 130
v280
h150
v-750
h-10
l-360 400
z
m-820-400
l-320 740
h150
l30-80
h300
l30 80
h160
l-340-740
h-10
z
m100 530
h-190
l50-130
c20-50 40-130 40-130
s20 80 40 130
l60 130
z
m5860-360
c-160 0-300 120-300 290
c0 170 140 290 300 290
c160 0 300-120 300-290
s-140-290-300-290
z
m0 450
c-80 0-140-60-140-160
s60-160 140-160
s150 60 150 160
s-60 160-150 160
z
m-580-220
c-30 0-60 10-80 20
v-120
h250
v-120
h-370
v400
l10 10
c30-30 80-50 140-50
c70 0 110 40 110 100
c0 60-30 100-100 100
s-100-30-110-80
l-130 60
c30 70 110 140 240 140
c170 0 250-100 250-230
c10-130-80-230-210-230
z
m-1420-400
l-320 740
h150
l30-80
h300
l30 80
h160
l-340-740
h-10
z
m110 530
h-190
l50-130
c20-50 40-130 40-130
s20 80 40 130
l60 130
z
m790 90
c0 0 40-30 60-50
l20-20
c70-70 110-140 110-210
c0-90-70-180-220-180
-110 0-200 70-230 180
l140 40
c20-50 40-90 90-90
c40 0 70 20 70 60
c0 50-30 70-90 140
l-210 230
v10
h460
v-120
h-130
c-20 10-70 10-70 10
z
m-1550 0
c-130 0-220-110-220-240
c0-140 90-240 220-240
c80 0 140 40 180 100
l120-80
c-70-100-160-150-290-150
-210 0-380 160-380 380
c0 220 170 380 380 380
c140 0 240-60 310-160
l-120-80
c-50 40-110 90-200 90
z"/></g></svg>