<svg version="1.1" xmlns="http://www.w3.org/2000/svg" viewBox="0 0 113 130">
  <defs>
    <linearGradient id="ID0" gradientUnits="userSpaceOnUse" x1="237" y1="161" x2="1474" y2="969">
      <stop stop-color="#b0803e" />
      <stop offset="0.3044" stop-color="#e7d086" />
      <stop offset="0.7527" stop-color="#916a2d" />
      <stop offset="1" stop-color="#bb782a" />
    </linearGradient>
    <linearGradient id="ID1" gradientUnits="userSpaceOnUse" x1="333" y1="458" x2="785" y2="1239">
      <stop stop-color="#b0803e" />
      <stop offset="0.3044" stop-color="#e7d086" />
      <stop offset="0.7527" stop-color="#916a2d" />
      <stop offset="1" stop-color="#bb782a" />
    </linearGradient>
    <linearGradient id="ID2" gradientUnits="userSpaceOnUse" x1="235" y1="566" x2="443" y2="1835">
      <stop stop-color="#b0803e" />
      <stop offset="0.3044" stop-color="#e7d086" />
      <stop offset="0.7527" stop-color="#916a2d" />
      <stop offset="1" stop-color="#bb782a" />
    </linearGradient>
    <linearGradient id="ID3" gradientUnits="userSpaceOnUse" x1="600" y1="446" x2="971" y2="1132">
      <stop stop-color="#b0803e" />
      <stop offset="0.3044" stop-color="#e7d086" />
      <stop offset="0.7527" stop-color="#916a2d" />
      <stop offset="1" stop-color="#bb782a" />
    </linearGradient>
  </defs>
  <path fill="#005DFF" transform="scale(.01)" d="M510 510h10280v11970H510zM0 0v13000h11300V0H0zm11230 12930H70V70h11160v12860z" />
  <g transform="scale(.1)">
    <path fill="#fff" d="M1126 1296H4V4h1123v1292zM51 1249h1028V51H51v1198z" />
    <path fill="#E7D086" d="M941 193l-20-61-20 61h-63l51 38-20 61l52-38l51 38-19-61l51-38z" />
    <path fill="url(#ID0)" d="M192 343c0-108 83-187 187-187c66 0 113 24 145 75l-57 41c-17-28-46-48-88-48-66 0-110 51-110 119s44 120 110 120c47 0 73-23 94-54l58 40c-32 49-82 81-152 81-104 0-187-79-187-187zm511-187h7l166 369h-79l-17-41H633l-17 41h-72l159-369zm51 265l-26-63c-11-26-22-66-22-66s-11 40-21 66l-26 63h95z" />
    <path fill="url(#ID1)" d="M531 661H382v-67h257v7L482 963h-83l132-302z" />
    <path fill="url(#ID2)" d="M234 661h-59v-67h141v313h-82v-246z" />
    <path fill="url(#ID3)" d="M640 890l70-35c9 23 26 43 62 43s55-24 55-55c0-33-21-56-62-56-36 0-61 15-79 29l-7-3V594h202v67H745v66c8-5 26-9 43-9c75 0 124 56 124 125c0 69-45 126-139 126-73 0-116-39-133-79" />
    <path fill="#1550A2" d="M968 1167H162c6-7 11-14 16-21c10-14 21-27 31-41c5-6 5-11 0-17-16-20-31-41-47-62h806c1 2-1 3-2 4-14 19-28 37-42 56-6 7-6 13 0 20c14 18 28 36 42 55c0 1 3 3 2 6z" />
  </g>
  <path fill="#fff" transform="scale(.01)" d="M5330 10520h150v740h-150zm-280 510c90-40 140-110 140-230c0-180-120-280-330-280h-200v740h150v-180h90l120 190h170l-140-240zm-190-80h-50v-290h50c120 0 180 40 180 150s-50 140-180 140zm-1360-30l-360-400h-10v750h140v-280c0-50-10-130-10-130s40 70 80 100l150 160h10l150-160c30-40 80-100 80-100s-10 80-10 130v280h150v-750h-10l-360 400zm-820-400l-320 740h150l30-80h300l30 80h160l-340-740h-10zm100 530h-190l50-130c20-50 40-130 40-130s20 80 40 130l60 130zm1400-30h290v-130h-290v-230h330v-140h-490v740h510v-130h-350zm4460-330c-160 0-300 120-300 290c0 170 140 290 300 290c160 0 300-120 300-290s-140-290-300-290zm0 450c-80 0-140-60-140-160s60-160 140-160s150 60 150 160s-60 160-150 160zm-580-220c-30 0-60 10-80 20v-120h250v-120h-370v400l10 10c30-30 80-50 140-50c70 0 110 40 110 100c0 60-30 100-100 100s-100-30-110-80l-130 60c30 70 110 140 240 140c170 0 250-100 250-230c10-130-80-230-210-230zm-1420-400l-320 740h150l30-80h300l30 80h160l-340-740h-10zm110 530h-190l50-130c20-50 40-130 40-130s20 80 40 130l60 130zm790 90c0 0 40-30 60-50l20-20c70-70 110-140 110-210c0-90-70-180-220-180-110 0-200 70-230 180l140 40c20-50 40-90 90-90c40 0 70 20 70 60c0 50-30 70-90 140l-210 230v10h460v-120h-130c-20 10-70 10-70 10zm-1550 0c-130 0-220-110-220-240c0-140 90-240 220-240c80 0 140 40 180 100l120-80c-70-100-160-150-290-150-210 0-380 160-380 380c0 220 170 380 380 380c140 0 240-60 310-160l-120-80c-50 40-110 90-200 90z" />
</svg>
