<?xml version="1.0" encoding="UTF-8"?>
<svg xmlns="http://www.w3.org/2000/svg" viewBox="0 0 1024 1024">
  <path d="M584 1019.733c98.133 0 174.933-17.067 243.2-51.2l-55.467-136.533c-55.467 29.867-115.2 46.933-183.467 46.933-115.2 0-209.067-38.4-277.333-106.667-59.733-64-93.867-153.6-93.867-256s38.4-196.267 102.4-260.267c68.267-72.533 162.133-110.933 273.067-110.933 68.267 0 128 17.067 183.467 46.933l51.2-132.267c-72.533-34.133-157.867-55.467-243.2-55.467-136.533 0-264.533 51.2-362.667 136.533-93.867 93.867-149.333 226.133-149.333 371.2 0 298.667 213.333 507.733 512 507.733v0z" />
  <path d="M844.8 260.267c-34.133 12.8-59.733 42.667-76.8 64-4.267 4.267-8.533 8.533-12.8 12.8s-4.267 4.267-8.533 8.533c0-4.267-4.267-8.533-12.8-17.067-4.267-4.267-4.267-4.267-8.533-8.533-8.533-8.533-25.6-12.8-42.667-12.8s-29.867 8.533-38.4 17.067c-17.067 17.067-21.333 42.667-21.333 59.733 0 4.267-17.067 17.067-29.867 25.6-4.267 4.267-25.6 21.333-34.133 34.133-17.067 21.333-38.4 46.933-51.2 64-4.267 8.533-4.267 17.067-4.267 29.867 0 8.533 0 21.333 0 25.6-8.533 21.333-42.667 55.467-68.267 81.067-12.8 12.8-25.6 25.6-29.867 29.867-4.267 12.8 72.533 76.8 106.667 85.333 34.133 0 93.867-8.533 132.267-17.067 17.067-4.267 25.6-4.267 34.133-4.267 4.267 0 12.8 0 21.333 4.267s25.6 8.533 38.4 8.533c8.533 0 21.333 0 34.133 0 34.133-8.533 51.2-29.867 68.267-51.2 12.8-12.8 21.333-29.867 34.133-34.133 8.533-4.267 17.067-8.533 29.867-8.533 21.333-42.667 34.133-85.333 38.4-136.533 0-4.267 0-12.8 0-17.067 0-12.8 0-21.333 0-34.133-4.267-81.067-42.667-153.6-98.133-209.067v0z" />
  <path d="M452.267 486.4c0-4.267-12.8-46.933-21.333-68.267 0-4.267 0-4.267 0-4.267 4.267-4.267 51.2-38.4 51.2-42.667-21.333 0-42.667 0-64 0-4.267 0-4.267 0-4.267-4.267-4.267-21.333-17.067-64-21.333-68.267-8.533 21.333-12.8 42.667-21.333 68.267 0 4.267-4.267 4.267-4.267 4.267-12.8 0-59.733 0-68.267 0 0 0 38.4 29.867 55.467 42.667 0 0 4.267 4.267 4.267 4.267-4.267 17.067-17.067 59.733-17.067 64 0 0 34.133-25.6 51.2-38.4 8.533-4.267 4.267-4.267 12.8 0-4.267 4.267 29.867 29.867 46.933 42.667v0 0z" />
</svg>
