<?xml version="1.0" encoding="UTF-8"?>
<svg id="Layer_1" data-name="Layer 1" xmlns="http://www.w3.org/2000/svg" viewBox="0 0 326 167">
  <defs>
    <style>


       .cls-2 {
        stroke-width: 0px;
      }

      .cls-2 {
        fill: #69a6c2;
      }
    </style>
  </defs>

  <path class="cls-2" d="M305.21,114.03h-32.72s-3.33-.2-3.33-.2l2.77-78.6c.05-1.42-.46-2.78-1.44-3.81-.98-1.04-2.3-1.62-3.72-1.66l-117.54-2.83s-.09,0-.13,0c-2.78,0-5.08,2.14-5.27,4.93l-4.24,62.32c-1.84.44-3.81.95-5.95,1.54-3.58.99-6.63,1.67-9.33,2.08-2.9.44-5.51.56-8,.36-.42-.03-.81-.09-1.21-.15-.05-.92-.21-1.87-.52-2.85-1.28-4.16-3.61-4.73-4.88-4.71-1.54.03-3.18.95-4.64,2.42-.38-.37-.73-.73-1.02-1.05-.19-.37-.39-.74-.62-1.08,1.8-.93,2.11-2.11,1.96-3.04-.78-5.23-13.89-7.12-22.51-6.74-4.29.19-14.3,1.22-14.65,6.81-1.29,20.66,4.46,34.79,6.34,38.8H5.74c-.43,0-.78.35-.78.78s.35.78.78.78h70.09c.28,0,.53-.15.67-.38.14-.24.14-.53,0-.78-.08-.15-8.22-15.06-6.72-39.1.18-2.95,5.23-5,13.16-5.34,10.26-.44,20.41,2.19,20.9,5.41.03.22.13.88-1.38,1.55-.63-.72-1.37-1.37-2.2-1.96-8.17-5.74-24.28-3.11-29.02-1.15-1.45.6-1.43,1.42-1.29,1.86,1.06,3.3,23.18,5.2,31.05,3.36.24-.06.46-.12.68-.18.32.47.68.92,1.08,1.37.3.63.55,1.3.73,2.01-1.02,1.48-1.84,3.24-2.34,5.12-.56,2.13-.29,4.11.66,4.93.45.38,1,.47,1.52.25,1.52-.66,1.98-3.64,2.09-6.03.07-1.4-.02-2.71-.25-3.92.02-.03.04-.05.06-.07,2.42,1.89,5.4,3.41,8.29,4.18-.48,7.14-8.88,12.06-11.79,13.54-1.14.59-1.8,3.28-2.93,8.87-.26,1.27-.51,2.5-.73,3.43-7.7-1.27-16.61-.78-18.79.77-.91.65-.8,1.41-.71,1.71.16.52.63,2.12,6.85,2.28,4.31.11,12.64-.65,13.74-2.96,2.58.5,4.93,1.22,6.68,2.18l-3.29,1.96c-1,.6-1.49,1.72-1.24,2.86s1.16,1.96,2.32,2.08l136.06,14.63c.28.03.56.04.83.04,2.26,0,4.43-.99,5.91-2.74l22.29-26.26c.11-.13.18-.3.18-.48l.2-5.77,3.34.2h32.76c.43,0,.78-.35.78-.78s-.35-.78-.78-.78ZM71.64,87.89c.05-.03.12-.06.2-.09,3.34-1.39,19.33-4.77,27.53.99.54.38,1.02.79,1.46,1.23-7.99,2.02-26.65-.44-29.19-2.12ZM83.86,128.19c-2.65-.22-3.56-.75-3.76-1.01.14-.13.63-.45,2.1-.75,3.29-.67,9.53-.73,15.16.13-1.66.99-8.11,2.08-13.5,1.63ZM102.77,103.59c-.26-.3-.59-1.49-.11-3.3.28-1.07.69-2.11,1.19-3.08.03.57.04,1.15,0,1.76-.16,3.47-.88,4.41-1.09,4.62ZM109.73,92.01c1.83-.02,2.84,1.94,3.36,3.61.22.71.35,1.4.41,2.07-3.06-.77-5.5-2.3-7.28-3.78,1.15-1.16,2.39-1.88,3.51-1.9ZM267.35,120.83l-22.12,26.05c-1.33,1.57-3.34,2.37-5.38,2.15l-136.06-14.63c-.59-.06-.88-.49-.96-.87-.08-.38,0-.89.52-1.19l4.38-2.61c.23-.13.37-.37.38-.63.01-.26-.11-.51-.32-.67-1.95-1.41-4.9-2.42-8.19-3.08.23-.93.46-2.11.72-3.4.51-2.53,1.47-7.24,2.12-7.79,3.09-1.59,11.95-6.79,12.63-14.59.37.06.74.11,1.1.15,2.45.23,5.19.1,8.37-.38,2.77-.42,5.88-1.11,9.52-2.11,1.94-.54,3.74-1.01,5.42-1.42l-.91,13.4-29.48,18.05c-.29.18-.43.52-.35.84s.36.57.69.6l45.48,3.82-1.32.98c-.59.43-.84,1.17-.64,1.88.2.7.79,1.2,1.52,1.27l41.39,4.01c2.37.23,4.74-.7,6.32-2.49l6.05-6.84c.2-.22.25-.53.14-.81-.11-.27-.36-.46-.66-.49l-37.96-3.25c-1.6-.14-3.17.33-4.43,1.3l-4.36,3.37-1.79-.15,4.64-3.44c.26-.19.38-.53.28-.84-.09-.31-.37-.54-.69-.56l-29.7-2.22c-.44-.03-.58-.39-.61-.5-.03-.11-.1-.48.27-.74l10.8-7.53c1.06-.74,2.35-1.09,3.63-1l73.62,5.32-8.81,7.95c-.75.68-1.01,1.69-.68,2.64s1.16,1.59,2.16,1.67l26.07,1.9c2.44.17,4.8-.73,6.49-2.5l6.53-6.82c.68-.71.88-1.72.53-2.64-.35-.92-1.18-1.53-2.16-1.6l-26.32-1.9c1.2-.86,2.68-1.3,4.18-1.19l29.3,2.04c1.32.09,2.6-.35,3.59-1.23.89-.8,1.45-1.88,1.58-3.05l3.67.22-.2,5.53ZM262.86,101.45c-5.8-1.54-11.93-1.79-18.25-.69-2.54.44-4.95,1.11-7.28,1.75-2.02.56-4.12,1.14-6.22,1.54-2.32.44-4.43.62-6.46.55-2.58-.09-5.27-.47-8-1.1-2.52-.59-5.14-1.43-7.79-2.48-.85-.34-1.7-.7-2.55-1.08,2.54-.82,4.93-1.78,7.1-2.86,5.84-2.92,10.25-6.75,13.09-11.4,2.96-4.84,4.21-10.69,3.53-16.46-.33-2.82-1.12-5.58-2.32-8.19-1.19-2.57-2.75-4.93-4.64-7.01-1.91-2.11-4.11-3.87-6.54-5.25-2.52-1.43-5.22-2.4-8.03-2.89-2.85-.5-5.83-.53-8.87-.09-2.75.37-5.36,1.14-7.76,2.3-2.28,1.1-4.37,2.55-6.22,4.3-3.51,3.33-6.06,7.68-7.37,12.57-.65,2.44-.98,4.95-.97,7.46,0,2.55.37,5.06,1.07,7.46.73,2.49,1.81,4.82,3.22,6.93,1.48,2.22,3.33,4.19,5.48,5.85,1.54,1.19,3.23,2.17,5.01,2.93,1.68.71,3.47,1.22,5.37,1.54,1.51.88,3,1.7,4.46,2.45-1.75.43-3.56.8-5.4,1.1-2.53.41-5.02.56-7.42.44-2.49-.13-4.95-.55-7.3-1.25-2.51-.75-4.9-1.73-7.54-2.84-3.98-1.67-6.77-2.7-9.33-3.45-3.03-.88-5.77-1.36-8.62-1.5-3.4-.17-7.11.14-11.74,1.02l3.61-59.28,117.21,3.03-2.54,64.59ZM189.06,88.91l-.63-.6s-.04-.06-.04-.1c0-.05.02-.1.05-.14l2.51-2.56,3.55-1.94c.08-.04.17-.03.23.04l3.3,3.57c.67.72,1.81.78,2.55.12l22.41-19.95c.74-.66.81-1.8.15-2.54l-2.99-3.36c-.66-.74-1.79-.81-2.53-.16-2.03,1.76-17.4,15.47-17.55,15.61-.05.04-.09.06-.17.06-.07,0-.12-.03-.17-.08l-7.75-8.71c-.66-.74-1.8-.81-2.54-.15l-3.38,2.99c-.36.32-.57.76-.6,1.24-.03.48.13.94.45,1.3l6.8,7.64s.06.1.06.17c0,.06-.03.11-.14.21l-2.63,2.69-3.49,1.9c-.07.04-.18.03-.22-.03-2.39-2.93-3.93-6.65-4.47-10.75-.26-1.99-.28-4.03-.04-6.05.23-2.04.71-4.03,1.43-5.92.65-1.71,1.49-3.33,2.5-4.8,1.05-1.53,2.28-2.9,3.66-4.08,1.45-1.24,3.07-2.28,4.83-3.09,1.86-.86,3.88-1.47,6.01-1.82,2.48-.37,5-.33,7.49.11,5.74,1.02,10.76,4.36,14.15,9.42,1.62,2.41,2.78,5.09,3.46,7.95.69,2.92.83,5.89.43,8.82-.36,2.6-1.19,5.09-2.46,7.4-1.21,2.19-2.8,4.19-4.73,5.93-3.75,3.39-8.6,5.66-13.66,6.38-2.32.33-4.63.33-6.87,0-1.19-.7-2.4-1.45-3.62-2.22h0c-1.85-1.18-3.69-2.94-5.32-4.49ZM193.89,80.17l-6.8-7.64s-.06-.11-.06-.17c0-.06.03-.12.08-.16l3.38-2.99c.1-.09.25-.08.34.02l7.75,8.71c.32.36.76.57,1.24.6.48.03.94-.13,1.3-.45.15-.14,15.53-13.87,17.54-15.6.1-.09.25-.08.34.02l2.99,3.36c.06.06.06.14.06.17,0,.04-.01.11-.08.16l-18.31,16.28-4.11,3.67c-.11.09-.27.08-.36-.02l-3.3-3.57c-.31-.33-.73-.53-1.18-.56-.04,0-.07,0-.11,0-.13,0-.27.02-.4.05.07-.17.12-.35.13-.54.04-.49-.11-.97-.44-1.34ZM205.08,97.17c5.36-.76,10.51-3.17,14.49-6.76,2.06-1.86,3.76-3.99,5.05-6.34,1.37-2.48,2.26-5.15,2.64-7.94.43-3.12.28-6.28-.46-9.39-.72-3.04-1.96-5.89-3.68-8.46-1.75-2.61-3.92-4.81-6.44-6.52-2.65-1.8-5.58-3-8.73-3.56-2.65-.47-5.34-.51-8-.12-2.28.37-4.44,1.03-6.42,1.94-1.88.87-3.63,1.99-5.19,3.32-1.49,1.27-2.81,2.75-3.93,4.39-1.08,1.57-1.98,3.29-2.67,5.13-.76,2.01-1.27,4.12-1.52,6.3-.25,2.15-.23,4.31.05,6.42.58,4.39,2.24,8.38,4.81,11.53.44.54,1.18.75,1.84.56-.06.18-.09.37-.08.57,0,.46.2.89.53,1.21l.62.59c1.38,1.31,3.04,2.9,4.74,4.12,0,0-.02,0-.03,0-1.66-.7-3.23-1.62-4.67-2.73-2.01-1.55-3.74-3.4-5.13-5.48-1.32-1.98-2.34-4.16-3.02-6.5-.66-2.26-1-4.62-1.01-7.03,0-2.37.3-4.74.92-7.05,1.24-4.61,3.64-8.71,6.94-11.84,1.73-1.64,3.69-3,5.83-4.03,2.25-1.09,4.71-1.82,7.3-2.16,2.88-.41,5.7-.39,8.38.08,2.64.46,5.17,1.37,7.53,2.71,2.28,1.29,4.35,2.96,6.16,4.94,1.79,1.97,3.26,4.19,4.37,6.62,1.14,2.46,1.87,5.06,2.19,7.72.64,5.42-.53,10.92-3.31,15.46-2.69,4.39-6.88,8.03-12.45,10.82-2.41,1.21-5.1,2.25-7.99,3.12-.18.05-.35.11-.53.16-.98-.48-1.98-.99-3-1.53,1.29.02,2.58-.08,3.88-.26ZM156.24,93.64c2.73.13,5.35.59,8.26,1.44,2.5.72,5.24,1.74,9.17,3.39,2.68,1.13,5.11,2.12,7.7,2.9,2.47.74,5.05,1.18,7.67,1.31,2.51.12,5.11-.03,7.75-.46,2.51-.41,4.95-.94,7.27-1.59,1.42.68,2.84,1.3,4.23,1.85,2.72,1.08,5.41,1.94,8.01,2.55,2.82.66,5.61,1.05,8.29,1.14.32.01.63.02.95.02,1.85,0,3.78-.2,5.86-.59,2.14-.41,4.26-1,6.34-1.57,2.29-.64,4.66-1.29,7.13-1.72,6.22-1.08,12.24-.82,17.93.75l-.41,10.38-118.63-7.02.71-11.7c4.68-.91,8.39-1.24,11.77-1.07ZM142.35,107.66c.14.15.33.25.54.26l119.42,7.07c-.11.77-.48,1.46-1.07,1.99-.67.6-1.54.9-2.44.84l-29.3-2.04c-2.16-.15-4.29.59-5.89,2.03l-.61.55-75.11-5.43c-1.65-.11-3.29.34-4.64,1.28l-10.8,7.53c-.79.55-1.13,1.5-.88,2.43.25.93,1.04,1.57,1.99,1.64l27.61,2.07-4.38,3.25-44.88-3.77,27.79-17.01c.22-.13.35-.36.37-.61l.97-14.29c.62-.14,1.23-.28,1.82-.4l-.74,12.06c-.01.21.06.41.19.57ZM251.42,121.97c.38.03.68.25.82.61s.06.73-.2,1l-6.53,6.82c-1.37,1.43-3.27,2.17-5.25,2.02l-26.07-1.9c-.56-.04-.75-.48-.8-.62-.05-.13-.16-.6.25-.98l9.92-8.96,27.86,2.01ZM157.27,132.72l3.86.32c.2.02.39-.04.54-.16l4.6-3.55c.96-.74,2.14-1.09,3.35-.98l36.42,3.12-5.02,5.68c-1.25,1.42-3.12,2.16-5,1.97l-41.39-4.01c-.09,0-.14-.05-.16-.14s0-.15.07-.2l2.75-2.04ZM267.6,113.74l-3.65-.22.42-10.66s0,0,0-.01c.02-.18.04-.36.05-.54,0-.07,0-.14-.03-.2l2.59-65.98c0-.21-.07-.41-.21-.56s-.34-.24-.55-.25l-118.76-3.07s-.01,0-.02,0c-.41,0-.75.32-.78.73l-3.69,60.44c-.59.12-1.19.25-1.81.39l4.2-61.85c.13-1.97,1.76-3.48,3.72-3.48.03,0,.06,0,.09,0l117.54,2.83c1,.02,1.93.44,2.62,1.17s1.05,1.69,1.01,2.69l-2.77,78.56Z" />
</svg>
