<svg version="1.1" xmlns="http://www.w3.org/2000/svg" viewBox="0 0 326 167"><style type="text/css"> .st0{fill:#69A6C2;} </style><path class="st0" transform="scale(.1)" d="
M3241 1396
c-1-2-3-3-6-3
c-2 0-4 1-6 2
c-26 23-56 41-86 51
c-31 11-62 13-89 7
c-21-5-40-15-56-29
c-18-16-32-38-43-64
c-10-23-26-40-49-48
c-65-25-172 20-257 62
c-19 10-39 22-58 34
c-62 38-126 78-185 39
c-15-10-30-24-43-39
c18-14 32-31 41-48
c8-15 12-34 10-53
c-2-21-10-39-23-50
c-8-7-17-12-26-13
c-8-1-16 0-24 5
c-25 14-39 57-34 84
c4 23 16 48 33 72
c-13 8-26 16-41 22
c-45 18-101 30-156 33
c-58 3-113-3-158-18
c-22-7-38-16-48-28
c-20-22-20-48-16-66
c5-23 18-46 36-64
c0 0 1-1 1-1
c23-23 52-39 81-55
l9-5
c40-23 79-47 116-72
c29-20 53-48 68-81
c14-32 23-60 28-96
c2-11 4-27 7-42
l1-6
c3-15 5-30 7-40
c17-116 30-210 41-299
c5-38 2-72-8-97
c-9-23-24-38-41-41
c-12-2-23 2-33 12
c-9 10-16 24-20 43
c-11 50-14 92-17 132
c-4 42-7 81-18 123
c-8 29-4 46-1 62
c4 19 8 35-13 72
c3-8 6-14 6-16
c1-3 2-5 3-8
c6-17 11-34-6-51
c-11-11-27-15-46-12
c-15 2-31 10-42 18
c-20 16-33 41-45 64
v1
c-8 15-15 28-24 40
c-33 45-70 79-109 102
c-8 5-16 9-24 14
c-37 21-72 41-97 80
c-14 23-26 48-33 72
c0 1-1 3-1 4
c-21-35-49-79-83-120
c42-45 89-85 137-125
c5-4 10-8 15-12
c89-73 181-149 241-249
c16-27 29-55 39-85
c10-30 16-61 19-92
c5-66-9-127-41-177
c-46-72-132-117-217-115
c-33 1-68 9-99 24
c-32 15-60 36-82 61
c-8 10-16 20-22 31
c-14-24-35-46-60-64
c-22-16-47-29-73-39
c-26-9-53-14-78-15
h-5
c-92 0-182 54-226 136
c-12 22-20 47-25 73
c-5 24-7 50-5 77
c3 50 17 102 41 149
c21 42 50 83 88 125
c30 33 65 66 111 104
c18 15 36 30 54 44
l1 1
c46 37 93 76 136 117
c11 10 22 21 32 33
c-4 4-8 9-11 13
c-24 28-45 61-63 97
c-2-9-5-18-8-26
c-11-30-26-55-45-74
c-25-25-57-39-88-54
c-7-3-15-7-22-10
c-25-12-44-34-63-54
l-1-1
c-2-3-5-5-7-8
c-22-24-40-47-54-69
c-4-7-8-14-12-21
l-1-1
c-10-18-19-37-36-50
c-12-9-26-15-40-18
c-17-3-33-1-45 7
c-9 6-12 14-13 21
c0-3 1-5 1-8
c1-11 3-23 1-44
c-3-36-9-72-14-107
v-2
c-4-23-7-47-10-70
c-1-8-2-16-2-24
c-3-37-6-78-31-104
c-17-17-32-17-42-14
c-22 8-38 38-41 63
c-3 35 0 69 2 100
c4 50 11 105 20 166
c2 14 4 29 6 45
c11 77 22 156 52 224
c32 73 100 111 166 148
c10 5 19 11 29 16
c33 19 59 37 80 55
c31 27 50 53 56 77
c4 19 1 37-10 54
c-8 12-21 23-40 32
c-63 30-133 33-213 7
c-58-19-115-50-159-76
c1-2 2-3 3-5
c13-26 14-60 2-89
c-11-26-30-44-55-51
c-14-4-28-3-40 3
c-11 6-20 16-23 29
c-6 18-3 36 9 54
c11 17 30 33 56 49
l10 6
c5 3 11 6 16 10
c-10 12-23 23-39 31
c-21 11-46 16-71 16
c-31 0-63-7-97-22
c-31-13-60-31-89-49
l-1-1
c-29-18-59-36-91-50
c-14-6-30-12-48-11
c-20 1-36 10-50 28
c-11 15-18 34-24 51
v1
c-2 5-3 9-5 13
c-12 30-35 49-67 56
c-19 4-42 5-68 1
c-24-4-49-11-76-22
c-50-20-100-51-137-85
c-3-3-8-3-11 1
c-1 2-2 4-2 6
s1 4 3 6
c38 35 90 67 142 87
c28 11 55 19 80 23
c27 4 52 4 74-1
c18-4 34-12 46-22
c14-11 25-26 32-44
c2-5 4-9 6-15
c6-16 12-33 22-47
c10-14 22-21 37-22
c14 0 29 5 41 10
c31 13 61 31 90 49
c29 18 59 36 91 50
c36 15 70 23 103 23
c27 0 55-6 78-18
c18-9 34-22 45-37
c45 26 104 59 164 78
c38 12 75 18 109 18
h1
c41 0 79-9 116-26
c22-10 37-23 47-38
c13-21 17-43 12-66
c-11-46-59-94-144-143
c-9-5-19-11-28-16
l-1-1
c-63-36-129-72-159-141
c-30-66-40-145-51-220
c-2-15-4-30-6-45
c-9-61-16-115-20-166
v-1
c-3-30-6-64-2-96
c2-19 15-44 30-50
c8-3 16 0 25 9
c21 22 24 60 27 95
c1 8 1 17 2 25
c3 24 7 48 10 71
v2
c6 34 11 70 14 105
c2 19 0 30-1 41
c-1 8-2 15-1 24
c1 31 12 60 34 85
c10 12 24 27 38 42
l6 6
c8 15 16 30 24 44
c15 26 32 57 51 87
c1 2 3 5 5 8
c9 15 21 35 36 39
h1
c2 0 6 1 10-1
c5-3 8-8 9-14
c2-15-10-39-40-77
c-23-30-53-63-81-94
c-8-15-16-30-24-45
c-3-6-6-11-9-17
c-10-18-20-37-24-57
c-4-17-3-24 4-29
c20-13 49-4 67 10
c14 11 23 28 32 44
c4 9 9 16 13 24
c15 23 33 46 56 71
c2 3 5 5 7 8
c20 22 40 44 68 58
c6 3 11 5 17 8
l5 2
c30 14 60 28 83 50
c17 17 31 40 41 68
c5 14 9 29 11 45
c-4 9-8 19-12 29
c0 1-1 3-2 5
l-1 2
c-8 18-14 35-8 46
c2 3 6 7 15 8
c6 0 11-2 16-6
c13-13 12-44 12-50
c-1-11-2-21-4-31
c19-41 44-82 71-113
c3-4 6-7 10-11
c36 43 65 90 89 130
c-4 18-5 36-4 53
c0 6 2 13 5 17
c4 7 10 11 18 11
c9 0 16-8 18-15
c7-18-1-37-11-54
c-3-5-5-9-8-14
c1-6 3-12 5-19
c7-23 18-47 31-69
c23-36 56-55 91-75
c8-4 16-9 24-14
c40-24 78-60 113-106
c10-13 18-28 25-43
c12-22 24-45 41-60
c9-7 22-13 34-15
c10-2 23-2 31 7
c10 10 8 18 2 35
c-1 3-2 5-3 8
c-2 7-17 42-37 85
c-8 10-17 21-27 32
l-3 4
c-23 27-51 60-71 88
c-24 33-34 54-33 67
c1 5 3 9 7 12
c4 3 9 4 14 3
c8-2 18-10 29-25
c9-12 20-28 32-48
c19-32 41-74 64-124
c15-18 25-31 32-42
c40-58 35-82 30-106
c-3-14-6-29 1-54
c12-43 15-83 19-126
c3-40 7-81 17-130
c6-28 19-45 35-42
c11 2 22 13 29 31
c11 29 10 65 7 90
c-10 88-23 182-40 298
c-2 11-4 27-7 43
v2
c-3 16-6 33-7 44
c-5 34-13 62-27 92
c-14 31-35 56-62 74
c-38 25-76 49-115 71
l-9 5
c-29 16-59 33-84 57
c0 0-1 1-1 1
c-20 20-35 46-41 72
c-7 31 0 59 20 80
c13 14 31 25 55 33
c47 16 104 22 164 19
c57-3 114-15 161-35
c16-7 31-15 45-24
c14 17 31 32 47 43
c31 20 65 25 104 12
c34-10 66-31 99-51
c20-12 38-24 57-33
c34-17 84-40 132-54
c48-14 86-16 112-7
c18 7 31 20 39 39
c23 56 62 92 111 103
c30 7 64 5 97-7
c32-11 64-30 92-54
c2-1 3-3 3-6
C3243 1399 3242 1397 3241 1396z
M2390 1350
c-8 15-21 30-37 43
c-16-22-26-45-30-65
c-2-11 0-25 5-38
c5-14 13-24 21-29
c3-2 7-3 11-3
c7 0 14 3 21 10
c10 8 16 22 17 39
C2400 1322 2397 1339 2390 1350z
M1754 1282
c-1-3-2-7-3-10
c0-9 0-19 1-30
c7 13 13 26 8 38
c-1 3-3 5-4 5
C1756 1285 1755 1284 1754 1282z
M1313 271
c37-22 77-33 118-34
h8
c47 1 101 20 142 50
c27 20 47 43 61 68
c-6 14-11 29-13 44
c-3 17-3 35 0 52
c1 6 3 12 7 17
c4 6 9 9 15 10
c5 0 14-2 20-19
c4-14 6-33 4-50
c-2-18-7-36-15-53
c7-13 15-26 25-37
c20-23 47-43 76-57
c30-14 62-21 93-22
c80-2 160 40 203 108
c30 46 43 104 38 167
c-2 29-8 59-18 88
c-9 29-22 56-38 82
c-58 97-149 172-237 245
c-5 4-10 8-15 12
c-46 38-95 79-137 125
c-10-11-21-22-32-33
c-45-42-94-82-138-118
c-18-14-36-29-54-44
c-46-38-81-71-110-103
c-37-40-65-80-85-121
c-23-45-36-95-39-143
c-1-25 0-49 5-73
c5-24 13-47 24-68
C1243 326 1274 294 1313 271z
M1655 455
c-1 5-3 7-3 7
c-2-1-5-6-6-13
c-3-16-3-32 0-47
c1-9 3-17 6-26
c4 11 6 23 7 34
C1660 426 1658 443 1655 455z
M1551 1285
c-1 1-2 2-4 2
h-2
c0 0-1-3 1-12
c2-7 5-14 8-20
c1-3 2-6 3-8
c0 0 0-1 1-1
v1
C1559 1258 1557 1279 1551 1285z
M971 1359
c-1 1-1 3-2 4
c-8-5-17-10-25-15
l-2-1
c-47-28-66-57-58-85
c3-9 8-15 16-19
c5-2 10-4 16-4
c4 0 8 1 12 2
c20 6 36 21 44 42
C983 1309 982 1337 971 1359z
M1240 1034
c14 16 25 29 34 41
c34 43 37 59 37 65
v1
c-8-3-19-21-25-31
c-2-3-4-6-5-8
C1266 1079 1253 1056 1240 1034z
M2085 1015
c-12 24-24 45-34 63
c-33 56-47 65-52 66
h-1
v-1
c-1-5 3-18 30-56
C2044 1064 2065 1039 2085 1015z
M1134 856
c5 22 16 42 26 61
l2 3
c0 1 1 2 1 3
c-1-1-1-1-2-2
c-19-23-30-48-30-75
v-10
C1131 843 1132 851 1134 856z"/></svg>