<?xml version="1.0" encoding="UTF-8"?>
<svg xmlns="http://www.w3.org/2000/svg" viewBox="0 0 1024 1024">
  <path d="M500.429 893.645v57.242c-0.058 19.092-15.519 34.553-34.606 34.611l-0.006 0h-392.704c-19.092-0.058-34.553-15.519-34.611-34.606l-0-0.006v-877.773c0.058-19.092 15.519-34.553 34.606-34.611l0.006-0h62.054c5.939 0 7.27 2.56 7.27 3.891 0.116 10.544 8.69 19.046 19.25 19.046 0 0 0.001-0 0.001-0l215.552 0c10.632 0 19.251-8.619 19.251-19.251v-0c0-1.331 1.434-3.891 7.373-3.891h61.952c19.092 0.058 34.553 15.519 34.611 34.606l0 0.006v305.971c11.19-5.585 24.193-9.591 37.908-11.306l0.594-0.061v-294.4c0-40.38-32.734-73.114-73.114-73.114v0h-392.704c-40.38 0-73.114 32.734-73.114 73.114v0 877.773c-0 40.38 32.734 73.114 73.114 73.114l0-0h392.704c40.38 0 73.114-32.734 73.114-73.114v-44.032c-14.725-3.477-27.562-8.011-39.732-13.729l1.229 0.519z" />
</svg>
