<?xml version="1.0" encoding="utf-8"?>
<!-- Generator: Adobe Illustrator 27.4.1, SVG Export Plug-In . SVG Version: 6.00 Build 0)  -->
<svg version="1.1" id="Layer_1" xmlns="http://www.w3.org/2000/svg" xmlns:xlink="http://www.w3.org/1999/xlink" x="0px" y="0px"
	 viewBox="0 0 113 130" style="enable-background:new 0 0 113 130;" xml:space="preserve">
<style type="text/css">
	.st0{fill:#005DFF;}
	.st1{fill:#FFFFFF;}
	.st2{fill:#E7D086;}
	.st3{fill:url(#SVGID_1_);}
	.st4{fill:url(#SVGID_00000094615315299994638110000015682936958745024169_);}
	.st5{fill:url(#SVGID_00000177453480169115760410000017911821320476246975_);}
	.st6{fill:url(#SVGID_00000011001739211816590100000002224913405592973726_);}
	.st7{fill:#1550A2;}
</style>
<g>
	<g>
		<rect x="5.1" y="5.1" class="st0" width="102.8" height="119.7"/>
		<path class="st0" d="M0,0v130h113V0H0z M112.3,129.3H0.7V0.7h111.6V129.3z"/>
	</g>
</g>
<path class="st1" d="M112.6,129.6H0.4V0.4h112.3V129.6z M5.1,124.9h102.8V5.1H5.1V124.9z"/>
<polygon class="st2" points="94.1,19.3 92.1,13.2 90.1,19.3 83.8,19.3 88.9,23.1 86.9,29.2 92.1,25.4 97.2,29.2 95.3,23.1 
	100.4,19.3 "/>
<linearGradient id="SVGID_1_" gradientUnits="userSpaceOnUse" x1="23.6507" y1="16.1158" x2="147.4106" y2="96.9006">
	<stop  offset="0" style="stop-color:#B0803E"/>
	<stop  offset="0.3044" style="stop-color:#E7D086"/>
	<stop  offset="0.7527" style="stop-color:#916A2D"/>
	<stop  offset="1" style="stop-color:#BB782A"/>
</linearGradient>
<path class="st3" d="M19.2,34.3c0-10.8,8.3-18.7,18.7-18.7c6.6,0,11.3,2.4,14.5,7.5l-5.7,4.1c-1.7-2.8-4.6-4.8-8.8-4.8
	c-6.6,0-11,5.1-11,11.9s4.4,12,11,12c4.7,0,7.3-2.3,9.4-5.4l5.8,4c-3.2,4.9-8.2,8.1-15.2,8.1C27.5,53,19.2,45.1,19.2,34.3L19.2,34.3
	z M70.3,15.6H71l16.6,36.9h-7.9L78,48.4H63.3l-1.7,4.1h-7.2L70.3,15.6L70.3,15.6z M75.4,42.1l-2.6-6.3c-1.1-2.6-2.2-6.6-2.2-6.6
	s-1.1,4-2.1,6.6l-2.6,6.3H75.4L75.4,42.1z"/>
<linearGradient id="SVGID_00000074400703361471217330000017210376748544952222_" gradientUnits="userSpaceOnUse" x1="33.2935" y1="45.8171" x2="78.4987" y2="123.8693">
	<stop  offset="0" style="stop-color:#B0803E"/>
	<stop  offset="0.3044" style="stop-color:#E7D086"/>
	<stop  offset="0.7527" style="stop-color:#916A2D"/>
	<stop  offset="1" style="stop-color:#BB782A"/>
</linearGradient>
<path style="fill:url(#SVGID_00000074400703361471217330000017210376748544952222_);" d="M53.1,66.1H38.2v-6.7h25.7v0.7L48.2,96.3
	h-8.3L53.1,66.1L53.1,66.1z"/>
<linearGradient id="SVGID_00000113351555269883565360000013349445613475313291_" gradientUnits="userSpaceOnUse" x1="23.4937" y1="56.6361" x2="44.3164" y2="183.5248">
	<stop  offset="0" style="stop-color:#B0803E"/>
	<stop  offset="0.3044" style="stop-color:#E7D086"/>
	<stop  offset="0.7527" style="stop-color:#916A2D"/>
	<stop  offset="1" style="stop-color:#BB782A"/>
</linearGradient>
<polygon style="fill:url(#SVGID_00000113351555269883565360000013349445613475313291_);" points="23.4,66.1 17.5,66.1 17.5,59.4 
	31.6,59.4 31.6,90.7 23.4,90.7 23.4,66.1 "/>
<linearGradient id="SVGID_00000031186266019988792950000012182540430182680970_" gradientUnits="userSpaceOnUse" x1="60.0097" y1="44.6138" x2="97.0672" y2="113.2028">
	<stop  offset="0" style="stop-color:#B0803E"/>
	<stop  offset="0.3044" style="stop-color:#E7D086"/>
	<stop  offset="0.7527" style="stop-color:#916A2D"/>
	<stop  offset="1" style="stop-color:#BB782A"/>
</linearGradient>
<path style="fill:url(#SVGID_00000031186266019988792950000012182540430182680970_);" d="M64,89L64,89l7-3.5
	c0.9,2.3,2.6,4.3,6.2,4.3s5.5-2.4,5.5-5.5c0-3.3-2.1-5.6-6.2-5.6c-3.6,0-6.1,1.5-7.9,2.9l-0.7-0.3V59.4h20.2v6.7H74.5v6.6
	c0.8-0.5,2.6-0.9,4.3-0.9c7.5,0,12.4,5.6,12.4,12.5c0,6.9-4.5,12.6-13.9,12.6C70,96.9,65.7,93,64,89"/>
<path class="st7" d="M96.8,116.7H16.2c0.6-0.7,1.1-1.4,1.6-2.1c1-1.4,2.1-2.7,3.1-4.1c0.5-0.6,0.5-1.1,0-1.7c-1.6-2-3.1-4.1-4.7-6.2
	h80.6c0.1,0.2-0.1,0.3-0.2,0.4c-1.4,1.9-2.8,3.7-4.2,5.6c-0.6,0.7-0.6,1.3,0,2c1.4,1.8,2.8,3.6,4.2,5.5
	C96.6,116.2,96.9,116.4,96.8,116.7L96.8,116.7z"/>
<g>
	<rect x="53.3" y="105.2" class="st1" width="1.5" height="7.4"/>
	<path class="st1" d="M50.5,110.3c0.9-0.4,1.4-1.1,1.4-2.3c0-1.8-1.2-2.8-3.3-2.8h-2v7.4h1.5v-1.8h0.5c0.1,0,0.3,0,0.4,0l1.2,1.9
		h1.7l0,0L50.5,110.3z M48.6,109.5h-0.5v-2.9h0.5c1.2,0,1.8,0.4,1.8,1.5S49.9,109.5,48.6,109.5z"/>
	<path class="st1" d="M35,109.2l-3.6-4h-0.1v7.5h1.4v-2.8c0-0.5-0.1-1.3-0.1-1.3s0.4,0.7,0.8,1l1.5,1.6h0.1l1.5-1.6
		c0.3-0.4,0.8-1,0.8-1s-0.1,0.8-0.1,1.3v2.8h1.5v-7.5h-0.1L35,109.2z"/>
	<path class="st1" d="M26.8,105.2L26.8,105.2l-3.2,7.4h1.5l0.3-0.8h3l0.3,0.8h1.6l-3.4-7.4H26.8z M27.8,110.5L27.8,110.5h-1.9
		l0.5-1.3c0.2-0.5,0.4-1.3,0.4-1.3s0.2,0.8,0.4,1.3L27.8,110.5z"/>
	<polygon class="st1" points="41.8,110.2 44.7,110.2 44.7,108.9 41.8,108.9 41.8,106.6 45.1,106.6 45.1,105.2 40.2,105.2 
		40.2,112.6 45.3,112.6 45.3,111.3 41.8,111.3 	"/>
	<path class="st1" d="M86.4,106.9c-1.6,0-3,1.2-3,2.9c0,1.7,1.4,2.9,3,2.9c1.6,0,3-1.2,3-2.9S88,106.9,86.4,106.9z M86.4,111.4
		c-0.8,0-1.4-0.6-1.4-1.6s0.6-1.6,1.4-1.6s1.5,0.6,1.5,1.6S87.3,111.4,86.4,111.4z"/>
	<path class="st1" d="M80.6,109.2c-0.3,0-0.6,0.1-0.8,0.2v-1.2h2.5V107h-3.7v4l0.1,0.1c0.3-0.3,0.8-0.5,1.4-0.5c0.7,0,1.1,0.4,1.1,1
		c0,0.6-0.3,1-1,1s-1-0.3-1.1-0.8l-1.3,0.6v0c0.3,0.7,1.1,1.4,2.4,1.4c1.7,0,2.5-1,2.5-2.3C82.8,110.2,81.9,109.2,80.6,109.2z"/>
	<path class="st1" d="M66.4,105.2L66.4,105.2l-3.2,7.4h1.5l0.3-0.8h3l0.3,0.8h1.6l-3.4-7.4H66.4z M67.5,110.5L67.5,110.5h-1.9
		l0.5-1.3c0.2-0.5,0.4-1.3,0.4-1.3s0.2,0.8,0.4,1.3L67.5,110.5z"/>
	<path class="st1" d="M75.4,111.4c0,0,0.4-0.3,0.6-0.5l0.2-0.2c0.7-0.7,1.1-1.4,1.1-2.1c0-0.9-0.7-1.8-2.2-1.8c-1.1,0-2,0.7-2.3,1.8
		l1.4,0.4c0.2-0.5,0.4-0.9,0.9-0.9c0.4,0,0.7,0.2,0.7,0.6c0,0.5-0.3,0.7-0.9,1.4l-2.1,2.3v0v0.1h4.6v-1.2h-1.3
		C75.9,111.4,75.4,111.4,75.4,111.4z"/>
	<path class="st1" d="M59.9,111.4c-1.3,0-2.2-1.1-2.2-2.4c0-1.4,0.9-2.4,2.2-2.4c0.8,0,1.4,0.4,1.8,1l1.2-0.8
		c-0.7-1-1.6-1.5-2.9-1.5c-2.1,0-3.8,1.6-3.8,3.8h0c0,2.2,1.7,3.8,3.8,3.8c1.4,0,2.4-0.6,3.1-1.6l-1.2-0.8
		C61.4,110.9,60.8,111.4,59.9,111.4z"/>
</g>
</svg>
